<svg xmlns="http://www.w3.org/2000/svg" width="722" height="656" viewBox="0 0 722.5 656.0" font-family="sans-serif"><rect width="722.5" height="656.0" fill="#ffffff"/><text x="12" y="20.0" font-size="15" font-weight="bold" fill="#222222">Rectangular tree: sim_hgt_1000_seed2</text><text x="12" y="38.0" font-size="12" font-weight="normal" fill="#222222">33 taxa, 40,920 quartets; W2-sym, W2c 100 resamples, S2 0 replicates, strand filter on, MAW lengths by entropy, seed 2</text><text x="12" y="56.0" font-size="12" font-weight="normal" fill="#222222">Run of 2026-10-06 (UTC), Q-MAWS 0.0.0</text><g fill="none" stroke-linecap="square"><path d="M20.00,330.12 V154.25 H94.29" stroke="#21988a" stroke-width="2.13"/><path d="M20.00,330.12 V506.00 H94.29" stroke="#21988a" stroke-width="2.13"/><path d="M94.29,154.25 V100.00 H168.57" stroke="#21978a" stroke-width="2.13"/><path d="M94.29,154.25 V208.50 H168.57" stroke="#21958b" stroke-width="2.16"/><path d="M168.57,100.00 V84.00 H242.86" stroke="#2a778e" stroke-width="2.59"/><path d="M168.57,100.00 V116.00 H242.86" stroke="#209f88" stroke-width="2.02"/><path d="M242.86,84.00 V76.00 H540.00" stroke="#444444" stroke-width="1.20"/><path d="M242.86,84.00 V92.00 H540.00" stroke="#444444" stroke-width="1.20"/><path d="M242.86,116.00 V108.00 H540.00" stroke="#444444" stroke-width="1.20"/><path d="M242.86,116.00 V124.00 H540.00" stroke="#444444" stroke-width="1.20"/><path d="M168.57,208.50 V164.00 H242.86" stroke="#1f9d89" stroke-width="2.05"/><path d="M168.57,208.50 V253.00 H242.86" stroke="#248a8d" stroke-width="2.32"/><path d="M242.86,164.00 V148.00 H317.14" stroke="#1f9d89" stroke-width="2.05"/><path d="M242.86,164.00 V180.00 H317.14" stroke="#1f9e89" stroke-width="2.04"/><path d="M317.14,148.00 V140.00 H540.00" stroke="#444444" stroke-width="1.20"/><path d="M317.14,148.00 V156.00 H540.00" stroke="#444444" stroke-width="1.20"/><path d="M317.14,180.00 V172.00 H540.00" stroke="#444444" stroke-width="1.20"/><path d="M317.14,180.00 V188.00 H540.00" stroke="#444444" stroke-width="1.20"/><path d="M242.86,253.00 V224.00 H317.14" stroke="#3e4889" stroke-width="3.22"/><path d="M242.86,253.00 V282.00 H317.14" stroke="#27808e" stroke-width="2.45"/><path d="M317.14,224.00 V212.00 H391.43" stroke="#461769" stroke-width="3.78"/><path d="M317.14,224.00 V236.00 H540.00" stroke="#444444" stroke-width="1.20"/><path d="M391.43,212.00 V204.00 H540.00" stroke="#444444" stroke-width="1.20"/><path d="M391.43,212.00 V220.00 H540.00" stroke="#444444" stroke-width="1.20"/><path d="M317.14,282.00 V260.00 H391.43" stroke="#440154" stroke-width="4.00"/><path d="M317.14,282.00 V304.00 H391.43" stroke="#2d728e" stroke-width="2.68"/><path d="M391.43,260.00 V252.00 H540.00" stroke="#444444" stroke-width="1.20"/><path d="M391.43,260.00 V268.00 H540.00" stroke="#444444" stroke-width="1.20"/><path d="M391.43,304.00 V292.00 H465.71" stroke="#33638d" stroke-width="2.89"/><path d="M391.43,304.00 V316.00 H540.00" stroke="#444444" stroke-width="1.20"/><path d="M465.71,292.00 V284.00 H540.00" stroke="#444444" stroke-width="1.20"/><path d="M465.71,292.00 V300.00 H540.00" stroke="#444444" stroke-width="1.20"/><path d="M94.29,506.00 V450.00 H168.57" stroke="#21978a" stroke-width="2.14"/><path d="M94.29,506.00 V562.00 H168.57" stroke="#22938b" stroke-width="2.19"/><path d="M168.57,450.00 V404.00 H242.86" stroke="#21958b" stroke-width="2.16"/><path d="M168.57,450.00 V496.00 H242.86" stroke="#2d708e" stroke-width="2.70"/><path d="M242.86,404.00 V362.00 H317.14" stroke="#26828e" stroke-width="2.43"/><path d="M242.86,404.00 V446.00 H317.14" stroke="#1f9e89" stroke-width="2.04"/><path d="M317.14,362.00 V340.00 H391.43" stroke="#440154" stroke-width="4.00"/><path d="M317.14,362.00 V384.00 H391.43" stroke="#2d708e" stroke-width="2.70"/><path d="M391.43,340.00 V332.00 H540.00" stroke="#444444" stroke-width="1.20"/><path d="M391.43,340.00 V348.00 H540.00" stroke="#444444" stroke-width="1.20"/><path d="M391.43,384.00 V372.00 H465.71" stroke="#440154" stroke-width="4.00"/><path d="M391.43,384.00 V396.00 H540.00" stroke="#444444" stroke-width="1.20"/><path d="M465.71,372.00 V364.00 H540.00" stroke="#444444" stroke-width="1.20"/><path d="M465.71,372.00 V380.00 H540.00" stroke="#444444" stroke-width="1.20"/><path d="M317.14,446.00 V432.00 H391.43" stroke="#1f9d89" stroke-width="2.05"/><path d="M317.14,446.00 V460.00 H540.00" stroke="#444444" stroke-width="1.20"/><path d="M391.43,432.00 V420.00 H465.71" stroke="#209f88" stroke-width="2.02"/><path d="M391.43,432.00 V444.00 H540.00" stroke="#444444" stroke-width="1.20"/><path d="M465.71,420.00 V412.00 H540.00" stroke="#444444" stroke-width="1.20"/><path d="M465.71,420.00 V428.00 H540.00" stroke="#444444" stroke-width="1.20"/><path d="M242.86,496.00 V484.00 H317.14" stroke="#440558" stroke-width="3.96"/><path d="M242.86,496.00 V508.00 H540.00" stroke="#444444" stroke-width="1.20"/><path d="M317.14,484.00 V476.00 H540.00" stroke="#444444" stroke-width="1.20"/><path d="M317.14,484.00 V492.00 H540.00" stroke="#444444" stroke-width="1.20"/><path d="M168.57,562.00 V544.00 H242.86" stroke="#297a8e" stroke-width="2.55"/><path d="M168.57,562.00 V580.00 H242.86" stroke="#209f88" stroke-width="2.02"/><path d="M242.86,544.00 V532.00 H317.14" stroke="#462d7b" stroke-width="3.55"/><path d="M242.86,544.00 V556.00 H540.00" stroke="#444444" stroke-width="1.20"/><path d="M317.14,532.00 V524.00 H540.00" stroke="#444444" stroke-width="1.20"/><path d="M317.14,532.00 V540.00 H540.00" stroke="#444444" stroke-width="1.20"/><path d="M242.86,580.00 V572.00 H540.00" stroke="#444444" stroke-width="1.20"/><path d="M242.86,580.00 V588.00 H540.00" stroke="#444444" stroke-width="1.20"/></g><text x="92.29" y="151.25" font-size="9" fill="#333333" text-anchor="end">0.38</text><text x="166.57" y="97.00" font-size="9" fill="#333333" text-anchor="end">0.38</text><text x="240.86" y="81.00" font-size="9" fill="#333333" text-anchor="end">0.53</text><text x="240.86" y="113.00" font-size="9" fill="#333333" text-anchor="end">0.34</text><text x="166.57" y="205.50" font-size="9" fill="#333333" text-anchor="end">0.39</text><text x="240.86" y="161.00" font-size="9" fill="#333333" text-anchor="end">0.35</text><text x="315.14" y="145.00" font-size="9" fill="#333333" text-anchor="end">0.35</text><text x="315.14" y="177.00" font-size="9" fill="#333333" text-anchor="end">0.35</text><text x="240.86" y="250.00" font-size="9" fill="#333333" text-anchor="end">0.44</text><text x="315.14" y="221.00" font-size="9" fill="#333333" text-anchor="end">0.74</text><text x="389.43" y="209.00" font-size="9" fill="#333333" text-anchor="end">0.93</text><text x="315.14" y="279.00" font-size="9" fill="#333333" text-anchor="end">0.48</text><text x="389.43" y="257.00" font-size="9" fill="#333333" text-anchor="end">1.00</text><text x="389.43" y="301.00" font-size="9" fill="#333333" text-anchor="end">0.56</text><text x="463.71" y="289.00" font-size="9" fill="#333333" text-anchor="end">0.63</text><text x="92.29" y="503.00" font-size="9" fill="#333333" text-anchor="end">0.38</text><text x="166.57" y="447.00" font-size="9" fill="#333333" text-anchor="end">0.38</text><text x="240.86" y="401.00" font-size="9" fill="#333333" text-anchor="end">0.39</text><text x="315.14" y="359.00" font-size="9" fill="#333333" text-anchor="end">0.48</text><text x="389.43" y="337.00" font-size="9" fill="#333333" text-anchor="end">1.00</text><text x="389.43" y="381.00" font-size="9" fill="#333333" text-anchor="end">0.57</text><text x="463.71" y="369.00" font-size="9" fill="#333333" text-anchor="end">1.00</text><text x="315.14" y="443.00" font-size="9" fill="#333333" text-anchor="end">0.35</text><text x="389.43" y="429.00" font-size="9" fill="#333333" text-anchor="end">0.35</text><text x="463.71" y="417.00" font-size="9" fill="#333333" text-anchor="end">0.34</text><text x="240.86" y="493.00" font-size="9" fill="#333333" text-anchor="end">0.57</text><text x="315.14" y="481.00" font-size="9" fill="#333333" text-anchor="end">0.99</text><text x="166.57" y="559.00" font-size="9" fill="#333333" text-anchor="end">0.40</text><text x="240.86" y="541.00" font-size="9" fill="#333333" text-anchor="end">0.52</text><text x="315.14" y="529.00" font-size="9" fill="#333333" text-anchor="end">0.85</text><text x="240.86" y="577.00" font-size="9" fill="#333333" text-anchor="end">0.34</text><rect x="544.0" y="71.0" width="10" height="10" fill="#f4cfa1" stroke="#666666" stroke-width="0.5"/><text x="558.0" y="76.0" font-size="11" fill="#222222" dominant-baseline="central">Species2 ●</text><rect x="637.0" y="68.0" width="12" height="16" fill="#e69f00"/><text x="653.0" y="76.0" font-size="10" font-style="italic" fill="#222222" dominant-baseline="central">Clade A</text><rect x="544.0" y="87.0" width="10" height="10" fill="#f4cfa0" stroke="#666666" stroke-width="0.5"/><text x="558.0" y="92.0" font-size="11" fill="#222222" dominant-baseline="central">Species21 ●</text><rect x="637.0" y="84.0" width="12" height="16" fill="#e69f00"/><text x="653.0" y="92.0" font-size="10" font-style="italic" fill="#222222" dominant-baseline="central">Clade A</text><rect x="544.0" y="103.0" width="10" height="10" fill="#f4c891" stroke="#666666" stroke-width="0.5"/><text x="558.0" y="108.0" font-size="11" fill="#222222" dominant-baseline="central">Species16 ●</text><rect x="637.0" y="100.0" width="12" height="16" fill="#e69f00"/><text x="653.0" y="108.0" font-size="10" font-style="italic" fill="#222222" dominant-baseline="central">Clade A</text><rect x="544.0" y="119.0" width="10" height="10" fill="#f4c992" stroke="#666666" stroke-width="0.5"/><text x="558.0" y="124.0" font-size="11" fill="#222222" dominant-baseline="central">Species20 ●</text><rect x="637.0" y="116.0" width="12" height="16" fill="#e69f00"/><text x="653.0" y="124.0" font-size="10" font-style="italic" fill="#222222" dominant-baseline="central">Clade A</text><rect x="544.0" y="135.0" width="10" height="10" fill="#f4cb98" stroke="#666666" stroke-width="0.5"/><text x="558.0" y="140.0" font-size="11" fill="#222222" dominant-baseline="central">Species1 ●</text><rect x="637.0" y="132.0" width="12" height="16" fill="#56b4e9"/><text x="653.0" y="140.0" font-size="10" font-style="italic" fill="#222222" dominant-baseline="central">Clade B</text><rect x="544.0" y="151.0" width="10" height="10" fill="#f4ca95" stroke="#666666" stroke-width="0.5"/><text x="558.0" y="156.0" font-size="11" fill="#222222" dominant-baseline="central">Species10 ●</text><rect x="637.0" y="148.0" width="12" height="16" fill="#56b4e9"/><text x="653.0" y="156.0" font-size="10" font-style="italic" fill="#222222" dominant-baseline="central">Clade B</text><rect x="544.0" y="167.0" width="10" height="10" fill="#f4cc9a" stroke="#666666" stroke-width="0.5"/><text x="558.0" y="172.0" font-size="11" fill="#222222" dominant-baseline="central">Species12 ●</text><rect x="637.0" y="164.0" width="12" height="16" fill="#56b4e9"/><text x="653.0" y="172.0" font-size="10" font-style="italic" fill="#222222" dominant-baseline="central">Clade B</text><rect x="544.0" y="183.0" width="10" height="10" fill="#f4ca95" stroke="#666666" stroke-width="0.5"/><text x="558.0" y="188.0" font-size="11" fill="#222222" dominant-baseline="central">Species14 ●</text><rect x="637.0" y="180.0" width="12" height="16" fill="#56b4e9"/><text x="653.0" y="188.0" font-size="10" font-style="italic" fill="#222222" dominant-baseline="central">Clade B</text><rect x="544.0" y="199.0" width="10" height="10" fill="#f5e1c8" stroke="#666666" stroke-width="0.5"/><text x="558.0" y="204.0" font-size="11" fill="#222222" dominant-baseline="central">Species11 ●</text><rect x="637.0" y="196.0" width="12" height="16" fill="#009e73"/><text x="653.0" y="204.0" font-size="10" font-style="italic" fill="#222222" dominant-baseline="central">Clade C</text><rect x="544.0" y="215.0" width="10" height="10" fill="#f6e3ca" stroke="#666666" stroke-width="0.5"/><text x="558.0" y="220.0" font-size="11" fill="#222222" dominant-baseline="central">Species31 ●</text><rect x="637.0" y="212.0" width="12" height="16" fill="#009e73"/><text x="653.0" y="220.0" font-size="10" font-style="italic" fill="#222222" dominant-baseline="central">Clade C</text><rect x="544.0" y="231.0" width="10" height="10" fill="#f5d8b3" stroke="#666666" stroke-width="0.5"/><text x="558.0" y="236.0" font-size="11" fill="#222222" dominant-baseline="central">Species28 ●</text><rect x="637.0" y="228.0" width="12" height="16" fill="#009e73"/><text x="653.0" y="236.0" font-size="10" font-style="italic" fill="#222222" dominant-baseline="central">Clade C</text><rect x="544.0" y="247.0" width="10" height="10" fill="#f5dab7" stroke="#666666" stroke-width="0.5"/><text x="558.0" y="252.0" font-size="11" fill="#222222" dominant-baseline="central">Species3 ●</text><rect x="637.0" y="244.0" width="12" height="16" fill="#009e73"/><text x="653.0" y="252.0" font-size="10" font-style="italic" fill="#222222" dominant-baseline="central">Clade C</text><rect x="544.0" y="263.0" width="10" height="10" fill="#f5dab7" stroke="#666666" stroke-width="0.5"/><text x="558.0" y="268.0" font-size="11" fill="#222222" dominant-baseline="central">Species33 ●</text><rect x="637.0" y="260.0" width="12" height="16" fill="#009e73"/><text x="653.0" y="268.0" font-size="10" font-style="italic" fill="#222222" dominant-baseline="central">Clade C</text><rect x="544.0" y="279.0" width="10" height="10" fill="#f5d5ae" stroke="#666666" stroke-width="0.5"/><text x="558.0" y="284.0" font-size="11" fill="#222222" dominant-baseline="central">Species19 ●</text><rect x="637.0" y="276.0" width="12" height="16" fill="#009e73"/><text x="653.0" y="284.0" font-size="10" font-style="italic" fill="#222222" dominant-baseline="central">Clade C</text><rect x="544.0" y="295.0" width="10" height="10" fill="#f5d5ac" stroke="#666666" stroke-width="0.5"/><text x="558.0" y="300.0" font-size="11" fill="#222222" dominant-baseline="central">Species23 ●</text><rect x="637.0" y="292.0" width="12" height="16" fill="#009e73"/><text x="653.0" y="300.0" font-size="10" font-style="italic" fill="#222222" dominant-baseline="central">Clade C</text><rect x="544.0" y="311.0" width="10" height="10" fill="#f4d1a4" stroke="#666666" stroke-width="0.5"/><text x="558.0" y="316.0" font-size="11" fill="#222222" dominant-baseline="central">Species17 ●</text><rect x="637.0" y="308.0" width="12" height="16" fill="#009e73"/><text x="653.0" y="316.0" font-size="10" font-style="italic" fill="#222222" dominant-baseline="central">Clade C</text><rect x="544.0" y="327.0" width="10" height="10" fill="#f5dcbc" stroke="#666666" stroke-width="0.5"/><text x="558.0" y="332.0" font-size="11" fill="#222222" dominant-baseline="central">Species25 ●</text><rect x="637.0" y="324.0" width="12" height="16" fill="#f0e442"/><text x="653.0" y="332.0" font-size="10" font-style="italic" fill="#222222" dominant-baseline="central">Clade D</text><rect x="544.0" y="343.0" width="10" height="10" fill="#f5dcbc" stroke="#666666" stroke-width="0.5"/><text x="558.0" y="348.0" font-size="11" fill="#222222" dominant-baseline="central">Species6 ●</text><rect x="637.0" y="340.0" width="12" height="16" fill="#f0e442"/><text x="653.0" y="348.0" font-size="10" font-style="italic" fill="#222222" dominant-baseline="central">Clade D</text><rect x="544.0" y="359.0" width="10" height="10" fill="#f5dab8" stroke="#666666" stroke-width="0.5"/><text x="558.0" y="364.0" font-size="11" fill="#222222" dominant-baseline="central">Species29 ●</text><rect x="637.0" y="356.0" width="12" height="16" fill="#f0e442"/><text x="653.0" y="364.0" font-size="10" font-style="italic" fill="#222222" dominant-baseline="central">Clade D</text><rect x="544.0" y="375.0" width="10" height="10" fill="#f5dbb9" stroke="#666666" stroke-width="0.5"/><text x="558.0" y="380.0" font-size="11" fill="#222222" dominant-baseline="central">Species30 ●</text><rect x="637.0" y="372.0" width="12" height="16" fill="#f0e442"/><text x="653.0" y="380.0" font-size="10" font-style="italic" fill="#222222" dominant-baseline="central">Clade D</text><rect x="544.0" y="391.0" width="10" height="10" fill="#f4cc9a" stroke="#666666" stroke-width="0.5"/><text x="558.0" y="396.0" font-size="11" fill="#222222" dominant-baseline="central">Species13 ●</text><rect x="637.0" y="388.0" width="12" height="16" fill="#f0e442"/><text x="653.0" y="396.0" font-size="10" font-style="italic" fill="#222222" dominant-baseline="central">Clade D</text><rect x="544.0" y="407.0" width="10" height="10" fill="#f4cc99" stroke="#666666" stroke-width="0.5"/><text x="558.0" y="412.0" font-size="11" fill="#222222" dominant-baseline="central">Species15 ●</text><rect x="637.0" y="404.0" width="12" height="16" fill="#f0e442"/><text x="653.0" y="412.0" font-size="10" font-style="italic" fill="#222222" dominant-baseline="central">Clade D</text><rect x="544.0" y="423.0" width="10" height="10" fill="#f4cc99" stroke="#666666" stroke-width="0.5"/><text x="558.0" y="428.0" font-size="11" fill="#222222" dominant-baseline="central">Species27 ●</text><rect x="637.0" y="420.0" width="12" height="16" fill="#f0e442"/><text x="653.0" y="428.0" font-size="10" font-style="italic" fill="#222222" dominant-baseline="central">Clade D</text><rect x="544.0" y="439.0" width="10" height="10" fill="#f4ca95" stroke="#666666" stroke-width="0.5"/><text x="558.0" y="444.0" font-size="11" fill="#222222" dominant-baseline="central">Species26 ●</text><rect x="637.0" y="436.0" width="12" height="16" fill="#f0e442"/><text x="653.0" y="444.0" font-size="10" font-style="italic" fill="#222222" dominant-baseline="central">Clade D</text><rect x="544.0" y="455.0" width="10" height="10" fill="#f4cc99" stroke="#666666" stroke-width="0.5"/><text x="558.0" y="460.0" font-size="11" fill="#222222" dominant-baseline="central">Species5 ●</text><rect x="637.0" y="452.0" width="12" height="16" fill="#f0e442"/><text x="653.0" y="460.0" font-size="10" font-style="italic" fill="#222222" dominant-baseline="central">Clade D</text><rect x="544.0" y="471.0" width="10" height="10" fill="#f5ddbf" stroke="#666666" stroke-width="0.5"/><text x="558.0" y="476.0" font-size="11" fill="#222222" dominant-baseline="central">Species18 ●</text><rect x="637.0" y="468.0" width="12" height="16" fill="#0072b2"/><text x="653.0" y="476.0" font-size="10" font-style="italic" fill="#222222" dominant-baseline="central">Clade E</text><rect x="544.0" y="487.0" width="10" height="10" fill="#f5dec0" stroke="#666666" stroke-width="0.5"/><text x="558.0" y="492.0" font-size="11" fill="#222222" dominant-baseline="central">Species32 ●</text><rect x="637.0" y="484.0" width="12" height="16" fill="#0072b2"/><text x="653.0" y="492.0" font-size="10" font-style="italic" fill="#222222" dominant-baseline="central">Clade E</text><rect x="544.0" y="503.0" width="10" height="10" fill="#f4cb97" stroke="#666666" stroke-width="0.5"/><text x="558.0" y="508.0" font-size="11" fill="#222222" dominant-baseline="central">Species22 ●</text><rect x="637.0" y="500.0" width="12" height="16" fill="#0072b2"/><text x="653.0" y="508.0" font-size="10" font-style="italic" fill="#222222" dominant-baseline="central">Clade E</text><rect x="544.0" y="519.0" width="10" height="10" fill="#f5d9b5" stroke="#666666" stroke-width="0.5"/><text x="558.0" y="524.0" font-size="11" fill="#222222" dominant-baseline="central">Species24 ●</text><rect x="637.0" y="516.0" width="12" height="16" fill="#d55e00"/><text x="653.0" y="524.0" font-size="10" font-style="italic" fill="#222222" dominant-baseline="central">Clade F</text><rect x="544.0" y="535.0" width="10" height="10" fill="#f5d8b4" stroke="#666666" stroke-width="0.5"/><text x="558.0" y="540.0" font-size="11" fill="#222222" dominant-baseline="central">Species9 ●</text><rect x="637.0" y="532.0" width="12" height="16" fill="#d55e00"/><text x="653.0" y="540.0" font-size="10" font-style="italic" fill="#222222" dominant-baseline="central">Clade F</text><rect x="544.0" y="551.0" width="10" height="10" fill="#f4c993" stroke="#666666" stroke-width="0.5"/><text x="558.0" y="556.0" font-size="11" fill="#222222" dominant-baseline="central">Species4 ●</text><rect x="637.0" y="548.0" width="12" height="16" fill="#d55e00"/><text x="653.0" y="556.0" font-size="10" font-style="italic" fill="#222222" dominant-baseline="central">Clade F</text><rect x="544.0" y="567.0" width="10" height="10" fill="#f4c993" stroke="#666666" stroke-width="0.5"/><text x="558.0" y="572.0" font-size="11" fill="#222222" dominant-baseline="central">Species7 ●</text><rect x="637.0" y="564.0" width="12" height="16" fill="#d55e00"/><text x="653.0" y="572.0" font-size="10" font-style="italic" fill="#222222" dominant-baseline="central">Clade F</text><rect x="544.0" y="583.0" width="10" height="10" fill="#f4c78e" stroke="#666666" stroke-width="0.5"/><text x="558.0" y="588.0" font-size="11" fill="#222222" dominant-baseline="central">Species8 ●</text><rect x="637.0" y="580.0" width="12" height="16" fill="#d55e00"/><text x="653.0" y="588.0" font-size="10" font-style="italic" fill="#222222" dominant-baseline="central">Clade F</text><text x="12" y="616.0" font-size="10" fill="#555555">Square: halo value (orange low, purple high; ● below 0.6). Numbers at nodes: S1. Branch colour and width: S1 (light thin: low; dark thick: high).</text><text x="12" y="632.0" font-size="10" fill="#555555">Unrooted tree, drawn rooted at the midpoint of its longest path; branch lengths are not drawn. Groups: automatic: clades of the tree.</text></svg>
