<svg xmlns="http://www.w3.org/2000/svg" width="800" height="1000" viewBox="0 0 800 1000" font-family="sans-serif"><rect width="800" height="1000" fill="#ffffff"/><text x="12" y="20.0" font-size="15" font-weight="bold" fill="#222222">Quartet Halo Tree: sim_hgt_0_seed4</text><text x="12" y="38.0" font-size="12" font-weight="normal" fill="#222222">33 taxa, 40,920 quartets; W2-sym, W2c 100 resamples, S2 0 replicates, strand filter on, MAW lengths by entropy, seed 4</text><text x="12" y="56.0" font-size="12" font-weight="normal" fill="#222222">Run of 2026-10-07 (UTC), Q-MAWS 0.0.0</text><g fill="none" stroke-linecap="round"><line x1="400.00" y1="464.00" x2="405.95" y2="496.44" stroke="#21958b" stroke-width="2.16"/><line x1="400.00" y1="464.00" x2="387.38" y2="433.53" stroke="#21958b" stroke-width="2.16"/><path d="M405.95,496.44 A32.98,32.98 0 0 0 421.00,489.43" stroke="#22928b" stroke-width="2.21"/><line x1="421.00" y1="489.43" x2="442.00" y2="514.87" stroke="#22928b" stroke-width="2.21"/><path d="M405.95,496.44 A32.98,32.98 0 0 1 389.40,495.23" stroke="#24898d" stroke-width="2.33"/><line x1="389.40" y1="495.23" x2="378.80" y2="526.46" stroke="#24898d" stroke-width="2.33"/><path d="M442.00,514.87 A65.97,65.97 0 0 0 457.13,496.98" stroke="#24898d" stroke-width="2.34"/><line x1="457.13" y1="496.98" x2="485.69" y2="513.47" stroke="#24898d" stroke-width="2.34"/><path d="M442.00,514.87 A65.97,65.97 0 0 1 421.58,526.34" stroke="#1f9d89" stroke-width="2.06"/><line x1="421.58" y1="526.34" x2="432.36" y2="557.51" stroke="#1f9d89" stroke-width="2.06"/><path d="M485.69,513.47 A98.95,98.95 0 0 0 496.16,487.33" stroke="#423b82" stroke-width="3.38"/><line x1="496.16" y1="487.33" x2="528.21" y2="495.10" stroke="#423b82" stroke-width="3.38"/><path d="M485.69,513.47 A98.95,98.95 0 0 1 468.28,535.61" stroke="#22918b" stroke-width="2.22"/><line x1="468.28" y1="535.61" x2="491.04" y2="559.48" stroke="#22918b" stroke-width="2.22"/><path d="M528.21,495.10 A131.93,131.93 0 0 0 531.33,476.54" stroke="#461062" stroke-width="3.85"/><line x1="531.33" y1="476.54" x2="564.17" y2="479.68" stroke="#461062" stroke-width="3.85"/><path d="M528.21,495.10 A131.93,131.93 0 0 1 522.48,513.03" stroke="#555555" stroke-width="1.20"/><line x1="522.48" y1="513.03" x2="614.34" y2="549.81" stroke="#555555" stroke-width="1.20"/><path d="M564.17,479.68 A164.91,164.91 0 0 0 564.91,464.00" stroke="#555555" stroke-width="1.20"/><line x1="564.91" y1="464.00" x2="630.88" y2="464.00" stroke="#555555" stroke-width="1.20"/><path d="M564.17,479.68 A164.91,164.91 0 0 1 561.93,495.21" stroke="#555555" stroke-width="1.20"/><line x1="561.93" y1="495.21" x2="626.71" y2="507.69" stroke="#555555" stroke-width="1.20"/><path d="M491.04,559.48 A131.93,131.93 0 0 0 503.71,545.55" stroke="#287d8e" stroke-width="2.51"/><line x1="503.71" y1="545.55" x2="529.63" y2="565.94" stroke="#287d8e" stroke-width="2.51"/><path d="M491.04,559.48 A131.93,131.93 0 0 1 476.53,571.47" stroke="#555555" stroke-width="1.20"/><line x1="476.53" y1="571.47" x2="533.92" y2="652.07" stroke="#555555" stroke-width="1.20"/><path d="M529.63,565.94 A164.91,164.91 0 0 0 538.73,553.16" stroke="#555555" stroke-width="1.20"/><line x1="538.73" y1="553.16" x2="594.23" y2="588.82" stroke="#555555" stroke-width="1.20"/><path d="M529.63,565.94 A164.91,164.91 0 0 1 519.35,577.80" stroke="#555555" stroke-width="1.20"/><line x1="519.35" y1="577.80" x2="567.10" y2="623.33" stroke="#555555" stroke-width="1.20"/><path d="M432.36,557.51 A98.95,98.95 0 0 0 441.10,554.01" stroke="#555555" stroke-width="1.20"/><line x1="441.10" y1="554.01" x2="495.91" y2="674.02" stroke="#555555" stroke-width="1.20"/><path d="M432.36,557.51 A98.95,98.95 0 0 1 423.33,560.16" stroke="#555555" stroke-width="1.20"/><line x1="423.33" y1="560.16" x2="454.43" y2="688.37" stroke="#555555" stroke-width="1.20"/><path d="M378.80,526.46 A65.97,65.97 0 0 0 396.86,529.89" stroke="#21958b" stroke-width="2.16"/><line x1="396.86" y1="529.89" x2="395.29" y2="562.84" stroke="#21958b" stroke-width="2.16"/><path d="M378.80,526.46 A65.97,65.97 0 0 1 362.38,518.19" stroke="#2a798e" stroke-width="2.57"/><line x1="362.38" y1="518.19" x2="343.57" y2="545.28" stroke="#2a798e" stroke-width="2.57"/><path d="M395.29,562.84 A98.95,98.95 0 0 0 404.71,562.84" stroke="#555555" stroke-width="1.20"/><line x1="404.71" y1="562.84" x2="410.99" y2="694.62" stroke="#555555" stroke-width="1.20"/><path d="M395.29,562.84 A98.95,98.95 0 0 1 385.92,561.94" stroke="#555555" stroke-width="1.20"/><line x1="385.92" y1="561.94" x2="367.14" y2="692.53" stroke="#555555" stroke-width="1.20"/><path d="M343.57,545.28 A98.95,98.95 0 0 0 367.64,557.51" stroke="#555555" stroke-width="1.20"/><line x1="367.64" y1="557.51" x2="324.49" y2="682.18" stroke="#555555" stroke-width="1.20"/><path d="M343.57,545.28 A98.95,98.95 0 0 1 323.70,527.00" stroke="#32668e" stroke-width="2.85"/><line x1="323.70" y1="527.00" x2="298.27" y2="548.00" stroke="#32668e" stroke-width="2.85"/><path d="M298.27,548.00 A131.93,131.93 0 0 0 323.47,571.47" stroke="#440255" stroke-width="3.99"/><line x1="323.47" y1="571.47" x2="304.34" y2="598.34" stroke="#440255" stroke-width="3.99"/><path d="M298.27,548.00 A131.93,131.93 0 0 1 279.99,518.81" stroke="#423b82" stroke-width="3.38"/><line x1="279.99" y1="518.81" x2="249.99" y2="532.51" stroke="#423b82" stroke-width="3.38"/><path d="M304.34,598.34 A164.91,164.91 0 0 0 317.54,606.82" stroke="#555555" stroke-width="1.20"/><line x1="317.54" y1="606.82" x2="284.56" y2="663.95" stroke="#555555" stroke-width="1.20"/><path d="M304.34,598.34 A164.91,164.91 0 0 1 292.00,588.63" stroke="#555555" stroke-width="1.20"/><line x1="292.00" y1="588.63" x2="248.81" y2="638.49" stroke="#555555" stroke-width="1.20"/><path d="M249.99,532.51 A164.91,164.91 0 0 0 261.27,553.16" stroke="#423b82" stroke-width="3.39"/><line x1="261.27" y1="553.16" x2="233.52" y2="570.99" stroke="#423b82" stroke-width="3.39"/><path d="M249.99,532.51 A164.91,164.91 0 0 1 241.77,510.46" stroke="#555555" stroke-width="1.20"/><line x1="241.77" y1="510.46" x2="178.47" y2="529.05" stroke="#555555" stroke-width="1.20"/><path d="M233.52,570.99 A197.90,197.90 0 0 0 244.44,586.33" stroke="#555555" stroke-width="1.20"/><line x1="244.44" y1="586.33" x2="218.52" y2="606.72" stroke="#555555" stroke-width="1.20"/><path d="M233.52,570.99 A197.90,197.90 0 0 1 224.10,554.68" stroke="#555555" stroke-width="1.20"/><line x1="224.10" y1="554.68" x2="194.79" y2="569.80" stroke="#555555" stroke-width="1.20"/><path d="M387.38,433.53 A32.98,32.98 0 0 0 367.61,457.76" stroke="#25858e" stroke-width="2.39"/><line x1="367.61" y1="457.76" x2="335.23" y2="451.52" stroke="#25858e" stroke-width="2.39"/><path d="M387.38,433.53 A32.98,32.98 0 0 1 418.49,436.69" stroke="#21968a" stroke-width="2.15"/><line x1="418.49" y1="436.69" x2="436.97" y2="409.37" stroke="#21968a" stroke-width="2.15"/><path d="M335.23,451.52 A65.97,65.97 0 0 0 334.03,464.00" stroke="#2b758e" stroke-width="2.62"/><line x1="334.03" y1="464.00" x2="301.05" y2="464.00" stroke="#2b758e" stroke-width="2.62"/><path d="M335.23,451.52 A65.97,65.97 0 0 1 338.76,439.48" stroke="#482878" stroke-width="3.61"/><line x1="338.76" y1="439.48" x2="308.14" y2="427.22" stroke="#482878" stroke-width="3.61"/><path d="M301.05,464.00 A98.95,98.95 0 0 0 301.50,473.41" stroke="#555555" stroke-width="1.20"/><line x1="301.50" y1="473.41" x2="170.17" y2="485.95" stroke="#555555" stroke-width="1.20"/><path d="M301.05,464.00 A98.95,98.95 0 0 1 301.50,454.59" stroke="#555555" stroke-width="1.20"/><line x1="301.50" y1="454.59" x2="170.17" y2="442.05" stroke="#555555" stroke-width="1.20"/><path d="M308.14,427.22 A98.95,98.95 0 0 0 305.06,436.12" stroke="#555555" stroke-width="1.20"/><line x1="305.06" y1="436.12" x2="178.47" y2="398.95" stroke="#555555" stroke-width="1.20"/><path d="M308.14,427.22 A98.95,98.95 0 0 1 312.05,418.66" stroke="#555555" stroke-width="1.20"/><line x1="312.05" y1="418.66" x2="194.79" y2="358.20" stroke="#555555" stroke-width="1.20"/><path d="M436.97,409.37 A65.97,65.97 0 0 0 398.43,398.05" stroke="#21958b" stroke-width="2.16"/><line x1="398.43" y1="398.05" x2="397.65" y2="365.08" stroke="#21958b" stroke-width="2.16"/><path d="M436.97,409.37 A65.97,65.97 0 0 1 461.81,440.95" stroke="#26828e" stroke-width="2.42"/><line x1="461.81" y1="440.95" x2="492.71" y2="429.42" stroke="#26828e" stroke-width="2.42"/><path d="M397.65,365.08 A98.95,98.95 0 0 0 350.53,378.31" stroke="#248c8c" stroke-width="2.29"/><line x1="350.53" y1="378.31" x2="334.03" y2="349.74" stroke="#248c8c" stroke-width="2.29"/><path d="M397.65,365.08 A98.95,98.95 0 0 1 445.34,376.05" stroke="#209c89" stroke-width="2.07"/><line x1="445.34" y1="376.05" x2="460.45" y2="346.73" stroke="#209c89" stroke-width="2.07"/><path d="M334.03,349.74 A131.93,131.93 0 0 0 304.52,372.96" stroke="#440154" stroke-width="4.00"/><line x1="304.52" y1="372.96" x2="280.65" y2="350.20" stroke="#440154" stroke-width="4.00"/><path d="M334.03,349.74 A131.93,131.93 0 0 1 368.90,335.79" stroke="#25868d" stroke-width="2.37"/><line x1="368.90" y1="335.79" x2="361.12" y2="303.73" stroke="#25868d" stroke-width="2.37"/><path d="M280.65,350.20 A164.91,164.91 0 0 0 270.37,362.06" stroke="#555555" stroke-width="1.20"/><line x1="270.37" y1="362.06" x2="218.52" y2="321.28" stroke="#555555" stroke-width="1.20"/><path d="M280.65,350.20 A164.91,164.91 0 0 1 292.00,339.37" stroke="#555555" stroke-width="1.20"/><line x1="292.00" y1="339.37" x2="248.81" y2="289.51" stroke="#555555" stroke-width="1.20"/><path d="M361.12,303.73 A164.91,164.91 0 0 0 331.49,313.99" stroke="#440255" stroke-width="3.99"/><line x1="331.49" y1="313.99" x2="317.79" y2="283.99" stroke="#440255" stroke-width="3.99"/><path d="M361.12,303.73 A164.91,164.91 0 0 1 392.15,299.27" stroke="#1f9d89" stroke-width="2.05"/><line x1="392.15" y1="299.27" x2="390.58" y2="266.33" stroke="#1f9d89" stroke-width="2.05"/><path d="M317.79,283.99 A197.90,197.90 0 0 0 301.05,292.62" stroke="#555555" stroke-width="1.20"/><line x1="301.05" y1="292.62" x2="284.56" y2="264.05" stroke="#555555" stroke-width="1.20"/><path d="M317.79,283.99 A197.90,197.90 0 0 1 335.27,276.99" stroke="#555555" stroke-width="1.20"/><line x1="335.27" y1="276.99" x2="324.49" y2="245.82" stroke="#555555" stroke-width="1.20"/><path d="M390.58,266.33 A197.90,197.90 0 0 0 371.84,268.12" stroke="#555555" stroke-width="1.20"/><line x1="371.84" y1="268.12" x2="367.14" y2="235.47" stroke="#555555" stroke-width="1.20"/><path d="M390.58,266.33 A197.90,197.90 0 0 1 409.42,266.33" stroke="#555555" stroke-width="1.20"/><line x1="409.42" y1="266.33" x2="410.99" y2="233.38" stroke="#555555" stroke-width="1.20"/><path d="M460.45,346.73 A131.93,131.93 0 0 0 443.15,339.32" stroke="#1f9c89" stroke-width="2.06"/><line x1="443.15" y1="339.32" x2="453.94" y2="308.16" stroke="#1f9c89" stroke-width="2.06"/><path d="M460.45,346.73 A131.93,131.93 0 0 1 476.53,356.53" stroke="#555555" stroke-width="1.20"/><line x1="476.53" y1="356.53" x2="533.92" y2="275.93" stroke="#555555" stroke-width="1.20"/><path d="M453.94,308.16 A164.91,164.91 0 0 0 438.88,303.73" stroke="#555555" stroke-width="1.20"/><line x1="438.88" y1="303.73" x2="454.43" y2="239.63" stroke="#555555" stroke-width="1.20"/><path d="M453.94,308.16 A164.91,164.91 0 0 1 468.51,313.99" stroke="#555555" stroke-width="1.20"/><line x1="468.51" y1="313.99" x2="495.91" y2="253.98" stroke="#555555" stroke-width="1.20"/><path d="M492.71,429.42 A98.95,98.95 0 0 0 485.69,414.53" stroke="#30698e" stroke-width="2.80"/><line x1="485.69" y1="414.53" x2="514.26" y2="398.03" stroke="#30698e" stroke-width="2.80"/><path d="M492.71,429.42 A98.95,98.95 0 0 1 497.16,445.27" stroke="#555555" stroke-width="1.20"/><line x1="497.16" y1="445.27" x2="626.71" y2="420.31" stroke="#555555" stroke-width="1.20"/><path d="M514.26,398.03 A131.93,131.93 0 0 0 503.71,382.45" stroke="#450b5d" stroke-width="3.90"/><line x1="503.71" y1="382.45" x2="529.63" y2="362.06" stroke="#450b5d" stroke-width="3.90"/><path d="M514.26,398.03 A131.93,131.93 0 0 1 522.48,414.97" stroke="#555555" stroke-width="1.20"/><line x1="522.48" y1="414.97" x2="614.34" y2="378.19" stroke="#555555" stroke-width="1.20"/><path d="M529.63,362.06 A164.91,164.91 0 0 0 519.35,350.20" stroke="#555555" stroke-width="1.20"/><line x1="519.35" y1="350.20" x2="567.10" y2="304.67" stroke="#555555" stroke-width="1.20"/><path d="M529.63,362.06 A164.91,164.91 0 0 1 538.73,374.84" stroke="#555555" stroke-width="1.20"/><line x1="538.73" y1="374.84" x2="594.23" y2="339.18" stroke="#555555" stroke-width="1.20"/></g><text x="636.88" y="464.00" font-size="11.0" fill="#222222" text-anchor="start" dominant-baseline="central" transform="rotate(0.00 636.88 464.00)">Species11</text><path d="M715.15,437.54 A316.26,316.26 0 0 1 715.15,490.46 L703.19,489.46 A304.26,304.26 0 0 0 703.19,438.54 Z" fill="#f6e9d8" stroke="#666666" stroke-width="0.5"/><circle cx="710.26" cy="464.00" r="2.2" fill="#222222"/><text x="632.60" y="508.83" font-size="11.0" fill="#222222" text-anchor="start" dominant-baseline="central" transform="rotate(10.91 632.60 508.83)">Species31</text><path d="M714.46,497.66 A316.26,316.26 0 0 1 704.45,549.63 L692.90,546.38 A304.26,304.26 0 0 0 702.53,496.38 Z" fill="#f6eada" stroke="#666666" stroke-width="0.5"/><circle cx="704.65" cy="522.72" r="2.2" fill="#222222"/><text x="619.91" y="552.04" font-size="11.0" fill="#222222" text-anchor="start" dominant-baseline="central" transform="rotate(21.82 619.91 552.04)">Species28</text><path d="M702.41,556.56 A316.26,316.26 0 0 1 682.74,605.70 L672.01,600.32 A304.26,304.26 0 0 0 690.94,553.05 Z" fill="#f5e0c5" stroke="#666666" stroke-width="0.5"/><circle cx="688.04" cy="579.31" r="2.2" fill="#222222"/><text x="599.28" y="592.07" font-size="11.0" fill="#222222" text-anchor="start" dominant-baseline="central" transform="rotate(32.73 599.28 592.07)">Species15</text><path d="M679.43,612.12 A316.26,316.26 0 0 1 650.81,656.65 L641.30,649.34 A304.26,304.26 0 0 0 668.83,606.50 Z" fill="#f5d5ac" stroke="#666666" stroke-width="0.5"/><circle cx="661.01" cy="631.74" r="2.2" fill="#222222"/><text x="571.44" y="627.47" font-size="11.0" fill="#222222" text-anchor="start" dominant-baseline="central" transform="rotate(43.64 571.44 627.47)">Species27</text><path d="M646.35,662.33 A316.26,316.26 0 0 1 609.82,700.63 L601.86,691.65 A304.26,304.26 0 0 0 637.00,654.80 Z" fill="#f5d5ac" stroke="#666666" stroke-width="0.5"/><circle cx="624.55" cy="678.10" r="2.2" fill="#222222"/><text x="537.40" y="656.96" font-size="11.0" fill="#222222" text-anchor="start" dominant-baseline="central" transform="rotate(54.55 537.40 656.96)">Species13</text><path d="M604.36,705.36 A316.26,316.26 0 0 1 561.25,736.06 L555.13,725.74 A304.26,304.26 0 0 0 596.61,696.21 Z" fill="#f4d0a2" stroke="#666666" stroke-width="0.5"/><circle cx="579.97" cy="716.73" r="2.2" fill="#222222"/><text x="498.40" y="679.47" font-size="11.0" fill="#222222" text-anchor="start" dominant-baseline="central" transform="rotate(65.45 498.40 679.47)">Species1</text><path d="M554.99,739.68 A316.26,316.26 0 0 1 506.85,761.66 L502.79,750.37 A304.26,304.26 0 0 0 549.11,729.22 Z" fill="#f4d0a1" stroke="#666666" stroke-width="0.5"/><circle cx="528.89" cy="746.22" r="2.2" fill="#222222"/><text x="455.85" y="694.20" font-size="11.0" fill="#222222" text-anchor="start" dominant-baseline="central" transform="rotate(76.36 455.85 694.20)">Species10</text><path d="M500.02,764.03 A316.26,316.26 0 0 1 448.58,776.51 L446.74,764.65 A304.26,304.26 0 0 0 496.22,752.64 Z" fill="#f4cd9b" stroke="#666666" stroke-width="0.5"/><circle cx="473.15" cy="765.51" r="2.2" fill="#222222"/><text x="411.27" y="700.61" font-size="11.0" fill="#222222" text-anchor="start" dominant-baseline="central" transform="rotate(87.27 411.27 700.61)">Species16</text><path d="M441.43,777.53 A316.26,316.26 0 0 1 388.56,780.05 L389.00,768.06 A304.26,304.26 0 0 0 439.86,765.64 Z" fill="#f4cc9a" stroke="#666666" stroke-width="0.5"/><circle cx="414.76" cy="773.91" r="2.2" fill="#222222"/><text x="366.29" y="698.47" font-size="11.0" fill="#222222" text-anchor="end" dominant-baseline="central" transform="rotate(278.18 366.29 698.47)">Species4</text><path d="M381.34,779.71 A316.26,316.26 0 0 1 328.95,772.18 L331.65,760.48 A304.26,304.26 0 0 0 382.05,767.73 Z" fill="#f4cd9c" stroke="#666666" stroke-width="0.5"/><circle cx="355.85" cy="771.10" r="2.2" fill="#222222"/><text x="322.52" y="687.85" font-size="11.0" fill="#222222" text-anchor="end" dominant-baseline="central" transform="rotate(289.09 322.52 687.85)">Species14</text><path d="M321.93,770.47 A316.26,316.26 0 0 1 271.92,753.16 L276.78,742.19 A304.26,304.26 0 0 0 324.89,758.84 Z" fill="#f4ce9d" stroke="#666666" stroke-width="0.5"/><circle cx="298.52" cy="757.20" r="2.2" fill="#222222"/><text x="281.56" y="669.14" font-size="11.0" fill="#222222" text-anchor="end" dominant-baseline="central" transform="rotate(300.00 281.56 669.14)">Species3</text><path d="M265.34,750.16 A316.26,316.26 0 0 1 219.51,723.70 L226.35,713.84 A304.26,304.26 0 0 0 270.45,739.30 Z" fill="#f5e2c9" stroke="#666666" stroke-width="0.5"/><circle cx="244.87" cy="732.69" r="2.2" fill="#222222"/><text x="244.88" y="643.02" font-size="11.0" fill="#222222" text-anchor="end" dominant-baseline="central" transform="rotate(310.91 244.88 643.02)">Species33</text><path d="M213.62,719.51 A316.26,316.26 0 0 1 173.62,684.84 L182.21,676.47 A304.26,304.26 0 0 0 220.69,709.81 Z" fill="#f5e2c9" stroke="#666666" stroke-width="0.5"/><circle cx="196.82" cy="698.48" r="2.2" fill="#222222"/><text x="213.80" y="610.43" font-size="11.0" fill="#222222" text-anchor="end" dominant-baseline="central" transform="rotate(321.82 213.80 610.43)">Species19</text><path d="M168.63,679.62 A316.26,316.26 0 0 1 135.92,638.01 L145.94,631.41 A304.26,304.26 0 0 0 177.41,671.43 Z" fill="#f6e5d0" stroke="#666666" stroke-width="0.5"/><circle cx="156.12" cy="655.79" r="2.2" fill="#222222"/><text x="189.45" y="572.54" font-size="11.0" fill="#222222" text-anchor="end" dominant-baseline="central" transform="rotate(332.73 189.45 572.54)">Species23</text><path d="M132.01,631.93 A316.26,316.26 0 0 1 107.76,584.89 L118.85,580.30 A304.26,304.26 0 0 0 142.18,625.56 Z" fill="#f6ecdf" stroke="#666666" stroke-width="0.5"/><circle cx="124.23" cy="606.17" r="2.2" fill="#222222"/><text x="172.72" y="530.74" font-size="11.0" fill="#222222" text-anchor="end" dominant-baseline="central" transform="rotate(343.64 172.72 530.74)">Species17</text><path d="M105.07,578.18 A316.26,316.26 0 0 1 90.16,527.40 L101.92,524.99 A304.26,304.26 0 0 0 116.26,573.85 Z" fill="#f6e4ce" stroke="#666666" stroke-width="0.5"/><circle cx="102.31" cy="551.41" r="2.2" fill="#222222"/><text x="164.19" y="486.52" font-size="11.0" fill="#222222" text-anchor="end" dominant-baseline="central" transform="rotate(354.55 164.19 486.52)">Species2</text><path d="M88.79,520.30 A316.26,316.26 0 0 1 83.76,467.61 L95.76,467.48 A304.26,304.26 0 0 0 100.60,518.16 Z" fill="#f4d2a7" stroke="#666666" stroke-width="0.5"/><circle cx="91.14" cy="493.49" r="2.2" fill="#222222"/><text x="164.19" y="441.48" font-size="11.0" fill="#222222" text-anchor="end" dominant-baseline="central" transform="rotate(365.45 164.19 441.48)">Species21</text><path d="M83.76,460.39 A316.26,316.26 0 0 1 88.79,407.70 L100.60,409.84 A304.26,304.26 0 0 0 95.76,460.52 Z" fill="#f4d3a8" stroke="#666666" stroke-width="0.5"/><circle cx="91.14" cy="434.51" r="2.2" fill="#222222"/><text x="172.72" y="397.26" font-size="11.0" fill="#222222" text-anchor="end" dominant-baseline="central" transform="rotate(376.36 172.72 397.26)">Species24</text><path d="M90.16,400.60 A316.26,316.26 0 0 1 105.07,349.82 L116.26,354.15 A304.26,304.26 0 0 0 101.92,403.01 Z" fill="#f5dcbc" stroke="#666666" stroke-width="0.5"/><circle cx="102.31" cy="376.59" r="2.2" fill="#222222"/><text x="189.45" y="355.46" font-size="11.0" fill="#222222" text-anchor="end" dominant-baseline="central" transform="rotate(387.27 189.45 355.46)">Species9</text><path d="M107.76,343.11 A316.26,316.26 0 0 1 132.01,296.07 L142.18,302.44 A304.26,304.26 0 0 0 118.85,347.70 Z" fill="#f5dbbb" stroke="#666666" stroke-width="0.5"/><circle cx="124.23" cy="321.83" r="2.2" fill="#222222"/><text x="213.80" y="317.57" font-size="11.0" fill="#222222" text-anchor="end" dominant-baseline="central" transform="rotate(398.18 213.80 317.57)">Species29</text><path d="M135.92,289.99 A316.26,316.26 0 0 1 168.63,248.38 L177.41,256.57 A304.26,304.26 0 0 0 145.94,296.59 Z" fill="#f5dbb9" stroke="#666666" stroke-width="0.5"/><circle cx="156.12" cy="272.21" r="2.2" fill="#222222"/><text x="244.88" y="284.98" font-size="11.0" fill="#222222" text-anchor="end" dominant-baseline="central" transform="rotate(409.09 244.88 284.98)">Species30</text><path d="M173.62,243.16 A316.26,316.26 0 0 1 213.62,208.49 L220.69,218.19 A304.26,304.26 0 0 0 182.21,251.53 Z" fill="#f5dbba" stroke="#666666" stroke-width="0.5"/><circle cx="196.82" cy="229.52" r="2.2" fill="#222222"/><text x="281.56" y="258.86" font-size="11.0" fill="#222222" text-anchor="end" dominant-baseline="central" transform="rotate(420.00 281.56 258.86)">Species25</text><path d="M219.51,204.30 A316.26,316.26 0 0 1 265.34,177.84 L270.45,188.70 A304.26,304.26 0 0 0 226.35,214.16 Z" fill="#f5dec0" stroke="#666666" stroke-width="0.5"/><circle cx="244.87" cy="195.31" r="2.2" fill="#222222"/><text x="322.52" y="240.15" font-size="11.0" fill="#222222" text-anchor="end" dominant-baseline="central" transform="rotate(430.91 322.52 240.15)">Species6</text><path d="M271.92,174.84 A316.26,316.26 0 0 1 321.93,157.53 L324.89,169.16 A304.26,304.26 0 0 0 276.78,185.81 Z" fill="#f5dec1" stroke="#666666" stroke-width="0.5"/><circle cx="298.52" cy="170.80" r="2.2" fill="#222222"/><text x="366.29" y="229.53" font-size="11.0" fill="#222222" text-anchor="end" dominant-baseline="central" transform="rotate(441.82 366.29 229.53)">Species12</text><path d="M328.95,155.82 A316.26,316.26 0 0 1 381.34,148.29 L382.05,160.27 A304.26,304.26 0 0 0 331.65,167.52 Z" fill="#f4d0a3" stroke="#666666" stroke-width="0.5"/><circle cx="355.85" cy="156.90" r="2.2" fill="#222222"/><text x="411.27" y="227.39" font-size="11.0" fill="#222222" text-anchor="start" dominant-baseline="central" transform="rotate(272.73 411.27 227.39)">Species8</text><path d="M388.56,147.95 A316.26,316.26 0 0 1 441.43,150.47 L439.86,162.36 A304.26,304.26 0 0 0 389.00,159.94 Z" fill="#f4c892" stroke="#666666" stroke-width="0.5"/><circle cx="414.76" cy="154.09" r="2.2" fill="#222222"/><text x="455.85" y="233.80" font-size="11.0" fill="#222222" text-anchor="start" dominant-baseline="central" transform="rotate(283.64 455.85 233.80)">Species26</text><path d="M448.58,151.49 A316.26,316.26 0 0 1 500.02,163.97 L496.22,175.36 A304.26,304.26 0 0 0 446.74,163.35 Z" fill="#f4cfa0" stroke="#666666" stroke-width="0.5"/><circle cx="473.15" cy="162.49" r="2.2" fill="#222222"/><text x="498.40" y="248.53" font-size="11.0" fill="#222222" text-anchor="start" dominant-baseline="central" transform="rotate(294.55 498.40 248.53)">Species5</text><path d="M506.85,166.34 A316.26,316.26 0 0 1 554.99,188.32 L549.11,198.78 A304.26,304.26 0 0 0 502.79,177.63 Z" fill="#f4d0a2" stroke="#666666" stroke-width="0.5"/><circle cx="528.89" cy="181.78" r="2.2" fill="#222222"/><text x="537.40" y="271.04" font-size="11.0" fill="#222222" text-anchor="start" dominant-baseline="central" transform="rotate(305.45 537.40 271.04)">Species7</text><path d="M561.25,191.94 A316.26,316.26 0 0 1 604.36,222.64 L596.61,231.79 A304.26,304.26 0 0 0 555.13,202.26 Z" fill="#f4cd9b" stroke="#666666" stroke-width="0.5"/><circle cx="579.97" cy="211.27" r="2.2" fill="#222222"/><text x="571.44" y="300.53" font-size="11.0" fill="#222222" text-anchor="start" dominant-baseline="central" transform="rotate(316.36 571.44 300.53)">Species18</text><path d="M609.82,227.37 A316.26,316.26 0 0 1 646.35,265.67 L637.00,273.20 A304.26,304.26 0 0 0 601.86,236.35 Z" fill="#f6e3cb" stroke="#666666" stroke-width="0.5"/><circle cx="624.55" cy="249.90" r="2.2" fill="#222222"/><text x="599.28" y="335.93" font-size="11.0" fill="#222222" text-anchor="start" dominant-baseline="central" transform="rotate(327.27 599.28 335.93)">Species32</text><path d="M650.81,271.35 A316.26,316.26 0 0 1 679.43,315.88 L668.83,321.50 A304.26,304.26 0 0 0 641.30,278.66 Z" fill="#f6e2ca" stroke="#666666" stroke-width="0.5"/><circle cx="661.01" cy="296.26" r="2.2" fill="#222222"/><text x="619.91" y="375.96" font-size="11.0" fill="#222222" text-anchor="start" dominant-baseline="central" transform="rotate(338.18 619.91 375.96)">Species22</text><path d="M682.74,322.30 A316.26,316.26 0 0 1 702.41,371.44 L690.94,374.95 A304.26,304.26 0 0 0 672.01,327.68 Z" fill="#f4d2a6" stroke="#666666" stroke-width="0.5"/><circle cx="688.04" cy="348.69" r="2.2" fill="#222222"/><text x="632.60" y="419.17" font-size="11.0" fill="#222222" text-anchor="start" dominant-baseline="central" transform="rotate(349.09 632.60 419.17)">Species20</text><path d="M704.45,378.37 A316.26,316.26 0 0 1 714.46,430.34 L702.53,431.62 A304.26,304.26 0 0 0 692.90,381.62 Z" fill="#f4cd9b" stroke="#666666" stroke-width="0.5"/><circle cx="704.65" cy="405.28" r="2.2" fill="#222222"/><path d="M729.10,436.36 A330.26,330.26 0 0 1 450.73,790.34 L449.20,780.46 A320.26,320.26 0 0 0 719.14,437.20 Z" fill="#e69f00" stroke="#444444" stroke-width="0.4"/><text x="662.75" y="670.63" font-size="11.0" font-style="italic" fill="#222222" text-anchor="start" dominant-baseline="central" transform="rotate(38.18 662.75 670.63)">Clade A</text><path d="M443.26,791.41 A330.26,330.26 0 0 1 76.44,530.20 L86.24,528.20 A320.26,320.26 0 0 0 441.95,781.50 Z" fill="#56b4e9" stroke="#444444" stroke-width="0.4"/><text x="206.11" y="736.28" font-size="11.0" font-style="italic" fill="#222222" text-anchor="end" dominant-baseline="central" transform="rotate(305.45 206.11 736.28)">Clade B</text><path d="M75.02,522.79 A330.26,330.26 0 0 1 120.15,288.63 L128.62,293.94 A320.26,320.26 0 0 0 84.86,521.01 Z" fill="#009e73" stroke="#444444" stroke-width="0.4"/><text x="71.78" y="400.74" font-size="11.0" font-style="italic" fill="#222222" text-anchor="end" dominant-baseline="central" transform="rotate(370.91 71.78 400.74)">Clade C</text><path d="M124.23,282.29 A330.26,330.26 0 0 1 443.26,136.59 L441.95,146.50 A320.26,320.26 0 0 0 132.58,287.79 Z" fill="#f0e442" stroke="#444444" stroke-width="0.4"/><text x="261.14" y="159.95" font-size="11.0" font-style="italic" fill="#222222" text-anchor="end" dominant-baseline="central" transform="rotate(425.45 261.14 159.95)">Clade D</text><path d="M450.73,137.66 A330.26,330.26 0 0 1 613.41,211.95 L606.95,219.58 A320.26,320.26 0 0 0 449.20,147.54 Z" fill="#0072b2" stroke="#444444" stroke-width="0.4"/><text x="538.86" y="159.95" font-size="11.0" font-style="italic" fill="#222222" text-anchor="start" dominant-baseline="central" transform="rotate(294.55 538.86 159.95)">Clade E</text><path d="M619.11,216.89 A330.26,330.26 0 0 1 728.38,428.85 L718.44,429.92 A320.26,320.26 0 0 0 612.48,224.38 Z" fill="#d55e00" stroke="#444444" stroke-width="0.4"/><text x="697.10" y="310.83" font-size="11.0" font-style="italic" fill="#222222" text-anchor="start" dominant-baseline="central" transform="rotate(332.73 697.10 310.83)">Clade F</text><defs><linearGradient id="halo-scale" x1="0" x2="1" y1="0" y2="0"><stop offset="0.000" stop-color="#b35806"/><stop offset="0.100" stop-color="#cc761d"/><stop offset="0.200" stop-color="#e59434"/><stop offset="0.300" stop-color="#f2b465"/><stop offset="0.400" stop-color="#f5d5ae"/><stop offset="0.500" stop-color="#f7f7f7"/><stop offset="0.600" stop-color="#d1cde2"/><stop offset="0.700" stop-color="#aca3cd"/><stop offset="0.800" stop-color="#8b79b7"/><stop offset="0.900" stop-color="#7050a0"/><stop offset="1.000" stop-color="#542788"/></linearGradient></defs><text x="12" y="881.0" font-size="11" fill="#222222">Halo value</text><rect x="90" y="872.0" width="120" height="10" fill="url(#halo-scale)" stroke="#666666" stroke-width="0.5"/><text x="90" y="894.0" font-size="10" fill="#222222" text-anchor="middle">0</text><text x="150" y="894.0" font-size="10" fill="#222222" text-anchor="middle">0.5</text><text x="210" y="894.0" font-size="10" fill="#222222" text-anchor="middle">1</text><circle cx="238" cy="877.0" r="2.6" fill="#222222"/><text x="246" y="881.0" font-size="11" fill="#222222">halo value below 0.6</text><defs><linearGradient id="support-scale" x1="0" x2="1" y1="0" y2="0"><stop offset="0.000" stop-color="#9cd83b"/><stop offset="0.100" stop-color="#67cb5c"/><stop offset="0.200" stop-color="#3cba75"/><stop offset="0.300" stop-color="#27a783"/><stop offset="0.400" stop-color="#22938b"/><stop offset="0.500" stop-color="#287d8e"/><stop offset="0.600" stop-color="#306a8e"/><stop offset="0.700" stop-color="#3a528a"/><stop offset="0.800" stop-color="#433981"/><stop offset="0.900" stop-color="#471f70"/><stop offset="1.000" stop-color="#440154"/></linearGradient></defs><text x="12" y="913.0" font-size="11" fill="#222222">S1 support</text><rect x="90" y="904.0" width="120" height="10" fill="url(#support-scale)" stroke="#666666" stroke-width="0.5"/><text x="90" y="926.0" font-size="10" fill="#222222" text-anchor="middle">0</text><text x="210" y="926.0" font-size="10" fill="#222222" text-anchor="middle">1</text><text x="236" y="913.0" font-size="11" fill="#222222">(branch colour; width grows with support; grey: no value)</text><text x="12" y="943.0" font-size="11" fill="#222222">Groups (automatic: clades of the tree):</text><rect x="12.0" y="950.0" width="14" height="10" fill="#e69f00" stroke="#444444" stroke-width="0.4"/><text x="32.0" y="959.0" font-size="10" fill="#222222">Clade A</text><rect x="270.7" y="950.0" width="14" height="10" fill="#56b4e9" stroke="#444444" stroke-width="0.4"/><text x="290.7" y="959.0" font-size="10" fill="#222222">Clade B</text><rect x="529.3" y="950.0" width="14" height="10" fill="#009e73" stroke="#444444" stroke-width="0.4"/><text x="549.3" y="959.0" font-size="10" fill="#222222">Clade C</text><rect x="12.0" y="966.0" width="14" height="10" fill="#f0e442" stroke="#444444" stroke-width="0.4"/><text x="32.0" y="975.0" font-size="10" fill="#222222">Clade D</text><rect x="270.7" y="966.0" width="14" height="10" fill="#0072b2" stroke="#444444" stroke-width="0.4"/><text x="290.7" y="975.0" font-size="10" fill="#222222">Clade E</text><rect x="529.3" y="966.0" width="14" height="10" fill="#d55e00" stroke="#444444" stroke-width="0.4"/><text x="549.3" y="975.0" font-size="10" fill="#222222">Clade F</text><text x="12" y="992.0" font-size="10" fill="#555555">Unrooted tree, drawn rooted at the midpoint of its longest path. Branch lengths are not drawn.</text></svg>
