<svg xmlns="http://www.w3.org/2000/svg" width="620" height="420" viewBox="0 0 620 420" font-family="sans-serif"><rect width="620" height="420" fill="#ffffff"/><text x="12" y="24" font-size="15" font-weight="bold" fill="#222222">Convergence of the provisional trees: ecoli_shigella_hgt_seed4</text><line x1="70" y1="350.0" x2="590.0" y2="350.0" stroke="#e5e5e5"/><text x="64.0" y="354.0" font-size="11" fill="#333333" text-anchor="end">0.0</text><line x1="70" y1="290.0" x2="590.0" y2="290.0" stroke="#e5e5e5"/><text x="64.0" y="294.0" font-size="11" fill="#333333" text-anchor="end">0.2</text><line x1="70" y1="230.0" x2="590.0" y2="230.0" stroke="#e5e5e5"/><text x="64.0" y="234.0" font-size="11" fill="#333333" text-anchor="end">0.4</text><line x1="70" y1="170.0" x2="590.0" y2="170.0" stroke="#e5e5e5"/><text x="64.0" y="174.0" font-size="11" fill="#333333" text-anchor="end">0.6</text><line x1="70" y1="110.0" x2="590.0" y2="110.0" stroke="#e5e5e5"/><text x="64.0" y="114.0" font-size="11" fill="#333333" text-anchor="end">0.8</text><line x1="70" y1="50.0" x2="590.0" y2="50.0" stroke="#e5e5e5"/><text x="64.0" y="54.0" font-size="11" fill="#333333" text-anchor="end">1.0</text><line x1="70.0" y1="50" x2="70.0" y2="350.0" stroke="#e5e5e5"/><text x="70.0" y="366.0" font-size="11" fill="#333333" text-anchor="middle">0</text><line x1="174.0" y1="50" x2="174.0" y2="350.0" stroke="#e5e5e5"/><text x="174.0" y="366.0" font-size="11" fill="#333333" text-anchor="middle">20</text><line x1="278.0" y1="50" x2="278.0" y2="350.0" stroke="#e5e5e5"/><text x="278.0" y="366.0" font-size="11" fill="#333333" text-anchor="middle">40</text><line x1="382.0" y1="50" x2="382.0" y2="350.0" stroke="#e5e5e5"/><text x="382.0" y="366.0" font-size="11" fill="#333333" text-anchor="middle">60</text><line x1="486.0" y1="50" x2="486.0" y2="350.0" stroke="#e5e5e5"/><text x="486.0" y="366.0" font-size="11" fill="#333333" text-anchor="middle">80</text><line x1="590.0" y1="50" x2="590.0" y2="350.0" stroke="#e5e5e5"/><text x="590.0" y="366.0" font-size="11" fill="#333333" text-anchor="middle">100</text><rect x="70" y="50" width="520" height="300" fill="none" stroke="#555555"/><text x="330.0" y="386.0" font-size="12" fill="#222222" text-anchor="middle">Quartets finished (%)</text><text x="18" y="200.0" font-size="12" fill="#222222" text-anchor="middle" transform="rotate(-90 18 200.0)">nRF to the final tree</text><polyline points="72.13,100.00 76.40,100.00 80.87,150.00 85.29,187.50 90.44,225.00 94.91,193.75 99.54,175.00 103.59,262.50 108.58,200.00 113.21,225.00 116.75,250.00 120.86,262.50 124.39,237.50 129.18,225.00 133.28,237.50 137.76,237.50 142.02,237.50 145.92,212.50 150.18,212.50 154.81,225.00 159.23,187.50 163.13,187.50 168.85,175.00 173.12,200.00 177.02,200.00 181.12,225.00 185.39,200.00 189.29,187.50 193.71,200.00 197.82,200.00 202.44,212.50 207.23,212.50 210.97,212.50 216.48,212.50 221.84,237.50 226.62,237.50 230.73,250.00 235.00,237.50 239.94,237.50 244.04,237.50 248.83,237.50 253.09,237.50 257.36,250.00 269.47,250.00 283.67,250.00 300.78,262.50 315.86,275.00 329.01,275.00 341.13,262.50 352.31,237.50 364.94,237.50 377.22,237.50 388.24,262.50 396.04,250.00 401.55,275.00 405.09,287.50 409.04,287.50 412.94,287.50 417.93,275.00 422.51,312.50 426.98,287.50 430.88,287.50 434.78,312.50 438.73,312.50 443.15,312.50 447.94,312.50 451.89,312.50 456.46,300.00 461.82,287.50 466.29,287.50 470.35,300.00 474.46,300.00 478.36,300.00 482.26,300.00 486.52,300.00 491.51,312.50 496.30,300.00 500.40,300.00 504.15,312.50 508.41,312.50 513.56,312.50 517.98,312.50 521.36,312.50 525.83,312.50 530.10,312.50 533.48,312.50 537.38,312.50 541.64,312.50 547.15,312.50 552.14,350.00 554.07,350.00 556.04,350.00 558.54,350.00 561.19,350.00 563.84,350.00 566.91,350.00 571.70,350.00 575.23,350.00 580.38,350.00 589.64,350.00" fill="none" stroke="#0072b2" stroke-width="2"/><circle cx="72.13" cy="100.00" r="3.5" fill="#0072b2"/><circle cx="76.40" cy="100.00" r="3.5" fill="#0072b2"/><circle cx="80.87" cy="150.00" r="3.5" fill="#0072b2"/><circle cx="85.29" cy="187.50" r="3.5" fill="#0072b2"/><circle cx="90.44" cy="225.00" r="3.5" fill="#0072b2"/><circle cx="94.91" cy="193.75" r="3.5" fill="#0072b2"/><circle cx="99.54" cy="175.00" r="3.5" fill="#0072b2"/><circle cx="103.59" cy="262.50" r="3.5" fill="#0072b2"/><circle cx="108.58" cy="200.00" r="3.5" fill="#0072b2"/><circle cx="113.21" cy="225.00" r="3.5" fill="#0072b2"/><circle cx="116.75" cy="250.00" r="3.5" fill="#0072b2"/><circle cx="120.86" cy="262.50" r="3.5" fill="#0072b2"/><circle cx="124.39" cy="237.50" r="3.5" fill="#0072b2"/><circle cx="129.18" cy="225.00" r="3.5" fill="#0072b2"/><circle cx="133.28" cy="237.50" r="3.5" fill="#0072b2"/><circle cx="137.76" cy="237.50" r="3.5" fill="#0072b2"/><circle cx="142.02" cy="237.50" r="3.5" fill="#0072b2"/><circle cx="145.92" cy="212.50" r="3.5" fill="#0072b2"/><circle cx="150.18" cy="212.50" r="3.5" fill="#0072b2"/><circle cx="154.81" cy="225.00" r="3.5" fill="#0072b2"/><circle cx="159.23" cy="187.50" r="3.5" fill="#0072b2"/><circle cx="163.13" cy="187.50" r="3.5" fill="#0072b2"/><circle cx="168.85" cy="175.00" r="3.5" fill="#0072b2"/><circle cx="173.12" cy="200.00" r="3.5" fill="#0072b2"/><circle cx="177.02" cy="200.00" r="3.5" fill="#0072b2"/><circle cx="181.12" cy="225.00" r="3.5" fill="#0072b2"/><circle cx="185.39" cy="200.00" r="3.5" fill="#0072b2"/><circle cx="189.29" cy="187.50" r="3.5" fill="#0072b2"/><circle cx="193.71" cy="200.00" r="3.5" fill="#0072b2"/><circle cx="197.82" cy="200.00" r="3.5" fill="#0072b2"/><circle cx="202.44" cy="212.50" r="3.5" fill="#0072b2"/><circle cx="207.23" cy="212.50" r="3.5" fill="#0072b2"/><circle cx="210.97" cy="212.50" r="3.5" fill="#0072b2"/><circle cx="216.48" cy="212.50" r="3.5" fill="#0072b2"/><circle cx="221.84" cy="237.50" r="3.5" fill="#0072b2"/><circle cx="226.62" cy="237.50" r="3.5" fill="#0072b2"/><circle cx="230.73" cy="250.00" r="3.5" fill="#0072b2"/><circle cx="235.00" cy="237.50" r="3.5" fill="#0072b2"/><circle cx="239.94" cy="237.50" r="3.5" fill="#0072b2"/><circle cx="244.04" cy="237.50" r="3.5" fill="#0072b2"/><circle cx="248.83" cy="237.50" r="3.5" fill="#0072b2"/><circle cx="253.09" cy="237.50" r="3.5" fill="#0072b2"/><circle cx="257.36" cy="250.00" r="3.5" fill="#0072b2"/><circle cx="269.47" cy="250.00" r="3.5" fill="#0072b2"/><circle cx="283.67" cy="250.00" r="3.5" fill="#0072b2"/><circle cx="300.78" cy="262.50" r="3.5" fill="#0072b2"/><circle cx="315.86" cy="275.00" r="3.5" fill="#0072b2"/><circle cx="329.01" cy="275.00" r="3.5" fill="#0072b2"/><circle cx="341.13" cy="262.50" r="3.5" fill="#0072b2"/><circle cx="352.31" cy="237.50" r="3.5" fill="#0072b2"/><circle cx="364.94" cy="237.50" r="3.5" fill="#0072b2"/><circle cx="377.22" cy="237.50" r="3.5" fill="#0072b2"/><circle cx="388.24" cy="262.50" r="3.5" fill="#0072b2"/><circle cx="396.04" cy="250.00" r="3.5" fill="#0072b2"/><circle cx="401.55" cy="275.00" r="3.5" fill="#0072b2"/><circle cx="405.09" cy="287.50" r="3.5" fill="#0072b2"/><circle cx="409.04" cy="287.50" r="3.5" fill="#0072b2"/><circle cx="412.94" cy="287.50" r="3.5" fill="#0072b2"/><circle cx="417.93" cy="275.00" r="3.5" fill="#0072b2"/><circle cx="422.51" cy="312.50" r="3.5" fill="#0072b2"/><circle cx="426.98" cy="287.50" r="3.5" fill="#0072b2"/><circle cx="430.88" cy="287.50" r="3.5" fill="#0072b2"/><circle cx="434.78" cy="312.50" r="3.5" fill="#0072b2"/><circle cx="438.73" cy="312.50" r="3.5" fill="#0072b2"/><circle cx="443.15" cy="312.50" r="3.5" fill="#0072b2"/><circle cx="447.94" cy="312.50" r="3.5" fill="#0072b2"/><circle cx="451.89" cy="312.50" r="3.5" fill="#0072b2"/><circle cx="456.46" cy="300.00" r="3.5" fill="#0072b2"/><circle cx="461.82" cy="287.50" r="3.5" fill="#0072b2"/><circle cx="466.29" cy="287.50" r="3.5" fill="#0072b2"/><circle cx="470.35" cy="300.00" r="3.5" fill="#0072b2"/><circle cx="474.46" cy="300.00" r="3.5" fill="#0072b2"/><circle cx="478.36" cy="300.00" r="3.5" fill="#0072b2"/><circle cx="482.26" cy="300.00" r="3.5" fill="#0072b2"/><circle cx="486.52" cy="300.00" r="3.5" fill="#0072b2"/><circle cx="491.51" cy="312.50" r="3.5" fill="#0072b2"/><circle cx="496.30" cy="300.00" r="3.5" fill="#0072b2"/><circle cx="500.40" cy="300.00" r="3.5" fill="#0072b2"/><circle cx="504.15" cy="312.50" r="3.5" fill="#0072b2"/><circle cx="508.41" cy="312.50" r="3.5" fill="#0072b2"/><circle cx="513.56" cy="312.50" r="3.5" fill="#0072b2"/><circle cx="517.98" cy="312.50" r="3.5" fill="#0072b2"/><circle cx="521.36" cy="312.50" r="3.5" fill="#0072b2"/><circle cx="525.83" cy="312.50" r="3.5" fill="#0072b2"/><circle cx="530.10" cy="312.50" r="3.5" fill="#0072b2"/><circle cx="533.48" cy="312.50" r="3.5" fill="#0072b2"/><circle cx="537.38" cy="312.50" r="3.5" fill="#0072b2"/><circle cx="541.64" cy="312.50" r="3.5" fill="#0072b2"/><circle cx="547.15" cy="312.50" r="3.5" fill="#0072b2"/><circle cx="552.14" cy="350.00" r="3.5" fill="#0072b2"/><circle cx="554.07" cy="350.00" r="3.5" fill="#0072b2"/><circle cx="556.04" cy="350.00" r="3.5" fill="#0072b2"/><circle cx="558.54" cy="350.00" r="3.5" fill="#0072b2"/><circle cx="561.19" cy="350.00" r="3.5" fill="#0072b2"/><circle cx="563.84" cy="350.00" r="3.5" fill="#0072b2"/><circle cx="566.91" cy="350.00" r="3.5" fill="#0072b2"/><circle cx="571.70" cy="350.00" r="3.5" fill="#0072b2"/><circle cx="575.23" cy="350.00" r="3.5" fill="#0072b2"/><circle cx="580.38" cy="350.00" r="3.5" fill="#0072b2"/><circle cx="589.64" cy="350.00" r="3.5" fill="#0072b2"/><text x="12" y="410.0" font-size="10" fill="#555555">Each point is a provisional tree from the quartets finished so far (seeded random order); 0 means the final tree.</text></svg>
