<svg xmlns="http://www.w3.org/2000/svg" width="800" height="1000" viewBox="0 0 800 1000" font-family="sans-serif"><rect width="800" height="1000" fill="#ffffff"/><text x="12" y="20.0" font-size="15" font-weight="bold" fill="#222222">Quartet Halo Tree: fish_mito_seed3</text><text x="12" y="38.0" font-size="12" font-weight="normal" fill="#222222">25 taxa, 12,650 quartets; W2-sym, W2c 100 resamples, S2 0 replicates, strand filter on, MAW lengths by entropy, seed 3</text><text x="12" y="56.0" font-size="12" font-weight="normal" fill="#222222">Run of 2026-10-09 (UTC), Q-MAWS 0.0.0</text><g fill="none" stroke-linecap="round"><line x1="400.00" y1="464.00" x2="408.83" y2="495.78" stroke="#24898d" stroke-width="2.33"/><line x1="400.00" y1="464.00" x2="213.21" y2="328.29" stroke="#555555" stroke-width="1.20"/><line x1="400.00" y1="464.00" x2="391.17" y2="432.22" stroke="#26848e" stroke-width="2.41"/><path d="M408.83,495.78 A32.98,32.98 0 0 0 431.37,474.19" stroke="#2e708e" stroke-width="2.70"/><line x1="431.37" y1="474.19" x2="462.74" y2="484.38" stroke="#2e708e" stroke-width="2.70"/><path d="M408.83,495.78 A32.98,32.98 0 0 1 378.38,488.91" stroke="#238e8c" stroke-width="2.27"/><line x1="378.38" y1="488.91" x2="356.77" y2="513.82" stroke="#238e8c" stroke-width="2.27"/><path d="M462.74,484.38 A65.97,65.97 0 0 0 465.45,472.27" stroke="#450759" stroke-width="3.94"/><line x1="465.45" y1="472.27" x2="498.17" y2="476.40" stroke="#450759" stroke-width="3.94"/><path d="M462.74,484.38 A65.97,65.97 0 0 1 457.81,495.78" stroke="#555555" stroke-width="1.20"/><line x1="457.81" y1="495.78" x2="602.32" y2="575.23" stroke="#555555" stroke-width="1.20"/><path d="M498.17,476.40 A98.95,98.95 0 0 0 498.95,464.00" stroke="#555555" stroke-width="1.20"/><line x1="498.95" y1="464.00" x2="630.88" y2="464.00" stroke="#555555" stroke-width="1.20"/><path d="M498.17,476.40 A98.95,98.95 0 0 1 495.84,488.61" stroke="#555555" stroke-width="1.20"/><line x1="495.84" y1="488.61" x2="623.63" y2="521.42" stroke="#555555" stroke-width="1.20"/><path d="M356.77,513.82 A65.97,65.97 0 0 0 408.27,529.45" stroke="#22928b" stroke-width="2.21"/><line x1="408.27" y1="529.45" x2="412.40" y2="562.17" stroke="#22928b" stroke-width="2.21"/><path d="M356.77,513.82 A65.97,65.97 0 0 1 334.04,465.04" stroke="#22948b" stroke-width="2.18"/><line x1="334.04" y1="465.04" x2="301.06" y2="465.55" stroke="#22948b" stroke-width="2.18"/><path d="M412.40,562.17 A98.95,98.95 0 0 0 447.67,550.71" stroke="#27808e" stroke-width="2.47"/><line x1="447.67" y1="550.71" x2="463.56" y2="579.61" stroke="#27808e" stroke-width="2.47"/><path d="M412.40,562.17 A98.95,98.95 0 0 1 375.39,559.84" stroke="#20988a" stroke-width="2.12"/><line x1="375.39" y1="559.84" x2="367.19" y2="591.79" stroke="#20988a" stroke-width="2.12"/><path d="M463.56,579.61 A131.93,131.93 0 0 0 484.10,565.65" stroke="#3f4687" stroke-width="3.26"/><line x1="484.10" y1="565.65" x2="505.12" y2="591.07" stroke="#3f4687" stroke-width="3.26"/><path d="M463.56,579.61 A131.93,131.93 0 0 1 440.77,589.47" stroke="#555555" stroke-width="1.20"/><line x1="440.77" y1="589.47" x2="471.35" y2="683.58" stroke="#555555" stroke-width="1.20"/><path d="M505.12,591.07 A164.91,164.91 0 0 0 520.22,576.89" stroke="#555555" stroke-width="1.20"/><line x1="520.22" y1="576.89" x2="568.30" y2="622.05" stroke="#555555" stroke-width="1.20"/><path d="M505.12,591.07 A164.91,164.91 0 0 1 488.37,603.24" stroke="#555555" stroke-width="1.20"/><line x1="488.37" y1="603.24" x2="523.71" y2="658.94" stroke="#555555" stroke-width="1.20"/><path d="M367.19,591.79 A131.93,131.93 0 0 0 391.72,595.67" stroke="#22948b" stroke-width="2.19"/><line x1="391.72" y1="595.67" x2="389.64" y2="628.59" stroke="#22948b" stroke-width="2.19"/><path d="M367.19,591.79 A131.93,131.93 0 0 1 343.83,583.38" stroke="#555555" stroke-width="1.20"/><line x1="343.83" y1="583.38" x2="301.70" y2="672.91" stroke="#555555" stroke-width="1.20"/><path d="M389.64,628.59 A164.91,164.91 0 0 0 410.36,628.59" stroke="#555555" stroke-width="1.20"/><line x1="410.36" y1="628.59" x2="414.50" y2="694.42" stroke="#555555" stroke-width="1.20"/><path d="M389.64,628.59 A164.91,164.91 0 0 1 369.10,625.99" stroke="#555555" stroke-width="1.20"/><line x1="369.10" y1="625.99" x2="356.74" y2="690.79" stroke="#555555" stroke-width="1.20"/><path d="M301.06,465.55 A98.95,98.95 0 0 0 309.19,503.30" stroke="#22908b" stroke-width="2.24"/><line x1="309.19" y1="503.30" x2="278.92" y2="516.40" stroke="#22908b" stroke-width="2.24"/><path d="M301.06,465.55 A98.95,98.95 0 0 1 308.00,427.57" stroke="#555555" stroke-width="1.20"/><line x1="308.00" y1="427.57" x2="185.33" y2="379.01" stroke="#555555" stroke-width="1.20"/><path d="M278.92,516.40 A131.93,131.93 0 0 0 303.83,554.31" stroke="#31698e" stroke-width="2.81"/><line x1="303.83" y1="554.31" x2="279.78" y2="576.89" stroke="#31698e" stroke-width="2.81"/><path d="M278.92,516.40 A131.93,131.93 0 0 1 268.33,472.28" stroke="#22938b" stroke-width="2.19"/><line x1="268.33" y1="472.28" x2="235.41" y2="474.36" stroke="#22938b" stroke-width="2.19"/><path d="M279.78,576.89 A164.91,164.91 0 0 0 294.88,591.07" stroke="#555555" stroke-width="1.20"/><line x1="294.88" y1="591.07" x2="252.83" y2="641.90" stroke="#555555" stroke-width="1.20"/><path d="M279.78,576.89 A164.91,164.91 0 0 1 266.58,560.93" stroke="#555555" stroke-width="1.20"/><line x1="266.58" y1="560.93" x2="213.21" y2="599.71" stroke="#555555" stroke-width="1.20"/><path d="M235.41,474.36 A164.91,164.91 0 0 0 240.27,505.01" stroke="#22918b" stroke-width="2.22"/><line x1="240.27" y1="505.01" x2="208.32" y2="513.22" stroke="#22918b" stroke-width="2.22"/><path d="M235.41,474.36 A164.91,164.91 0 0 1 236.39,443.33" stroke="#555555" stroke-width="1.20"/><line x1="236.39" y1="443.33" x2="170.94" y2="435.06" stroke="#555555" stroke-width="1.20"/><path d="M208.32,513.22 A197.90,197.90 0 0 0 216.00,536.85" stroke="#555555" stroke-width="1.20"/><line x1="216.00" y1="536.85" x2="185.33" y2="548.99" stroke="#555555" stroke-width="1.20"/><path d="M208.32,513.22 A197.90,197.90 0 0 1 203.66,488.80" stroke="#555555" stroke-width="1.20"/><line x1="203.66" y1="488.80" x2="170.94" y2="492.94" stroke="#555555" stroke-width="1.20"/><path d="M391.17,432.22 A32.98,32.98 0 0 0 378.98,438.59" stroke="#555555" stroke-width="1.20"/><line x1="378.98" y1="438.59" x2="252.83" y2="286.10" stroke="#555555" stroke-width="1.20"/><path d="M391.17,432.22 A32.98,32.98 0 0 1 404.90,431.38" stroke="#2a7a8e" stroke-width="2.56"/><line x1="404.90" y1="431.38" x2="409.81" y2="398.77" stroke="#2a7a8e" stroke-width="2.56"/><path d="M409.81,398.77 A65.97,65.97 0 0 0 371.91,404.31" stroke="#555555" stroke-width="1.20"/><line x1="371.91" y1="404.31" x2="301.70" y2="255.09" stroke="#555555" stroke-width="1.20"/><path d="M409.81,398.77 A65.97,65.97 0 0 1 444.40,415.21" stroke="#2d708e" stroke-width="2.70"/><line x1="444.40" y1="415.21" x2="466.59" y2="390.81" stroke="#2d708e" stroke-width="2.70"/><path d="M466.59,390.81 A98.95,98.95 0 0 0 433.52,370.90" stroke="#404185" stroke-width="3.31"/><line x1="433.52" y1="370.90" x2="444.69" y2="339.87" stroke="#404185" stroke-width="3.31"/><path d="M466.59,390.81 A98.95,98.95 0 0 1 489.53,421.87" stroke="#306a8e" stroke-width="2.80"/><line x1="489.53" y1="421.87" x2="519.38" y2="407.83" stroke="#306a8e" stroke-width="2.80"/><path d="M444.69,339.87 A131.93,131.93 0 0 0 416.54,333.11" stroke="#450d5f" stroke-width="3.88"/><line x1="416.54" y1="333.11" x2="420.67" y2="300.39" stroke="#450d5f" stroke-width="3.88"/><path d="M444.69,339.87 A131.93,131.93 0 0 1 470.69,352.61" stroke="#555555" stroke-width="1.20"/><line x1="470.69" y1="352.61" x2="523.71" y2="269.06" stroke="#555555" stroke-width="1.20"/><path d="M420.67,300.39 A164.91,164.91 0 0 0 389.64,299.41" stroke="#461062" stroke-width="3.85"/><line x1="389.64" y1="299.41" x2="387.57" y2="266.49" stroke="#461062" stroke-width="3.85"/><path d="M420.67,300.39 A164.91,164.91 0 0 1 450.96,307.16" stroke="#555555" stroke-width="1.20"/><line x1="450.96" y1="307.16" x2="471.35" y2="244.42" stroke="#555555" stroke-width="1.20"/><path d="M387.57,266.49 A197.90,197.90 0 0 0 362.92,269.61" stroke="#555555" stroke-width="1.20"/><line x1="362.92" y1="269.61" x2="356.74" y2="237.21" stroke="#555555" stroke-width="1.20"/><path d="M387.57,266.49 A197.90,197.90 0 0 1 412.43,266.49" stroke="#555555" stroke-width="1.20"/><line x1="412.43" y1="266.49" x2="414.50" y2="233.58" stroke="#555555" stroke-width="1.20"/><path d="M519.38,407.83 A131.93,131.93 0 0 0 506.73,386.45" stroke="#3f4788" stroke-width="3.24"/><line x1="506.73" y1="386.45" x2="533.42" y2="367.07" stroke="#3f4788" stroke-width="3.24"/><path d="M519.38,407.83 A131.93,131.93 0 0 1 527.79,431.19" stroke="#555555" stroke-width="1.20"/><line x1="527.79" y1="431.19" x2="623.63" y2="406.58" stroke="#555555" stroke-width="1.20"/><path d="M533.42,367.07 A164.91,164.91 0 0 0 520.22,351.11" stroke="#555555" stroke-width="1.20"/><line x1="520.22" y1="351.11" x2="568.30" y2="305.95" stroke="#555555" stroke-width="1.20"/><path d="M533.42,367.07 A164.91,164.91 0 0 1 544.52,384.55" stroke="#555555" stroke-width="1.20"/><line x1="544.52" y1="384.55" x2="602.32" y2="352.77" stroke="#555555" stroke-width="1.20"/></g><text x="636.88" y="464.00" font-size="11.0" fill="#222222" text-anchor="start" dominant-baseline="central" transform="rotate(0.00 636.88 464.00)">NC_009067</text><path d="M714.33,429.10 A316.26,316.26 0 0 1 714.33,498.90 L702.40,497.58 A304.26,304.26 0 0 0 702.40,430.42 Z" fill="#f6e6d1" stroke="#666666" stroke-width="0.5"/><circle cx="710.26" cy="464.00" r="2.2" fill="#222222"/><text x="629.44" y="522.91" font-size="11.0" fill="#222222" text-anchor="start" dominant-baseline="central" transform="rotate(14.40 629.44 522.91)">NC_012055</text><path d="M713.13,508.36 A316.26,316.26 0 0 1 695.77,575.98 L684.55,571.73 A304.26,304.26 0 0 0 701.25,506.68 Z" fill="#f6e6d2" stroke="#666666" stroke-width="0.5"/><circle cx="700.51" cy="541.16" r="2.2" fill="#222222"/><text x="607.58" y="578.12" font-size="11.0" fill="#222222" text-anchor="start" dominant-baseline="central" transform="rotate(28.80 607.58 578.12)">NC_010205</text><path d="M692.26,584.84 A316.26,316.26 0 0 1 658.63,646.01 L648.82,639.11 A304.26,304.26 0 0 0 681.17,580.26 Z" fill="#f4c892" stroke="#666666" stroke-width="0.5"/><circle cx="671.88" cy="613.47" r="2.2" fill="#222222"/><text x="572.68" y="626.16" font-size="11.0" fill="#222222" text-anchor="start" dominant-baseline="central" transform="rotate(43.20 572.68 626.16)">NC_013564</text><path d="M653.03,653.73 A316.26,316.26 0 0 1 605.24,704.61 L597.46,695.49 A304.26,304.26 0 0 0 643.43,646.53 Z" fill="#f6e3cc" stroke="#666666" stroke-width="0.5"/><circle cx="626.17" cy="676.39" r="2.2" fill="#222222"/><text x="526.93" y="664.00" font-size="11.0" fill="#222222" text-anchor="start" dominant-baseline="central" transform="rotate(57.60 526.93 664.00)">NC_013577</text><path d="M597.89,710.69 A316.26,316.26 0 0 1 538.96,748.10 L533.68,737.32 A304.26,304.26 0 0 0 590.39,701.33 Z" fill="#f5dcbc" stroke="#666666" stroke-width="0.5"/><circle cx="566.25" cy="725.96" r="2.2" fill="#222222"/><text x="473.20" y="689.29" font-size="11.0" fill="#222222" text-anchor="start" dominant-baseline="central" transform="rotate(72.00 473.20 689.29)">NC_011168</text><path d="M530.33,752.16 A316.26,316.26 0 0 1 463.94,773.73 L461.51,761.98 A304.26,304.26 0 0 0 525.38,741.22 Z" fill="#f5d8b3" stroke="#666666" stroke-width="0.5"/><circle cx="495.88" cy="759.07" r="2.2" fill="#222222"/><text x="414.87" y="700.41" font-size="11.0" fill="#222222" text-anchor="start" dominant-baseline="central" transform="rotate(86.40 414.87 700.41)">NC_009064</text><path d="M454.57,775.52 A316.26,316.26 0 0 1 384.90,779.90 L385.48,767.91 A304.26,304.26 0 0 0 452.50,763.70 Z" fill="#f5d8b3" stroke="#666666" stroke-width="0.5"/><circle cx="419.48" cy="773.65" r="2.2" fill="#222222"/><text x="355.61" y="696.68" font-size="11.0" fill="#222222" text-anchor="end" dominant-baseline="central" transform="rotate(280.80 355.61 696.68)">NC_009065</text><path d="M375.38,779.30 A316.26,316.26 0 0 1 306.82,766.22 L310.35,754.75 A304.26,304.26 0 0 0 376.32,767.34 Z" fill="#f5d6b0" stroke="#666666" stroke-width="0.5"/><circle cx="341.86" cy="768.76" r="2.2" fill="#222222"/><text x="299.14" y="678.34" font-size="11.0" fill="#222222" text-anchor="end" dominant-baseline="central" transform="rotate(295.20 299.14 678.34)">NC_009459</text><path d="M297.75,763.27 A316.26,316.26 0 0 1 234.59,733.55 L240.86,723.32 A304.26,304.26 0 0 0 301.63,751.92 Z" fill="#f4d0a2" stroke="#666666" stroke-width="0.5"/><circle cx="267.90" cy="744.73" r="2.2" fill="#222222"/><text x="249.01" y="646.52" font-size="11.0" fill="#222222" text-anchor="end" dominant-baseline="central" transform="rotate(309.60 249.01 646.52)">NC_009059</text><path d="M226.53,728.44 A316.26,316.26 0 0 1 172.75,683.95 L181.37,675.60 A304.26,304.26 0 0 0 233.11,718.41 Z" fill="#f5d5ad" stroke="#666666" stroke-width="0.5"/><circle cx="202.23" cy="703.06" r="2.2" fill="#222222"/><text x="208.36" y="603.23" font-size="11.0" fill="#222222" text-anchor="end" dominant-baseline="central" transform="rotate(324.00 208.36 603.23)">NC_009060</text><path d="M166.22,676.99 A316.26,316.26 0 0 1 125.19,620.52 L135.62,614.58 A304.26,304.26 0 0 0 175.09,668.91 Z" fill="#f4d4aa" stroke="#666666" stroke-width="0.5"/><circle cx="148.99" cy="646.37" r="2.2" fill="#222222"/><text x="179.75" y="551.20" font-size="11.0" fill="#222222" text-anchor="end" dominant-baseline="central" transform="rotate(338.40 179.75 551.20)">NC_011169</text><path d="M120.59,612.16 A316.26,316.26 0 0 1 94.90,547.26 L106.47,544.10 A304.26,304.26 0 0 0 131.19,606.54 Z" fill="#f6e3cb" stroke="#666666" stroke-width="0.5"/><circle cx="111.53" cy="578.21" r="2.2" fill="#222222"/><text x="164.99" y="493.69" font-size="11.0" fill="#222222" text-anchor="end" dominant-baseline="central" transform="rotate(352.80 164.99 493.69)">NC_011170</text><path d="M92.52,538.02 A316.26,316.26 0 0 1 83.78,468.77 L95.77,468.59 A304.26,304.26 0 0 0 104.19,535.21 Z" fill="#f5d4ab" stroke="#666666" stroke-width="0.5"/><circle cx="92.19" cy="502.89" r="2.2" fill="#222222"/><text x="164.99" y="434.31" font-size="11.0" fill="#222222" text-anchor="end" dominant-baseline="central" transform="rotate(367.20 164.99 434.31)">NC_011177</text><path d="M83.78,459.23 A316.26,316.26 0 0 1 92.52,389.98 L104.19,392.79 A304.26,304.26 0 0 0 95.77,459.41 Z" fill="#f5e1c6" stroke="#666666" stroke-width="0.5"/><circle cx="92.19" cy="425.11" r="2.2" fill="#222222"/><text x="179.75" y="376.80" font-size="11.0" fill="#222222" text-anchor="end" dominant-baseline="central" transform="rotate(381.60 179.75 376.80)">NC_009066</text><path d="M94.90,380.74 A316.26,316.26 0 0 1 120.59,315.84 L131.19,321.46 A304.26,304.26 0 0 0 106.47,383.90 Z" fill="#f4cb97" stroke="#666666" stroke-width="0.5"/><circle cx="111.53" cy="349.79" r="2.2" fill="#222222"/><text x="208.36" y="324.77" font-size="11.0" fill="#222222" text-anchor="end" dominant-baseline="central" transform="rotate(396.00 208.36 324.77)">NC_011179</text><path d="M125.19,307.48 A316.26,316.26 0 0 1 166.22,251.01 L175.09,259.09 A304.26,304.26 0 0 0 135.62,313.42 Z" fill="#f5d7b2" stroke="#666666" stroke-width="0.5"/><circle cx="148.99" cy="281.63" r="2.2" fill="#222222"/><text x="249.01" y="281.48" font-size="11.0" fill="#222222" text-anchor="end" dominant-baseline="central" transform="rotate(410.40 249.01 281.48)">NC_009058</text><path d="M172.75,244.05 A316.26,316.26 0 0 1 226.53,199.56 L233.11,209.59 A304.26,304.26 0 0 0 181.37,252.40 Z" fill="#f5ddbf" stroke="#666666" stroke-width="0.5"/><circle cx="202.23" cy="224.94" r="2.2" fill="#222222"/><text x="299.14" y="249.66" font-size="11.0" fill="#222222" text-anchor="end" dominant-baseline="central" transform="rotate(424.80 299.14 249.66)">NC_011171</text><path d="M234.59,194.45 A316.26,316.26 0 0 1 297.75,164.73 L301.63,176.08 A304.26,304.26 0 0 0 240.86,204.68 Z" fill="#f4d0a1" stroke="#666666" stroke-width="0.5"/><circle cx="267.90" cy="183.27" r="2.2" fill="#222222"/><text x="355.61" y="231.32" font-size="11.0" fill="#222222" text-anchor="end" dominant-baseline="central" transform="rotate(439.20 355.61 231.32)">NC_009063</text><path d="M306.82,161.78 A316.26,316.26 0 0 1 375.38,148.70 L376.32,160.66 A304.26,304.26 0 0 0 310.35,173.25 Z" fill="#e4e2ed" stroke="#666666" stroke-width="0.5"/><circle cx="341.86" cy="159.24" r="2.2" fill="#222222"/><text x="414.87" y="227.59" font-size="11.0" fill="#222222" text-anchor="start" dominant-baseline="central" transform="rotate(273.60 414.87 227.59)">NC_018814</text><path d="M384.90,148.10 A316.26,316.26 0 0 1 454.57,152.48 L452.50,164.30 A304.26,304.26 0 0 0 385.48,160.09 Z" fill="#e9e7ef" stroke="#666666" stroke-width="0.5"/><circle cx="419.48" cy="154.35" r="2.2" fill="#222222"/><text x="473.20" y="238.71" font-size="11.0" fill="#222222" text-anchor="start" dominant-baseline="central" transform="rotate(288.00 473.20 238.71)">NC_018815</text><path d="M463.94,154.27 A316.26,316.26 0 0 1 530.33,175.84 L525.38,186.78 A304.26,304.26 0 0 0 461.51,166.02 Z" fill="#efeef3" stroke="#666666" stroke-width="0.5"/><circle cx="495.88" cy="168.93" r="2.2" fill="#222222"/><text x="526.93" y="264.00" font-size="11.0" fill="#222222" text-anchor="start" dominant-baseline="central" transform="rotate(302.40 526.93 264.00)">NC_009062</text><path d="M538.96,179.90 A316.26,316.26 0 0 1 597.89,217.31 L590.39,226.67 A304.26,304.26 0 0 0 533.68,190.68 Z" fill="#f6eadb" stroke="#666666" stroke-width="0.5"/><circle cx="566.25" cy="202.04" r="2.2" fill="#222222"/><text x="572.68" y="301.84" font-size="11.0" fill="#222222" text-anchor="start" dominant-baseline="central" transform="rotate(316.80 572.68 301.84)">NC_013663</text><path d="M605.24,223.39 A316.26,316.26 0 0 1 653.03,274.27 L643.43,281.47 A304.26,304.26 0 0 0 597.46,232.51 Z" fill="#f7f6f5" stroke="#666666" stroke-width="0.5"/><circle cx="626.17" cy="251.61" r="2.2" fill="#222222"/><text x="607.58" y="349.88" font-size="11.0" fill="#222222" text-anchor="start" dominant-baseline="central" transform="rotate(331.20 607.58 349.88)">NC_013750</text><path d="M658.63,281.99 A316.26,316.26 0 0 1 692.26,343.16 L681.17,347.74 A304.26,304.26 0 0 0 648.82,288.89 Z" fill="#f6e8d6" stroke="#666666" stroke-width="0.5"/><circle cx="671.88" cy="314.53" r="2.2" fill="#222222"/><text x="629.44" y="405.09" font-size="11.0" fill="#222222" text-anchor="start" dominant-baseline="central" transform="rotate(345.60 629.44 405.09)">NC_009057</text><path d="M695.77,352.02 A316.26,316.26 0 0 1 713.13,419.64 L701.25,421.32 A304.26,304.26 0 0 0 684.55,356.27 Z" fill="#f5e0c5" stroke="#666666" stroke-width="0.5"/><circle cx="700.51" cy="386.84" r="2.2" fill="#222222"/><path d="M728.24,427.55 A330.26,330.26 0 0 1 670.08,654.07 L661.90,648.32 A320.26,320.26 0 0 0 718.30,428.66 Z" fill="#e69f00" stroke="#444444" stroke-width="0.4"/><text x="723.76" y="547.13" font-size="11.0" font-style="italic" fill="#222222" text-anchor="start" dominant-baseline="central" transform="rotate(14.40 723.76 547.13)">Clade A</text><path d="M664.23,662.13 A330.26,330.26 0 0 1 227.26,745.48 L232.49,736.96 A320.26,320.26 0 0 0 656.23,656.13 Z" fill="#56b4e9" stroke="#444444" stroke-width="0.4"/><text x="462.63" y="792.34" font-size="11.0" font-style="italic" fill="#222222" text-anchor="start" dominant-baseline="central" transform="rotate(79.20 462.63 792.34)">Clade B</text><path d="M218.85,740.15 A330.26,330.26 0 0 1 108.22,309.28 L117.06,313.96 A320.26,320.26 0 0 0 224.34,731.79 Z" fill="#009e73" stroke="#444444" stroke-width="0.4"/><text x="76.24" y="547.13" font-size="11.0" font-style="italic" fill="#222222" text-anchor="end" dominant-baseline="central" transform="rotate(345.60 76.24 547.13)">Clade C</text><path d="M302.69,148.40 A330.26,330.26 0 0 1 606.65,206.38 L600.40,214.19 A320.26,320.26 0 0 0 305.64,157.96 Z" fill="#f0e442" stroke="#444444" stroke-width="0.4"/><text x="462.63" y="135.66" font-size="11.0" font-style="italic" fill="#222222" text-anchor="start" dominant-baseline="central" transform="rotate(280.80 462.63 135.66)">Clade D</text><path d="M614.33,212.73 A330.26,330.26 0 0 1 726.99,417.67 L717.09,419.07 A320.26,320.26 0 0 0 607.84,220.34 Z" fill="#0072b2" stroke="#444444" stroke-width="0.4"/><text x="692.91" y="302.97" font-size="11.0" font-style="italic" fill="#222222" text-anchor="start" dominant-baseline="central" transform="rotate(331.20 692.91 302.97)">Clade E</text><defs><linearGradient id="halo-scale" x1="0" x2="1" y1="0" y2="0"><stop offset="0.000" stop-color="#b35806"/><stop offset="0.100" stop-color="#cc761d"/><stop offset="0.200" stop-color="#e59434"/><stop offset="0.300" stop-color="#f2b465"/><stop offset="0.400" stop-color="#f5d5ae"/><stop offset="0.500" stop-color="#f7f7f7"/><stop offset="0.600" stop-color="#d1cde2"/><stop offset="0.700" stop-color="#aca3cd"/><stop offset="0.800" stop-color="#8b79b7"/><stop offset="0.900" stop-color="#7050a0"/><stop offset="1.000" stop-color="#542788"/></linearGradient></defs><text x="12" y="881.0" font-size="11" fill="#222222">Halo value</text><rect x="90" y="872.0" width="120" height="10" fill="url(#halo-scale)" stroke="#666666" stroke-width="0.5"/><text x="90" y="894.0" font-size="10" fill="#222222" text-anchor="middle">0</text><text x="150" y="894.0" font-size="10" fill="#222222" text-anchor="middle">0.5</text><text x="210" y="894.0" font-size="10" fill="#222222" text-anchor="middle">1</text><circle cx="238" cy="877.0" r="2.6" fill="#222222"/><text x="246" y="881.0" font-size="11" fill="#222222">halo value below 0.6</text><defs><linearGradient id="support-scale" x1="0" x2="1" y1="0" y2="0"><stop offset="0.000" stop-color="#9cd83b"/><stop offset="0.100" stop-color="#67cb5c"/><stop offset="0.200" stop-color="#3cba75"/><stop offset="0.300" stop-color="#27a783"/><stop offset="0.400" stop-color="#22938b"/><stop offset="0.500" stop-color="#287d8e"/><stop offset="0.600" stop-color="#306a8e"/><stop offset="0.700" stop-color="#3a528a"/><stop offset="0.800" stop-color="#433981"/><stop offset="0.900" stop-color="#471f70"/><stop offset="1.000" stop-color="#440154"/></linearGradient></defs><text x="12" y="913.0" font-size="11" fill="#222222">S1 support</text><rect x="90" y="904.0" width="120" height="10" fill="url(#support-scale)" stroke="#666666" stroke-width="0.5"/><text x="90" y="926.0" font-size="10" fill="#222222" text-anchor="middle">0</text><text x="210" y="926.0" font-size="10" fill="#222222" text-anchor="middle">1</text><text x="236" y="913.0" font-size="11" fill="#222222">(branch colour; width grows with support; grey: no value)</text><text x="12" y="943.0" font-size="11" fill="#222222">Groups (automatic: clades of the tree):</text><rect x="12.0" y="950.0" width="14" height="10" fill="#e69f00" stroke="#444444" stroke-width="0.4"/><text x="32.0" y="959.0" font-size="10" fill="#222222">Clade A</text><rect x="270.7" y="950.0" width="14" height="10" fill="#56b4e9" stroke="#444444" stroke-width="0.4"/><text x="290.7" y="959.0" font-size="10" fill="#222222">Clade B</text><rect x="529.3" y="950.0" width="14" height="10" fill="#009e73" stroke="#444444" stroke-width="0.4"/><text x="549.3" y="959.0" font-size="10" fill="#222222">Clade C</text><rect x="12.0" y="966.0" width="14" height="10" fill="#f0e442" stroke="#444444" stroke-width="0.4"/><text x="32.0" y="975.0" font-size="10" fill="#222222">Clade D</text><rect x="270.7" y="966.0" width="14" height="10" fill="#0072b2" stroke="#444444" stroke-width="0.4"/><text x="290.7" y="975.0" font-size="10" fill="#222222">Clade E</text><text x="12" y="992.0" font-size="10" fill="#555555">Unrooted tree, drawn rooted at the midpoint of its longest path. Branch lengths are not drawn.</text></svg>
