<svg xmlns="http://www.w3.org/2000/svg" width="800" height="904" viewBox="0 0 800 904" font-family="sans-serif"><rect width="800" height="904" fill="#ffffff"/><text x="12" y="20.0" font-size="15" font-weight="bold" fill="#222222">Provisional Halo Tree: ecoli_seed5</text><text x="12" y="38.0" font-size="12" font-weight="normal" fill="#222222">29 taxa, 23184 of 23751 quartets (98%), update 27</text><g fill="none" stroke-linecap="round"><line x1="400.00" y1="446.00" x2="407.20" y2="489.04" stroke="#333333" stroke-width="1.40"/><line x1="400.00" y1="446.00" x2="358.42" y2="432.77" stroke="#333333" stroke-width="1.40"/><line x1="400.00" y1="446.00" x2="436.28" y2="421.76" stroke="#333333" stroke-width="1.40"/><path d="M407.20,489.04 A43.63,43.63 0 0 0 428.47,479.06" stroke="#333333" stroke-width="1.40"/><line x1="428.47" y1="479.06" x2="456.95" y2="512.13" stroke="#333333" stroke-width="1.40"/><path d="M407.20,489.04 A43.63,43.63 0 0 1 383.85,486.54" stroke="#333333" stroke-width="1.40"/><line x1="383.85" y1="486.54" x2="286.95" y2="729.75" stroke="#333333" stroke-width="1.40"/><path d="M456.95,512.13 A87.27,87.27 0 0 0 484.09,469.35" stroke="#333333" stroke-width="1.40"/><line x1="484.09" y1="469.35" x2="526.13" y2="481.02" stroke="#333333" stroke-width="1.40"/><path d="M456.95,512.13 A87.27,87.27 0 0 1 410.61,532.62" stroke="#333333" stroke-width="1.40"/><line x1="410.61" y1="532.62" x2="415.91" y2="575.93" stroke="#333333" stroke-width="1.40"/><path d="M526.13,481.02 A130.90,130.90 0 0 0 530.14,460.15" stroke="#333333" stroke-width="1.40"/><line x1="530.14" y1="460.15" x2="573.51" y2="464.87" stroke="#333333" stroke-width="1.40"/><path d="M526.13,481.02 A130.90,130.90 0 0 1 518.80,500.96" stroke="#333333" stroke-width="1.40"/><line x1="518.80" y1="500.96" x2="677.21" y2="574.25" stroke="#333333" stroke-width="1.40"/><path d="M573.51,464.87 A174.54,174.54 0 0 0 574.54,446.00" stroke="#333333" stroke-width="1.40"/><line x1="574.54" y1="446.00" x2="705.44" y2="446.00" stroke="#333333" stroke-width="1.40"/><path d="M573.51,464.87 A174.54,174.54 0 0 1 570.46,483.52" stroke="#333333" stroke-width="1.40"/><line x1="570.46" y1="483.52" x2="698.30" y2="511.66" stroke="#333333" stroke-width="1.40"/><path d="M415.91,575.93 A130.90,130.90 0 0 0 451.73,566.25" stroke="#333333" stroke-width="1.40"/><line x1="451.73" y1="566.25" x2="468.97" y2="606.33" stroke="#333333" stroke-width="1.40"/><path d="M415.91,575.93 A130.90,130.90 0 0 1 378.82,575.18" stroke="#333333" stroke-width="1.40"/><line x1="378.82" y1="575.18" x2="350.59" y2="747.42" stroke="#333333" stroke-width="1.40"/><path d="M468.97,606.33 A174.54,174.54 0 0 0 505.63,584.95" stroke="#333333" stroke-width="1.40"/><line x1="505.63" y1="584.95" x2="532.03" y2="619.68" stroke="#333333" stroke-width="1.40"/><path d="M468.97,606.33 A174.54,174.54 0 0 1 428.24,618.24" stroke="#333333" stroke-width="1.40"/><line x1="428.24" y1="618.24" x2="435.30" y2="661.30" stroke="#333333" stroke-width="1.40"/><path d="M532.03,619.68 A218.17,218.17 0 0 0 558.39,596.04" stroke="#333333" stroke-width="1.40"/><line x1="558.39" y1="596.04" x2="590.07" y2="626.04" stroke="#333333" stroke-width="1.40"/><path d="M532.03,619.68 A218.17,218.17 0 0 1 502.19,638.76" stroke="#333333" stroke-width="1.40"/><line x1="502.19" y1="638.76" x2="543.07" y2="715.86" stroke="#333333" stroke-width="1.40"/><path d="M590.07,626.04 A261.81,261.81 0 0 0 608.42,604.44" stroke="#333333" stroke-width="1.40"/><line x1="608.42" y1="604.44" x2="643.16" y2="630.84" stroke="#333333" stroke-width="1.40"/><path d="M590.07,626.04 A261.81,261.81 0 0 1 569.49,645.54" stroke="#333333" stroke-width="1.40"/><line x1="569.49" y1="645.54" x2="597.74" y2="678.79" stroke="#333333" stroke-width="1.40"/><path d="M435.30,661.30 A218.17,218.17 0 0 0 458.37,656.22" stroke="#333333" stroke-width="1.40"/><line x1="458.37" y1="656.22" x2="481.71" y2="740.31" stroke="#333333" stroke-width="1.40"/><path d="M435.30,661.30 A218.17,218.17 0 0 1 411.81,663.85" stroke="#333333" stroke-width="1.40"/><line x1="411.81" y1="663.85" x2="416.54" y2="750.99" stroke="#333333" stroke-width="1.40"/><path d="M358.42,432.77 A43.63,43.63 0 0 0 356.49,442.75" stroke="#333333" stroke-width="1.40"/><line x1="356.49" y1="442.75" x2="312.97" y2="439.51" stroke="#333333" stroke-width="1.40"/><path d="M358.42,432.77 A43.63,43.63 0 0 1 362.61,423.50" stroke="#333333" stroke-width="1.40"/><line x1="362.61" y1="423.50" x2="138.28" y2="288.53" stroke="#333333" stroke-width="1.40"/><path d="M312.97,439.51 A87.27,87.27 0 0 0 314.08,461.28" stroke="#333333" stroke-width="1.40"/><line x1="314.08" y1="461.28" x2="271.12" y2="468.92" stroke="#333333" stroke-width="1.40"/><path d="M312.97,439.51 A87.27,87.27 0 0 1 317.30,418.14" stroke="#333333" stroke-width="1.40"/><line x1="317.30" y1="418.14" x2="110.55" y2="348.47" stroke="#333333" stroke-width="1.40"/><path d="M271.12,468.92 A130.90,130.90 0 0 0 282.73,504.16" stroke="#333333" stroke-width="1.40"/><line x1="282.73" y1="504.16" x2="243.64" y2="523.55" stroke="#333333" stroke-width="1.40"/><path d="M271.12,468.92 A130.90,130.90 0 0 1 269.86,431.85" stroke="#333333" stroke-width="1.40"/><line x1="269.86" y1="431.85" x2="96.35" y2="412.98" stroke="#333333" stroke-width="1.40"/><path d="M243.64,523.55 A174.54,174.54 0 0 0 266.97,558.99" stroke="#333333" stroke-width="1.40"/><line x1="266.97" y1="558.99" x2="233.72" y2="587.24" stroke="#333333" stroke-width="1.40"/><path d="M243.64,523.55 A174.54,174.54 0 0 1 229.54,483.52" stroke="#333333" stroke-width="1.40"/><line x1="229.54" y1="483.52" x2="186.93" y2="492.90" stroke="#333333" stroke-width="1.40"/><path d="M233.72,587.24 A218.17,218.17 0 0 0 258.76,612.28" stroke="#333333" stroke-width="1.40"/><line x1="258.76" y1="612.28" x2="230.51" y2="645.54" stroke="#333333" stroke-width="1.40"/><path d="M233.72,587.24 A218.17,218.17 0 0 1 213.06,558.48" stroke="#333333" stroke-width="1.40"/><line x1="213.06" y1="558.48" x2="138.28" y2="603.47" stroke="#333333" stroke-width="1.40"/><path d="M230.51,645.54 A261.81,261.81 0 0 0 253.08,662.69" stroke="#333333" stroke-width="1.40"/><line x1="253.08" y1="662.69" x2="228.59" y2="698.81" stroke="#333333" stroke-width="1.40"/><path d="M230.51,645.54 A261.81,261.81 0 0 1 209.93,626.04" stroke="#333333" stroke-width="1.40"/><line x1="209.93" y1="626.04" x2="178.25" y2="656.05" stroke="#333333" stroke-width="1.40"/><path d="M186.93,492.90 A218.17,218.17 0 0 0 193.25,515.66" stroke="#333333" stroke-width="1.40"/><line x1="193.25" y1="515.66" x2="110.55" y2="543.53" stroke="#333333" stroke-width="1.40"/><path d="M186.93,492.90 A218.17,218.17 0 0 1 183.11,469.59" stroke="#333333" stroke-width="1.40"/><line x1="183.11" y1="469.59" x2="96.35" y2="479.02" stroke="#333333" stroke-width="1.40"/><path d="M436.28,421.76 A43.63,43.63 0 0 0 424.97,410.22" stroke="#333333" stroke-width="1.40"/><line x1="424.97" y1="410.22" x2="449.95" y2="374.44" stroke="#333333" stroke-width="1.40"/><path d="M436.28,421.76 A43.63,43.63 0 0 1 442.61,436.62" stroke="#333333" stroke-width="1.40"/><line x1="442.61" y1="436.62" x2="698.30" y2="380.34" stroke="#333333" stroke-width="1.40"/><path d="M449.95,374.44 A87.27,87.27 0 0 0 416.45,360.29" stroke="#333333" stroke-width="1.40"/><line x1="416.45" y1="360.29" x2="424.67" y2="317.44" stroke="#333333" stroke-width="1.40"/><path d="M449.95,374.44 A87.27,87.27 0 0 1 474.78,401.01" stroke="#333333" stroke-width="1.40"/><line x1="474.78" y1="401.01" x2="512.17" y2="378.51" stroke="#333333" stroke-width="1.40"/><path d="M424.67,317.44 A130.90,130.90 0 0 0 371.86,318.16" stroke="#333333" stroke-width="1.40"/><line x1="371.86" y1="318.16" x2="362.48" y2="275.54" stroke="#333333" stroke-width="1.40"/><path d="M424.67,317.44 A130.90,130.90 0 0 1 473.46,337.65" stroke="#333333" stroke-width="1.40"/><line x1="473.46" y1="337.65" x2="497.95" y2="301.54" stroke="#333333" stroke-width="1.40"/><path d="M362.48,275.54 A174.54,174.54 0 0 0 310.02,296.45" stroke="#333333" stroke-width="1.40"/><line x1="310.02" y1="296.45" x2="287.52" y2="259.06" stroke="#333333" stroke-width="1.40"/><path d="M362.48,275.54 A174.54,174.54 0 0 1 418.87,272.49" stroke="#333333" stroke-width="1.40"/><line x1="418.87" y1="272.49" x2="423.59" y2="229.11" stroke="#333333" stroke-width="1.40"/><path d="M287.52,259.06 A218.17,218.17 0 0 0 258.76,279.72" stroke="#333333" stroke-width="1.40"/><line x1="258.76" y1="279.72" x2="230.51" y2="246.46" stroke="#333333" stroke-width="1.40"/><path d="M287.52,259.06 A218.17,218.17 0 0 1 319.25,243.32" stroke="#333333" stroke-width="1.40"/><line x1="319.25" y1="243.32" x2="286.95" y2="162.25" stroke="#333333" stroke-width="1.40"/><path d="M230.51,246.46 A261.81,261.81 0 0 0 209.93,265.96" stroke="#333333" stroke-width="1.40"/><line x1="209.93" y1="265.96" x2="178.25" y2="235.95" stroke="#333333" stroke-width="1.40"/><path d="M230.51,246.46 A261.81,261.81 0 0 1 253.08,229.31" stroke="#333333" stroke-width="1.40"/><line x1="253.08" y1="229.31" x2="228.59" y2="193.19" stroke="#333333" stroke-width="1.40"/><path d="M423.59,229.11 A218.17,218.17 0 0 0 388.19,228.15" stroke="#333333" stroke-width="1.40"/><line x1="388.19" y1="228.15" x2="385.83" y2="184.58" stroke="#333333" stroke-width="1.40"/><path d="M423.59,229.11 A218.17,218.17 0 0 1 458.37,235.78" stroke="#333333" stroke-width="1.40"/><line x1="458.37" y1="235.78" x2="481.71" y2="151.69" stroke="#333333" stroke-width="1.40"/><path d="M385.83,184.58 A261.81,261.81 0 0 0 357.64,187.64" stroke="#333333" stroke-width="1.40"/><line x1="357.64" y1="187.64" x2="350.59" y2="144.58" stroke="#333333" stroke-width="1.40"/><path d="M385.83,184.58 A261.81,261.81 0 0 1 414.17,184.58" stroke="#333333" stroke-width="1.40"/><line x1="414.17" y1="184.58" x2="416.54" y2="141.01" stroke="#333333" stroke-width="1.40"/><path d="M497.95,301.54 A174.54,174.54 0 0 0 481.75,291.79" stroke="#333333" stroke-width="1.40"/><line x1="481.75" y1="291.79" x2="543.07" y2="176.14" stroke="#333333" stroke-width="1.40"/><path d="M497.95,301.54 A174.54,174.54 0 0 1 512.99,312.97" stroke="#333333" stroke-width="1.40"/><line x1="512.99" y1="312.97" x2="597.74" y2="213.21" stroke="#333333" stroke-width="1.40"/><path d="M512.17,378.51 A130.90,130.90 0 0 0 504.21,366.78" stroke="#333333" stroke-width="1.40"/><line x1="504.21" y1="366.78" x2="643.16" y2="261.16" stroke="#333333" stroke-width="1.40"/><path d="M512.17,378.51 A130.90,130.90 0 0 1 518.80,391.04" stroke="#333333" stroke-width="1.40"/><line x1="518.80" y1="391.04" x2="677.21" y2="317.75" stroke="#333333" stroke-width="1.40"/></g><text x="711.44" y="446.00" font-size="11.0" fill="#222222" text-anchor="start" dominant-baseline="central" transform="rotate(0.00 711.44 446.00)">F2a2457T</text><path d="M782.26,409.45 A384.00,384.00 0 0 1 782.26,482.55 L770.31,481.41 A372.00,372.00 0 0 0 770.31,410.59 Z" fill="#a196c7" stroke="#666666" stroke-width="0.5"/><text x="704.16" y="512.95" font-size="11.0" fill="#222222" text-anchor="start" dominant-baseline="central" transform="rotate(12.41 704.16 512.95)">F5b8401</text><path d="M781.18,492.48 A384.00,384.00 0 0 1 765.46,563.87 L754.04,560.19 A372.00,372.00 0 0 0 769.27,491.02 Z" fill="#a399c9" stroke="#666666" stroke-width="0.5"/><text x="682.66" y="576.77" font-size="11.0" fill="#222222" text-anchor="start" dominant-baseline="central" transform="rotate(24.83 682.66 576.77)">F2a301</text><path d="M762.27,573.33 A384.00,384.00 0 0 1 731.58,639.68 L721.22,633.63 A372.00,372.00 0 0 0 750.95,569.35 Z" fill="#afa7cf" stroke="#666666" stroke-width="0.5"/><text x="647.94" y="634.48" font-size="11.0" fill="#222222" text-anchor="start" dominant-baseline="central" transform="rotate(37.24 647.94 634.48)">B18BS512</text><path d="M726.43,648.23 A384.00,384.00 0 0 1 682.19,706.43 L673.37,698.29 A372.00,372.00 0 0 0 716.23,641.91 Z" fill="#ada4ce" stroke="#666666" stroke-width="0.5"/><text x="601.62" y="683.37" font-size="11.0" fill="#222222" text-anchor="start" dominant-baseline="central" transform="rotate(49.66 601.62 683.37)">B4Sb227</text><path d="M675.33,713.68 A384.00,384.00 0 0 1 619.61,761.00 L612.75,751.16 A372.00,372.00 0 0 0 666.72,705.31 Z" fill="#a399c8" stroke="#666666" stroke-width="0.5"/><text x="545.88" y="721.16" font-size="11.0" fill="#222222" text-anchor="start" dominant-baseline="central" transform="rotate(62.07 545.88 721.16)">D1Sd197</text><path d="M611.35,766.61 A384.00,384.00 0 0 1 546.76,800.85 L542.17,789.76 A372.00,372.00 0 0 0 604.74,756.59 Z" fill="#a298c8" stroke="#666666" stroke-width="0.5"/><text x="483.32" y="746.09" font-size="11.0" fill="#222222" text-anchor="start" dominant-baseline="central" transform="rotate(74.48 483.32 746.09)">IAI39</text><path d="M537.48,804.54 A384.00,384.00 0 0 1 467.05,824.10 L464.95,812.29 A372.00,372.00 0 0 0 533.19,793.34 Z" fill="#b2a9d1" stroke="#666666" stroke-width="0.5"/><text x="416.86" y="756.98" font-size="11.0" fill="#222222" text-anchor="start" dominant-baseline="central" transform="rotate(86.90 416.86 756.98)">SMS35</text><path d="M457.19,825.72 A384.00,384.00 0 0 1 384.20,829.67 L384.69,817.68 A372.00,372.00 0 0 0 455.41,813.85 Z" fill="#bbb4d6" stroke="#666666" stroke-width="0.5"/><text x="349.61" y="753.34" font-size="11.0" fill="#222222" text-anchor="end" dominant-baseline="central" transform="rotate(279.31 349.61 753.34)">SSSs046</text><path d="M374.23,829.13 A384.00,384.00 0 0 1 302.09,817.31 L305.15,805.70 A372.00,372.00 0 0 0 375.03,817.16 Z" fill="#b2aad1" stroke="#666666" stroke-width="0.5"/><text x="284.72" y="735.32" font-size="11.0" fill="#222222" text-anchor="end" dominant-baseline="central" transform="rotate(291.72 284.72 735.32)">W3110</text><path d="M292.47,814.64 A384.00,384.00 0 0 1 224.56,787.58 L230.04,776.90 A372.00,372.00 0 0 0 295.83,803.12 Z" fill="#bbb4d6" stroke="#666666" stroke-width="0.5"/><text x="225.22" y="703.78" font-size="11.0" fill="#222222" text-anchor="end" dominant-baseline="central" transform="rotate(304.14 225.22 703.78)">APEC01</text><path d="M215.74,782.90 A384.00,384.00 0 0 1 155.23,741.88 L162.88,732.63 A372.00,372.00 0 0 0 221.49,772.37 Z" fill="#9c91c4" stroke="#666666" stroke-width="0.5"/><text x="173.90" y="660.18" font-size="11.0" fill="#222222" text-anchor="end" dominant-baseline="central" transform="rotate(316.55 173.90 660.18)">S88</text><path d="M147.62,735.41 A384.00,384.00 0 0 1 97.35,682.34 L106.80,674.96 A372.00,372.00 0 0 0 155.51,726.37 Z" fill="#9c91c5" stroke="#666666" stroke-width="0.5"/><text x="133.14" y="606.56" font-size="11.0" fill="#222222" text-anchor="end" dominant-baseline="central" transform="rotate(328.97 133.14 606.56)">UTI89</text><path d="M91.31,674.39 A384.00,384.00 0 0 1 53.62,611.75 L64.44,606.57 A372.00,372.00 0 0 0 100.95,667.26 Z" fill="#9c91c4" stroke="#666666" stroke-width="0.5"/><text x="104.86" y="545.44" font-size="11.0" fill="#222222" text-anchor="end" dominant-baseline="central" transform="rotate(341.38 104.86 545.44)">536</text><path d="M49.42,602.69 A384.00,384.00 0 0 1 26.08,533.42 L37.77,530.68 A372.00,372.00 0 0 0 60.38,597.80 Z" fill="#9f94c6" stroke="#666666" stroke-width="0.5"/><text x="90.39" y="479.67" font-size="11.0" fill="#222222" text-anchor="end" dominant-baseline="central" transform="rotate(353.79 90.39 479.67)">CFT073</text><path d="M23.94,523.67 A384.00,384.00 0 0 1 16.03,450.99 L28.03,450.84 A372.00,372.00 0 0 0 35.69,521.24 Z" fill="#9e94c6" stroke="#666666" stroke-width="0.5"/><text x="90.39" y="412.33" font-size="11.0" fill="#222222" text-anchor="end" dominant-baseline="central" transform="rotate(366.21 90.39 412.33)">ED1a</text><path d="M16.03,441.01 A384.00,384.00 0 0 1 23.94,368.33 L35.69,370.76 A372.00,372.00 0 0 0 28.03,441.16 Z" fill="#a399c8" stroke="#666666" stroke-width="0.5"/><text x="104.86" y="346.56" font-size="11.0" fill="#222222" text-anchor="end" dominant-baseline="central" transform="rotate(378.62 104.86 346.56)">E234869</text><path d="M26.08,358.58 A384.00,384.00 0 0 1 49.42,289.31 L60.38,294.20 A372.00,372.00 0 0 0 37.77,361.32 Z" fill="#9b90c4" stroke="#666666" stroke-width="0.5"/><text x="133.14" y="285.44" font-size="11.0" fill="#222222" text-anchor="end" dominant-baseline="central" transform="rotate(391.03 133.14 285.44)">UMN026</text><path d="M53.62,280.25 A384.00,384.00 0 0 1 91.31,217.61 L100.95,224.74 A372.00,372.00 0 0 0 64.44,285.43 Z" fill="#bcb5d6" stroke="#666666" stroke-width="0.5"/><text x="173.90" y="231.82" font-size="11.0" fill="#222222" text-anchor="end" dominant-baseline="central" transform="rotate(403.45 173.90 231.82)">EDL933</text><path d="M97.35,209.66 A384.00,384.00 0 0 1 147.62,156.59 L155.51,165.63 A372.00,372.00 0 0 0 106.80,217.04 Z" fill="#b8b0d4" stroke="#666666" stroke-width="0.5"/><text x="225.22" y="188.22" font-size="11.0" fill="#222222" text-anchor="end" dominant-baseline="central" transform="rotate(415.86 225.22 188.22)">Sakai</text><path d="M155.23,150.12 A384.00,384.00 0 0 1 215.74,109.10 L221.49,119.63 A372.00,372.00 0 0 0 162.88,159.37 Z" fill="#aea6cf" stroke="#666666" stroke-width="0.5"/><text x="284.72" y="156.68" font-size="11.0" fill="#222222" text-anchor="end" dominant-baseline="central" transform="rotate(428.28 284.72 156.68)">CB9615</text><path d="M224.56,104.42 A384.00,384.00 0 0 1 292.47,77.36 L295.83,88.88 A372.00,372.00 0 0 0 230.04,115.10 Z" fill="#b4acd2" stroke="#666666" stroke-width="0.5"/><text x="349.61" y="138.66" font-size="11.0" fill="#222222" text-anchor="end" dominant-baseline="central" transform="rotate(440.69 349.61 138.66)">E24377A</text><path d="M302.09,74.69 A384.00,384.00 0 0 1 374.23,62.87 L375.03,74.84 A372.00,372.00 0 0 0 305.15,86.30 Z" fill="#c8c2dd" stroke="#666666" stroke-width="0.5"/><text x="416.86" y="135.02" font-size="11.0" fill="#222222" text-anchor="start" dominant-baseline="central" transform="rotate(273.10 416.86 135.02)">SE11</text><path d="M384.20,62.33 A384.00,384.00 0 0 1 457.19,66.28 L455.41,78.15 A372.00,372.00 0 0 0 384.69,74.32 Z" fill="#c0b9d8" stroke="#666666" stroke-width="0.5"/><text x="483.32" y="145.91" font-size="11.0" fill="#222222" text-anchor="start" dominant-baseline="central" transform="rotate(285.52 483.32 145.91)">IAI1</text><path d="M467.05,67.90 A384.00,384.00 0 0 1 537.48,87.46 L533.19,98.66 A372.00,372.00 0 0 0 464.95,79.71 Z" fill="#c5bfdb" stroke="#666666" stroke-width="0.5"/><text x="545.88" y="170.84" font-size="11.0" fill="#222222" text-anchor="start" dominant-baseline="central" transform="rotate(297.93 545.88 170.84)">ATCC8739</text><path d="M546.76,91.15 A384.00,384.00 0 0 1 611.35,125.39 L604.74,135.41 A372.00,372.00 0 0 0 542.17,102.24 Z" fill="#cec9e0" stroke="#666666" stroke-width="0.5"/><text x="601.62" y="208.63" font-size="11.0" fill="#222222" text-anchor="start" dominant-baseline="central" transform="rotate(310.34 601.62 208.63)">HS</text><path d="M619.61,131.00 A384.00,384.00 0 0 1 675.33,178.32 L666.72,186.69 A372.00,372.00 0 0 0 612.75,140.84 Z" fill="#cfcae1" stroke="#666666" stroke-width="0.5"/><text x="647.94" y="257.52" font-size="11.0" fill="#222222" text-anchor="start" dominant-baseline="central" transform="rotate(322.76 647.94 257.52)">DH10B</text><path d="M682.19,185.57 A384.00,384.00 0 0 1 726.43,243.77 L716.23,250.09 A372.00,372.00 0 0 0 673.37,193.71 Z" fill="#c1bbd9" stroke="#666666" stroke-width="0.5"/><text x="682.66" y="315.23" font-size="11.0" fill="#222222" text-anchor="start" dominant-baseline="central" transform="rotate(335.17 682.66 315.23)">MG1655</text><path d="M731.58,252.32 A384.00,384.00 0 0 1 762.27,318.67 L750.95,322.65 A372.00,372.00 0 0 0 721.22,258.37 Z" fill="#bfb9d8" stroke="#666666" stroke-width="0.5"/><text x="704.16" y="379.05" font-size="11.0" fill="#222222" text-anchor="start" dominant-baseline="central" transform="rotate(347.59 704.16 379.05)">BW2952</text><path d="M765.46,328.13 A384.00,384.00 0 0 1 781.18,399.52 L769.27,400.98 A372.00,372.00 0 0 0 754.04,331.81 Z" fill="#bfb9d8" stroke="#666666" stroke-width="0.5"/><defs><linearGradient id="halo-scale" x1="0" x2="1" y1="0" y2="0"><stop offset="0.000" stop-color="#b35806"/><stop offset="0.100" stop-color="#cc761d"/><stop offset="0.200" stop-color="#e59434"/><stop offset="0.300" stop-color="#f2b465"/><stop offset="0.400" stop-color="#f5d5ae"/><stop offset="0.500" stop-color="#f7f7f7"/><stop offset="0.600" stop-color="#d1cde2"/><stop offset="0.700" stop-color="#aca3cd"/><stop offset="0.800" stop-color="#8b79b7"/><stop offset="0.900" stop-color="#7050a0"/><stop offset="1.000" stop-color="#542788"/></linearGradient></defs><text x="12" y="863.0" font-size="11" fill="#222222">Halo value</text><rect x="90" y="854.0" width="120" height="10" fill="url(#halo-scale)" stroke="#666666" stroke-width="0.5"/><text x="90" y="876.0" font-size="10" fill="#222222" text-anchor="middle">0</text><text x="150" y="876.0" font-size="10" fill="#222222" text-anchor="middle">0.5</text><text x="210" y="876.0" font-size="10" fill="#222222" text-anchor="middle">1</text><circle cx="238" cy="859.0" r="2.6" fill="#222222"/><text x="246" y="863.0" font-size="11" fill="#222222">halo value below 0.6</text><text x="12" y="896.0" font-size="10" fill="#555555">Unrooted tree, drawn rooted at the midpoint of its longest path. Branch lengths are not drawn.</text><text x="400.0" y="446.0" font-size="35.9" font-weight="bold" fill="#c0392b" fill-opacity="0.22" text-anchor="middle" dominant-baseline="central" transform="rotate(-30 400.0 446.0)">PROVISIONAL — 98% of quartets</text><text x="788.0" y="20" font-size="12" font-weight="bold" fill="#c0392b" text-anchor="end">PROVISIONAL — 98% of quartets</text></svg>
