<svg xmlns="http://www.w3.org/2000/svg" width="804" height="1004" viewBox="0 0 804 1004" font-family="sans-serif"><rect width="804" height="1004" fill="#ffffff"/><text x="12" y="20.0" font-size="15" font-weight="bold" fill="#222222">Quartet Halo Tree: coronavirus_seed1</text><text x="12" y="38.0" font-size="12" font-weight="normal" fill="#222222">34 taxa, 46,376 quartets; W2-sym, W2c 100 resamples, S2 100 replicates, strand filter on, MAW lengths by entropy, seed 1</text><text x="12" y="56.0" font-size="12" font-weight="normal" fill="#222222">Run of 2026-10-09 (UTC), Q-MAWS 0.0.0</text><g fill="none" stroke-linecap="round"><line x1="402.00" y1="466.00" x2="380.36" y2="469.55" stroke="#440154" stroke-width="4.00"/><line x1="402.00" y1="466.00" x2="421.47" y2="455.92" stroke="#440154" stroke-width="4.00"/><path d="M380.36,469.55 A21.92,21.92 0 0 0 382.86,476.70" stroke="#461768" stroke-width="3.78"/><line x1="382.86" y1="476.70" x2="363.72" y2="487.39" stroke="#461768" stroke-width="3.78"/><path d="M380.36,469.55 A21.92,21.92 0 0 1 380.45,461.97" stroke="#555555" stroke-width="1.20"/><line x1="380.45" y1="461.97" x2="186.49" y2="425.71" stroke="#555555" stroke-width="1.20"/><path d="M363.72,487.39 A43.85,43.85 0 0 0 375.68,501.07" stroke="#44347e" stroke-width="3.46"/><line x1="375.68" y1="501.07" x2="362.52" y2="518.60" stroke="#44347e" stroke-width="3.46"/><path d="M363.72,487.39 A43.85,43.85 0 0 1 358.34,470.05" stroke="#277f8e" stroke-width="2.48"/><line x1="358.34" y1="470.05" x2="336.51" y2="472.07" stroke="#277f8e" stroke-width="2.48"/><path d="M362.52,518.60 A65.77,65.77 0 0 0 390.29,530.72" stroke="#3f4487" stroke-width="3.27"/><line x1="390.29" y1="530.72" x2="386.38" y2="552.29" stroke="#3f4487" stroke-width="3.27"/><path d="M362.52,518.60 A65.77,65.77 0 0 1 343.12,495.32" stroke="#277f8e" stroke-width="2.48"/><line x1="343.12" y1="495.32" x2="323.50" y2="505.09" stroke="#277f8e" stroke-width="2.48"/><path d="M386.38,552.29 A87.70,87.70 0 0 0 434.62,547.40" stroke="#3d4c8a" stroke-width="3.17"/><line x1="434.62" y1="547.40" x2="442.78" y2="567.75" stroke="#3d4c8a" stroke-width="3.17"/><path d="M386.38,552.29 A87.70,87.70 0 0 1 342.92,530.81" stroke="#3f4687" stroke-width="3.25"/><line x1="342.92" y1="530.81" x2="328.15" y2="547.01" stroke="#3f4687" stroke-width="3.25"/><path d="M442.78,567.75 A109.62,109.62 0 0 0 484.69,537.96" stroke="#45307c" stroke-width="3.51"/><line x1="484.69" y1="537.96" x2="501.23" y2="552.35" stroke="#45307c" stroke-width="3.51"/><path d="M442.78,567.75 A109.62,109.62 0 0 1 391.89,575.15" stroke="#3c4d8a" stroke-width="3.16"/><line x1="391.89" y1="575.15" x2="389.86" y2="596.98" stroke="#3c4d8a" stroke-width="3.16"/><path d="M501.23,552.35 A131.54,131.54 0 0 0 516.92,530.01" stroke="#440557" stroke-width="3.96"/><line x1="516.92" y1="530.01" x2="536.07" y2="540.68" stroke="#440557" stroke-width="3.96"/><path d="M501.23,552.35 A131.54,131.54 0 0 1 481.27,570.97" stroke="#555555" stroke-width="1.20"/><line x1="481.27" y1="570.97" x2="534.12" y2="640.96" stroke="#555555" stroke-width="1.20"/><path d="M536.07,540.68 A153.47,153.47 0 0 0 549.61,508.00" stroke="#440355" stroke-width="3.98"/><line x1="549.61" y1="508.00" x2="570.70" y2="514.00" stroke="#440355" stroke-width="3.98"/><path d="M536.07,540.68 A153.47,153.47 0 0 1 515.41,569.39" stroke="#555555" stroke-width="1.20"/><line x1="515.41" y1="569.39" x2="564.02" y2="613.70" stroke="#555555" stroke-width="1.20"/><path d="M570.70,514.00 A175.39,175.39 0 0 0 576.64,482.18" stroke="#440457" stroke-width="3.97"/><line x1="576.64" y1="482.18" x2="598.47" y2="484.21" stroke="#440457" stroke-width="3.97"/><path d="M570.70,514.00 A175.39,175.39 0 0 1 559.00,544.18" stroke="#440356" stroke-width="3.98"/><line x1="559.00" y1="544.18" x2="578.63" y2="553.95" stroke="#440356" stroke-width="3.98"/><path d="M598.47,484.21 A197.32,197.32 0 0 0 599.32,466.00" stroke="#555555" stroke-width="1.20"/><line x1="599.32" y1="466.00" x2="621.24" y2="466.00" stroke="#555555" stroke-width="1.20"/><path d="M598.47,484.21 A197.32,197.32 0 0 1 595.96,502.26" stroke="#555555" stroke-width="1.20"/><line x1="595.96" y1="502.26" x2="617.51" y2="506.29" stroke="#555555" stroke-width="1.20"/><path d="M578.63,553.95 A197.32,197.32 0 0 0 585.99,537.28" stroke="#555555" stroke-width="1.20"/><line x1="585.99" y1="537.28" x2="606.44" y2="545.20" stroke="#555555" stroke-width="1.20"/><path d="M578.63,553.95 A197.32,197.32 0 0 1 569.76,569.87" stroke="#555555" stroke-width="1.20"/><line x1="569.76" y1="569.87" x2="588.40" y2="581.41" stroke="#555555" stroke-width="1.20"/><path d="M389.86,596.98 A131.54,131.54 0 0 0 426.17,595.30" stroke="#440255" stroke-width="3.99"/><line x1="426.17" y1="595.30" x2="430.20" y2="616.85" stroke="#440255" stroke-width="3.99"/><path d="M389.86,596.98 A131.54,131.54 0 0 1 354.48,588.66" stroke="#287e8e" stroke-width="2.49"/><line x1="354.48" y1="588.66" x2="346.56" y2="609.10" stroke="#287e8e" stroke-width="2.49"/><path d="M430.20,616.85 A153.47,153.47 0 0 0 457.44,609.10" stroke="#440154" stroke-width="4.00"/><line x1="457.44" y1="609.10" x2="465.36" y2="629.55" stroke="#440154" stroke-width="4.00"/><path d="M430.20,616.85 A153.47,153.47 0 0 1 402.00,619.47" stroke="#440154" stroke-width="4.00"/><line x1="402.00" y1="619.47" x2="402.00" y2="641.39" stroke="#440154" stroke-width="4.00"/><path d="M465.36,629.55 A175.39,175.39 0 0 0 480.18,623.00" stroke="#555555" stroke-width="1.20"/><line x1="480.18" y1="623.00" x2="499.72" y2="662.26" stroke="#555555" stroke-width="1.20"/><path d="M465.36,629.55 A175.39,175.39 0 0 1 450.00,634.70" stroke="#555555" stroke-width="1.20"/><line x1="450.00" y1="634.70" x2="462.00" y2="676.87" stroke="#555555" stroke-width="1.20"/><path d="M402.00,641.39 A175.39,175.39 0 0 0 418.18,640.64" stroke="#555555" stroke-width="1.20"/><line x1="418.18" y1="640.64" x2="422.23" y2="684.30" stroke="#555555" stroke-width="1.20"/><path d="M402.00,641.39 A175.39,175.39 0 0 1 385.82,640.64" stroke="#555555" stroke-width="1.20"/><line x1="385.82" y1="640.64" x2="381.77" y2="684.30" stroke="#555555" stroke-width="1.20"/><path d="M346.56,609.10 A153.47,153.47 0 0 0 360.00,613.61" stroke="#555555" stroke-width="1.20"/><line x1="360.00" y1="613.61" x2="342.00" y2="676.87" stroke="#555555" stroke-width="1.20"/><path d="M346.56,609.10 A153.47,153.47 0 0 1 333.59,603.38" stroke="#555555" stroke-width="1.20"/><line x1="333.59" y1="603.38" x2="304.28" y2="662.26" stroke="#555555" stroke-width="1.20"/><path d="M328.15,547.01 A109.62,109.62 0 0 0 335.94,553.48" stroke="#555555" stroke-width="1.20"/><line x1="335.94" y1="553.48" x2="269.88" y2="640.96" stroke="#555555" stroke-width="1.20"/><path d="M328.15,547.01 A109.62,109.62 0 0 1 320.99,539.85" stroke="#555555" stroke-width="1.20"/><line x1="320.99" y1="539.85" x2="239.98" y2="613.70" stroke="#555555" stroke-width="1.20"/><path d="M323.50,505.09 A87.70,87.70 0 0 0 327.44,512.17" stroke="#555555" stroke-width="1.20"/><line x1="327.44" y1="512.17" x2="215.60" y2="581.41" stroke="#555555" stroke-width="1.20"/><path d="M323.50,505.09 A87.70,87.70 0 0 1 320.23,497.68" stroke="#555555" stroke-width="1.20"/><line x1="320.23" y1="497.68" x2="197.56" y2="545.20" stroke="#555555" stroke-width="1.20"/><path d="M336.51,472.07 A65.77,65.77 0 0 0 337.35,478.09" stroke="#555555" stroke-width="1.20"/><line x1="337.35" y1="478.09" x2="186.49" y2="506.29" stroke="#555555" stroke-width="1.20"/><path d="M336.51,472.07 A65.77,65.77 0 0 1 336.23,466.00" stroke="#555555" stroke-width="1.20"/><line x1="336.23" y1="466.00" x2="182.76" y2="466.00" stroke="#555555" stroke-width="1.20"/><path d="M421.47,455.92 A21.92,21.92 0 0 0 417.74,450.73" stroke="#440557" stroke-width="3.96"/><line x1="417.74" y1="450.73" x2="433.47" y2="435.47" stroke="#440557" stroke-width="3.96"/><path d="M421.47,455.92 A21.92,21.92 0 0 1 423.55,461.97" stroke="#555555" stroke-width="1.20"/><line x1="423.55" y1="461.97" x2="617.51" y2="425.71" stroke="#555555" stroke-width="1.20"/><path d="M433.47,435.47 A43.85,43.85 0 0 0 419.07,425.61" stroke="#450f61" stroke-width="3.86"/><line x1="419.07" y1="425.61" x2="427.61" y2="405.42" stroke="#450f61" stroke-width="3.86"/><path d="M433.47,435.47 A43.85,43.85 0 0 1 442.89,450.16" stroke="#555555" stroke-width="1.20"/><line x1="442.89" y1="450.16" x2="606.44" y2="386.80" stroke="#555555" stroke-width="1.20"/><path d="M427.61,405.42 A65.77,65.77 0 0 0 396.88,400.43" stroke="#45337d" stroke-width="3.48"/><line x1="396.88" y1="400.43" x2="395.17" y2="378.57" stroke="#45337d" stroke-width="3.48"/><path d="M427.61,405.42 A65.77,65.77 0 0 1 452.60,423.98" stroke="#3d4b89" stroke-width="3.19"/><line x1="452.60" y1="423.98" x2="469.47" y2="409.98" stroke="#3d4b89" stroke-width="3.19"/><path d="M395.17,378.57 A87.70,87.70 0 0 0 363.36,387.27" stroke="#3e4a89" stroke-width="3.20"/><line x1="363.36" y1="387.27" x2="353.71" y2="367.59" stroke="#3e4a89" stroke-width="3.20"/><path d="M395.17,378.57 A87.70,87.70 0 0 1 427.94,382.23" stroke="#3b518a" stroke-width="3.11"/><line x1="427.94" y1="382.23" x2="434.43" y2="361.29" stroke="#3b518a" stroke-width="3.11"/><path d="M353.71,367.59 A109.62,109.62 0 0 0 336.95,377.76" stroke="#404286" stroke-width="3.29"/><line x1="336.95" y1="377.76" x2="323.94" y2="360.12" stroke="#404286" stroke-width="3.29"/><path d="M353.71,367.59 A109.62,109.62 0 0 1 372.00,360.56" stroke="#555555" stroke-width="1.20"/><line x1="372.00" y1="360.56" x2="342.00" y2="255.13" stroke="#555555" stroke-width="1.20"/><path d="M323.94,360.12 A131.54,131.54 0 0 0 306.86,375.16" stroke="#3e4788" stroke-width="3.24"/><line x1="306.86" y1="375.16" x2="291.00" y2="360.02" stroke="#3e4788" stroke-width="3.24"/><path d="M323.94,360.12 A131.54,131.54 0 0 1 343.37,348.25" stroke="#555555" stroke-width="1.20"/><line x1="343.37" y1="348.25" x2="304.28" y2="269.74" stroke="#555555" stroke-width="1.20"/><path d="M291.00,360.02 A153.47,153.47 0 0 0 275.39,379.27" stroke="#3c4f8a" stroke-width="3.14"/><line x1="275.39" y1="379.27" x2="257.30" y2="366.88" stroke="#3c4f8a" stroke-width="3.14"/><path d="M291.00,360.02 A153.47,153.47 0 0 1 309.51,343.53" stroke="#555555" stroke-width="1.20"/><line x1="309.51" y1="343.53" x2="269.88" y2="291.04" stroke="#555555" stroke-width="1.20"/><path d="M257.30,366.88 A175.39,175.39 0 0 0 245.00,387.82" stroke="#3b4f8a" stroke-width="3.13"/><line x1="245.00" y1="387.82" x2="225.37" y2="378.05" stroke="#3b4f8a" stroke-width="3.13"/><path d="M257.30,366.88 A175.39,175.39 0 0 1 272.38,347.84" stroke="#555555" stroke-width="1.20"/><line x1="272.38" y1="347.84" x2="239.98" y2="318.30" stroke="#555555" stroke-width="1.20"/><path d="M225.37,378.05 A197.32,197.32 0 0 0 218.01,394.72" stroke="#555555" stroke-width="1.20"/><line x1="218.01" y1="394.72" x2="197.56" y2="386.80" stroke="#555555" stroke-width="1.20"/><path d="M225.37,378.05 A197.32,197.32 0 0 1 234.24,362.13" stroke="#555555" stroke-width="1.20"/><line x1="234.24" y1="362.13" x2="215.60" y2="350.59" stroke="#555555" stroke-width="1.20"/><path d="M434.43,361.29 A109.62,109.62 0 0 0 417.14,357.43" stroke="#38578b" stroke-width="3.04"/><line x1="417.14" y1="357.43" x2="420.17" y2="335.72" stroke="#38578b" stroke-width="3.04"/><path d="M434.43,361.29 A109.62,109.62 0 0 1 450.86,367.87" stroke="#555555" stroke-width="1.20"/><line x1="450.86" y1="367.87" x2="499.72" y2="269.74" stroke="#555555" stroke-width="1.20"/><path d="M420.17,335.72 A131.54,131.54 0 0 0 402.00,334.46" stroke="#375a8c" stroke-width="3.00"/><line x1="402.00" y1="334.46" x2="402.00" y2="312.53" stroke="#375a8c" stroke-width="3.00"/><path d="M420.17,335.72 A131.54,131.54 0 0 1 438.00,339.48" stroke="#555555" stroke-width="1.20"/><line x1="438.00" y1="339.48" x2="462.00" y2="255.13" stroke="#555555" stroke-width="1.20"/><path d="M402.00,312.53 A153.47,153.47 0 0 0 387.84,313.19" stroke="#555555" stroke-width="1.20"/><line x1="387.84" y1="313.19" x2="381.77" y2="247.70" stroke="#555555" stroke-width="1.20"/><path d="M402.00,312.53 A153.47,153.47 0 0 1 416.16,313.19" stroke="#555555" stroke-width="1.20"/><line x1="416.16" y1="313.19" x2="422.23" y2="247.70" stroke="#555555" stroke-width="1.20"/><path d="M469.47,409.98 A87.70,87.70 0 0 0 461.08,401.19" stroke="#38578b" stroke-width="3.04"/><line x1="461.08" y1="401.19" x2="475.85" y2="384.99" stroke="#38578b" stroke-width="3.04"/><path d="M469.47,409.98 A87.70,87.70 0 0 1 476.56,419.83" stroke="#555555" stroke-width="1.20"/><line x1="476.56" y1="419.83" x2="588.40" y2="350.59" stroke="#555555" stroke-width="1.20"/><path d="M475.85,384.99 A109.62,109.62 0 0 0 468.06,378.52" stroke="#555555" stroke-width="1.20"/><line x1="468.06" y1="378.52" x2="534.12" y2="291.04" stroke="#555555" stroke-width="1.20"/><path d="M475.85,384.99 A109.62,109.62 0 0 1 483.01,392.15" stroke="#555555" stroke-width="1.20"/><line x1="483.01" y1="392.15" x2="564.02" y2="318.30" stroke="#555555" stroke-width="1.20"/></g><text x="627.24" y="466.00" font-size="11.0" fill="#222222" text-anchor="start" dominant-baseline="central" transform="rotate(0.00 627.24 466.00)">2_BCoVL</text><path d="M719.21,440.15 A318.26,318.26 0 0 1 719.21,491.85 L707.25,490.88 A306.26,306.26 0 0 0 707.25,441.12 Z" fill="#9689c0" stroke="#666666" stroke-width="0.5"/><text x="623.40" y="507.39" font-size="11.0" fill="#222222" text-anchor="start" dominant-baseline="central" transform="rotate(10.59 623.40 507.39)">2_BCoV</text><path d="M718.56,498.88 A318.26,318.26 0 0 1 709.06,549.70 L697.48,546.54 A306.26,306.26 0 0 0 706.62,497.64 Z" fill="#9689c0" stroke="#666666" stroke-width="0.5"/><text x="612.03" y="547.37" font-size="11.0" fill="#222222" text-anchor="start" dominant-baseline="central" transform="rotate(21.18 612.03 547.37)">2_BCoVM</text><path d="M707.13,556.48 A318.26,318.26 0 0 1 688.45,604.69 L677.65,599.46 A306.26,306.26 0 0 0 695.62,553.07 Z" fill="#9588c0" stroke="#666666" stroke-width="0.5"/><text x="593.50" y="584.57" font-size="11.0" fill="#222222" text-anchor="start" dominant-baseline="central" transform="rotate(31.76 593.50 584.57)">2_BCoVQ</text><path d="M685.30,611.01 A318.26,318.26 0 0 1 658.09,654.97 L648.43,647.84 A306.26,306.26 0 0 0 674.62,605.54 Z" fill="#9689c0" stroke="#666666" stroke-width="0.5"/><text x="568.45" y="617.74" font-size="11.0" fill="#222222" text-anchor="start" dominant-baseline="central" transform="rotate(42.35 568.45 617.74)">2_HCoV-OC43</text><path d="M653.83,660.60 A318.26,318.26 0 0 1 619.01,698.81 L610.82,690.03 A306.26,306.26 0 0 0 644.34,653.26 Z" fill="#9689c0" stroke="#666666" stroke-width="0.5"/><text x="537.74" y="645.75" font-size="11.0" fill="#222222" text-anchor="start" dominant-baseline="central" transform="rotate(52.94 537.74 645.75)">1_HCoV-NL63</text><path d="M613.79,703.56 A318.26,318.26 0 0 1 572.53,734.72 L566.10,724.58 A306.26,306.26 0 0 0 605.80,694.60 Z" fill="#c4bedb" stroke="#666666" stroke-width="0.5"/><text x="502.40" y="667.63" font-size="11.0" fill="#222222" text-anchor="start" dominant-baseline="central" transform="rotate(63.53 502.40 667.63)">2_MHV2</text><path d="M566.53,738.43 A318.26,318.26 0 0 1 520.25,761.48 L515.79,750.33 A306.26,306.26 0 0 0 560.33,728.16 Z" fill="#9c91c5" stroke="#666666" stroke-width="0.5"/><text x="463.64" y="682.64" font-size="11.0" fill="#222222" text-anchor="start" dominant-baseline="central" transform="rotate(74.12 463.64 682.64)">2_MHVP</text><path d="M513.67,764.03 A318.26,318.26 0 0 1 463.95,778.17 L461.61,766.40 A306.26,306.26 0 0 0 509.46,752.79 Z" fill="#9b90c4" stroke="#666666" stroke-width="0.5"/><text x="422.78" y="690.28" font-size="11.0" fill="#222222" text-anchor="start" dominant-baseline="central" transform="rotate(84.71 422.78 690.28)">2_MHVM</text><path d="M457.01,779.47 A318.26,318.26 0 0 1 405.53,784.24 L405.40,772.24 A306.26,306.26 0 0 0 454.93,767.65 Z" fill="#9c91c4" stroke="#666666" stroke-width="0.5"/><text x="381.22" y="690.28" font-size="11.0" fill="#222222" text-anchor="end" dominant-baseline="central" transform="rotate(275.29 381.22 690.28)">2_MHV</text><path d="M398.47,784.24 A318.26,318.26 0 0 1 346.99,779.47 L349.07,767.65 A306.26,306.26 0 0 0 398.60,772.24 Z" fill="#9b91c4" stroke="#666666" stroke-width="0.5"/><text x="340.36" y="682.64" font-size="11.0" fill="#222222" text-anchor="end" dominant-baseline="central" transform="rotate(285.88 340.36 682.64)">1_HCoV-229E</text><path d="M340.05,778.17 A318.26,318.26 0 0 1 290.33,764.03 L294.54,752.79 A306.26,306.26 0 0 0 342.39,766.40 Z" fill="#c6c0dc" stroke="#666666" stroke-width="0.5"/><text x="301.60" y="667.63" font-size="11.0" fill="#222222" text-anchor="end" dominant-baseline="central" transform="rotate(296.47 301.60 667.63)">1_PEDV</text><path d="M283.75,761.48 A318.26,318.26 0 0 1 237.47,738.43 L243.67,728.16 A306.26,306.26 0 0 0 288.21,750.33 Z" fill="#c5bfdb" stroke="#666666" stroke-width="0.5"/><text x="266.26" y="645.75" font-size="11.0" fill="#222222" text-anchor="end" dominant-baseline="central" transform="rotate(307.06 266.26 645.75)">3_IBV</text><path d="M231.47,734.72 A318.26,318.26 0 0 1 190.21,703.56 L198.20,694.60 A306.26,306.26 0 0 0 237.90,724.58 Z" fill="#bbb4d6" stroke="#666666" stroke-width="0.5"/><text x="235.55" y="617.74" font-size="11.0" fill="#222222" text-anchor="end" dominant-baseline="central" transform="rotate(317.65 235.55 617.74)">3_TCoV</text><path d="M184.99,698.81 A318.26,318.26 0 0 1 150.17,660.60 L159.66,653.26 A306.26,306.26 0 0 0 193.18,690.03 Z" fill="#bcb5d6" stroke="#666666" stroke-width="0.5"/><text x="210.50" y="584.57" font-size="11.0" fill="#222222" text-anchor="end" dominant-baseline="central" transform="rotate(328.24 210.50 584.57)">5_HCoV-HKU1</text><path d="M145.91,654.97 A318.26,318.26 0 0 1 118.70,611.01 L129.38,605.54 A306.26,306.26 0 0 0 155.57,647.84 Z" fill="#c3bdda" stroke="#666666" stroke-width="0.5"/><text x="191.97" y="547.37" font-size="11.0" fill="#222222" text-anchor="end" dominant-baseline="central" transform="rotate(338.82 191.97 547.37)">out_CellF</text><path d="M115.55,604.69 A318.26,318.26 0 0 1 96.87,556.48 L108.38,553.07 A306.26,306.26 0 0 0 126.35,599.46 Z" fill="#c2bcda" stroke="#666666" stroke-width="0.5"/><text x="180.60" y="507.39" font-size="11.0" fill="#222222" text-anchor="end" dominant-baseline="central" transform="rotate(349.41 180.60 507.39)">out_HepaCF</text><path d="M94.94,549.70 A318.26,318.26 0 0 1 85.44,498.88 L97.38,497.64 A306.26,306.26 0 0 0 106.52,546.54 Z" fill="#c3bdda" stroke="#666666" stroke-width="0.5"/><text x="176.76" y="466.00" font-size="11.0" fill="#222222" text-anchor="end" dominant-baseline="central" transform="rotate(360.00 176.76 466.00)">out_NyongT</text><path d="M84.79,491.85 A318.26,318.26 0 0 1 84.79,440.15 L96.75,441.12 A306.26,306.26 0 0 0 96.75,490.88 Z" fill="#c2bcda" stroke="#666666" stroke-width="0.5"/><text x="180.60" y="424.61" font-size="11.0" fill="#222222" text-anchor="end" dominant-baseline="central" transform="rotate(370.59 180.60 424.61)">out_RossT</text><path d="M85.44,433.12 A318.26,318.26 0 0 1 94.94,382.30 L106.52,385.46 A306.26,306.26 0 0 0 97.38,434.36 Z" fill="#c4bedb" stroke="#666666" stroke-width="0.5"/><text x="191.97" y="384.63" font-size="11.0" fill="#222222" text-anchor="end" dominant-baseline="central" transform="rotate(381.18 191.97 384.63)">4_SIN2677</text><path d="M96.87,375.52 A318.26,318.26 0 0 1 115.55,327.31 L126.35,332.54 A306.26,306.26 0 0 0 108.38,378.93 Z" fill="#9e94c6" stroke="#666666" stroke-width="0.5"/><text x="210.50" y="347.43" font-size="11.0" fill="#222222" text-anchor="end" dominant-baseline="central" transform="rotate(391.76 210.50 347.43)">4_SIN2774</text><path d="M118.70,320.99 A318.26,318.26 0 0 1 145.91,277.03 L155.57,284.16 A306.26,306.26 0 0 0 129.38,326.46 Z" fill="#9e94c6" stroke="#666666" stroke-width="0.5"/><text x="235.55" y="314.26" font-size="11.0" fill="#222222" text-anchor="end" dominant-baseline="central" transform="rotate(402.35 235.55 314.26)">4_SIN2500</text><path d="M150.17,271.40 A318.26,318.26 0 0 1 184.99,233.19 L193.18,241.97 A306.26,306.26 0 0 0 159.66,278.74 Z" fill="#9f95c6" stroke="#666666" stroke-width="0.5"/><text x="266.26" y="286.25" font-size="11.0" fill="#222222" text-anchor="end" dominant-baseline="central" transform="rotate(412.94 266.26 286.25)">4_SIN2748</text><path d="M190.21,228.44 A318.26,318.26 0 0 1 231.47,197.28 L237.90,207.42 A306.26,306.26 0 0 0 198.20,237.40 Z" fill="#9e94c6" stroke="#666666" stroke-width="0.5"/><text x="301.60" y="264.37" font-size="11.0" fill="#222222" text-anchor="end" dominant-baseline="central" transform="rotate(423.53 301.60 264.37)">4_ZJ01</text><path d="M237.47,193.57 A318.26,318.26 0 0 1 283.75,170.52 L288.21,181.67 A306.26,306.26 0 0 0 243.67,203.84 Z" fill="#a399c8" stroke="#666666" stroke-width="0.5"/><text x="340.36" y="249.36" font-size="11.0" fill="#222222" text-anchor="end" dominant-baseline="central" transform="rotate(434.12 340.36 249.36)">4_SIN2679</text><path d="M290.33,167.97 A318.26,318.26 0 0 1 340.05,153.83 L342.39,165.60 A306.26,306.26 0 0 0 294.54,179.21 Z" fill="#a298c8" stroke="#666666" stroke-width="0.5"/><text x="381.22" y="241.72" font-size="11.0" fill="#222222" text-anchor="end" dominant-baseline="central" transform="rotate(444.71 381.22 241.72)">4_HKU-39849</text><path d="M346.99,152.53 A318.26,318.26 0 0 1 398.47,147.76 L398.60,159.76 A306.26,306.26 0 0 0 349.07,164.35 Z" fill="#a298c8" stroke="#666666" stroke-width="0.5"/><text x="422.78" y="241.72" font-size="11.0" fill="#222222" text-anchor="start" dominant-baseline="central" transform="rotate(275.29 422.78 241.72)">4_TOR2</text><path d="M405.53,147.76 A318.26,318.26 0 0 1 457.01,152.53 L454.93,164.35 A306.26,306.26 0 0 0 405.40,159.76 Z" fill="#a298c8" stroke="#666666" stroke-width="0.5"/><text x="463.64" y="249.36" font-size="11.0" fill="#222222" text-anchor="start" dominant-baseline="central" transform="rotate(285.88 463.64 249.36)">4_TW1</text><path d="M463.95,153.83 A318.26,318.26 0 0 1 513.67,167.97 L509.46,179.21 A306.26,306.26 0 0 0 461.61,165.60 Z" fill="#a197c7" stroke="#666666" stroke-width="0.5"/><text x="502.40" y="264.37" font-size="11.0" fill="#222222" text-anchor="start" dominant-baseline="central" transform="rotate(296.47 502.40 264.37)">4_Urbani</text><path d="M520.25,170.52 A318.26,318.26 0 0 1 566.53,193.57 L560.33,203.84 A306.26,306.26 0 0 0 515.79,181.67 Z" fill="#a59bc9" stroke="#666666" stroke-width="0.5"/><text x="537.74" y="286.25" font-size="11.0" fill="#222222" text-anchor="start" dominant-baseline="central" transform="rotate(307.06 537.74 286.25)">4_Civet007</text><path d="M572.53,197.28 A318.26,318.26 0 0 1 613.79,228.44 L605.80,237.40 A306.26,306.26 0 0 0 566.10,207.42 Z" fill="#9d92c5" stroke="#666666" stroke-width="0.5"/><text x="568.45" y="314.26" font-size="11.0" fill="#222222" text-anchor="start" dominant-baseline="central" transform="rotate(317.65 568.45 314.26)">4_Civet010</text><path d="M619.01,233.19 A318.26,318.26 0 0 1 653.83,271.40 L644.34,278.74 A306.26,306.26 0 0 0 610.82,241.97 Z" fill="#a79ecb" stroke="#666666" stroke-width="0.5"/><text x="593.50" y="347.43" font-size="11.0" fill="#222222" text-anchor="start" dominant-baseline="central" transform="rotate(328.24 593.50 347.43)">4_CUHK-W1</text><path d="M658.09,277.03 A318.26,318.26 0 0 1 685.30,320.99 L674.62,326.46 A306.26,306.26 0 0 0 648.43,284.16 Z" fill="#a197c7" stroke="#666666" stroke-width="0.5"/><text x="612.03" y="384.63" font-size="11.0" fill="#222222" text-anchor="start" dominant-baseline="central" transform="rotate(338.82 612.03 384.63)">4_BJ01</text><path d="M688.45,327.31 A318.26,318.26 0 0 1 707.13,375.52 L695.62,378.93 A306.26,306.26 0 0 0 677.65,332.54 Z" fill="#8f7fbb" stroke="#666666" stroke-width="0.5"/><text x="623.40" y="424.61" font-size="11.0" fill="#222222" text-anchor="start" dominant-baseline="central" transform="rotate(349.41 623.40 424.61)">4_CUHK-Su10</text><path d="M709.06,382.30 A318.26,318.26 0 0 1 718.56,433.12 L706.62,434.36 A306.26,306.26 0 0 0 697.48,385.46 Z" fill="#7d64ab" stroke="#666666" stroke-width="0.5"/><path d="M733.16,439.01 A332.26,332.26 0 0 1 230.23,750.42 L235.40,741.86 A322.26,322.26 0 0 0 723.20,439.83 Z" fill="#e69f00" stroke="#444444" stroke-width="0.4"/><text x="579.02" y="751.89" font-size="11.0" font-style="italic" fill="#222222" text-anchor="start" dominant-baseline="central" transform="rotate(58.24 579.02 751.89)">Clade A</text><path d="M223.97,746.54 A332.26,332.26 0 0 1 139.09,669.16 L147.00,663.04 A322.26,322.26 0 0 0 229.32,738.09 Z" fill="#56b4e9" stroke="#444444" stroke-width="0.4"/><text x="175.46" y="714.50" font-size="11.0" font-style="italic" fill="#222222" text-anchor="end" dominant-baseline="central" transform="rotate(312.35 175.46 714.50)">Clade B</text><path d="M134.65,663.28 A332.26,332.26 0 0 1 83.45,560.47 L93.04,557.62 A322.26,322.26 0 0 0 142.69,657.34 Z" fill="#009e73" stroke="#444444" stroke-width="0.4"/><text x="100.99" y="615.88" font-size="11.0" font-style="italic" fill="#222222" text-anchor="end" dominant-baseline="central" transform="rotate(333.53 100.99 615.88)">Clade C</text><path d="M81.44,553.38 A332.26,332.26 0 0 1 70.84,439.01 L80.80,439.83 A322.26,322.26 0 0 0 91.08,550.75 Z" fill="#f0e442" stroke="#444444" stroke-width="0.4"/><text x="67.17" y="497.03" font-size="11.0" font-style="italic" fill="#222222" text-anchor="end" dominant-baseline="central" transform="rotate(354.71 67.17 497.03)">Clade D</text><path d="M83.45,371.53 A332.26,332.26 0 0 1 573.77,181.58 L568.60,190.14 A322.26,322.26 0 0 0 93.04,374.38 Z" fill="#0072b2" stroke="#444444" stroke-width="0.4"/><text x="280.53" y="152.45" font-size="11.0" font-style="italic" fill="#222222" text-anchor="end" dominant-baseline="central" transform="rotate(428.82 280.53 152.45)">Clade E</text><path d="M580.03,185.46 A332.26,332.26 0 0 1 697.77,314.61 L688.86,319.17 A322.26,322.26 0 0 0 574.68,193.91 Z" fill="#d55e00" stroke="#444444" stroke-width="0.4"/><text x="650.50" y="239.46" font-size="11.0" font-style="italic" fill="#222222" text-anchor="start" dominant-baseline="central" transform="rotate(317.65 650.50 239.46)">Clade F</text><defs><linearGradient id="halo-scale" x1="0" x2="1" y1="0" y2="0"><stop offset="0.000" stop-color="#b35806"/><stop offset="0.100" stop-color="#cc761d"/><stop offset="0.200" stop-color="#e59434"/><stop offset="0.300" stop-color="#f2b465"/><stop offset="0.400" stop-color="#f5d5ae"/><stop offset="0.500" stop-color="#f7f7f7"/><stop offset="0.600" stop-color="#d1cde2"/><stop offset="0.700" stop-color="#aca3cd"/><stop offset="0.800" stop-color="#8b79b7"/><stop offset="0.900" stop-color="#7050a0"/><stop offset="1.000" stop-color="#542788"/></linearGradient></defs><text x="12" y="885.0" font-size="11" fill="#222222">Halo value</text><rect x="90" y="876.0" width="120" height="10" fill="url(#halo-scale)" stroke="#666666" stroke-width="0.5"/><text x="90" y="898.0" font-size="10" fill="#222222" text-anchor="middle">0</text><text x="150" y="898.0" font-size="10" fill="#222222" text-anchor="middle">0.5</text><text x="210" y="898.0" font-size="10" fill="#222222" text-anchor="middle">1</text><circle cx="238" cy="881.0" r="2.6" fill="#222222"/><text x="246" y="885.0" font-size="11" fill="#222222">halo value below 0.6</text><defs><linearGradient id="support-scale" x1="0" x2="1" y1="0" y2="0"><stop offset="0.000" stop-color="#9cd83b"/><stop offset="0.100" stop-color="#67cb5c"/><stop offset="0.200" stop-color="#3cba75"/><stop offset="0.300" stop-color="#27a783"/><stop offset="0.400" stop-color="#22938b"/><stop offset="0.500" stop-color="#287d8e"/><stop offset="0.600" stop-color="#306a8e"/><stop offset="0.700" stop-color="#3a528a"/><stop offset="0.800" stop-color="#433981"/><stop offset="0.900" stop-color="#471f70"/><stop offset="1.000" stop-color="#440154"/></linearGradient></defs><text x="12" y="917.0" font-size="11" fill="#222222">S1 support</text><rect x="90" y="908.0" width="120" height="10" fill="url(#support-scale)" stroke="#666666" stroke-width="0.5"/><text x="90" y="930.0" font-size="10" fill="#222222" text-anchor="middle">0</text><text x="210" y="930.0" font-size="10" fill="#222222" text-anchor="middle">1</text><text x="236" y="917.0" font-size="11" fill="#222222">(branch colour; width grows with support; grey: no value)</text><text x="12" y="947.0" font-size="11" fill="#222222">Groups (automatic: clades of the tree):</text><rect x="12.0" y="954.0" width="14" height="10" fill="#e69f00" stroke="#444444" stroke-width="0.4"/><text x="32.0" y="963.0" font-size="10" fill="#222222">Clade A</text><rect x="272.0" y="954.0" width="14" height="10" fill="#56b4e9" stroke="#444444" stroke-width="0.4"/><text x="292.0" y="963.0" font-size="10" fill="#222222">Clade B</text><rect x="532.0" y="954.0" width="14" height="10" fill="#009e73" stroke="#444444" stroke-width="0.4"/><text x="552.0" y="963.0" font-size="10" fill="#222222">Clade C</text><rect x="12.0" y="970.0" width="14" height="10" fill="#f0e442" stroke="#444444" stroke-width="0.4"/><text x="32.0" y="979.0" font-size="10" fill="#222222">Clade D</text><rect x="272.0" y="970.0" width="14" height="10" fill="#0072b2" stroke="#444444" stroke-width="0.4"/><text x="292.0" y="979.0" font-size="10" fill="#222222">Clade E</text><rect x="532.0" y="970.0" width="14" height="10" fill="#d55e00" stroke="#444444" stroke-width="0.4"/><text x="552.0" y="979.0" font-size="10" fill="#222222">Clade F</text><text x="12" y="996.0" font-size="10" fill="#555555">Unrooted tree, drawn rooted at the midpoint of its longest path. Branch lengths are not drawn.</text></svg>
