<svg xmlns="http://www.w3.org/2000/svg" width="716" height="592" viewBox="0 0 715.5 592.0" font-family="sans-serif"><rect width="715.5" height="592.0" fill="#ffffff"/><text x="12" y="20.0" font-size="15" font-weight="bold" fill="#222222">Rectangular tree: ecoli_seed3</text><text x="12" y="38.0" font-size="12" font-weight="normal" fill="#222222">29 taxa, 23,751 quartets; W2-sym, W2c 100 resamples, S2 0 replicates, strand filter on, MAW lengths by entropy, seed 3</text><text x="12" y="56.0" font-size="12" font-weight="normal" fill="#222222">Run of 2026-10-09 (UTC), Q-MAWS 0.0.0</text><g fill="none" stroke-linecap="square"><path d="M20.00,275.75 V170.75 H94.29" stroke="#472171" stroke-width="3.68"/><path d="M20.00,275.75 V224.00 H94.29" stroke="#31688e" stroke-width="2.82"/><path d="M20.00,275.75 V432.50 H94.29" stroke="#3c4e8a" stroke-width="3.16"/><path d="M94.29,170.75 V153.50 H168.57" stroke="#45095b" stroke-width="3.92"/><path d="M94.29,170.75 V188.00 H540.00" stroke="#444444" stroke-width="1.20"/><path d="M168.57,153.50 V135.00 H242.86" stroke="#451061" stroke-width="3.85"/><path d="M168.57,153.50 V172.00 H540.00" stroke="#444444" stroke-width="1.20"/><path d="M242.86,135.00 V114.00 H317.14" stroke="#471f70" stroke-width="3.70"/><path d="M242.86,135.00 V156.00 H540.00" stroke="#444444" stroke-width="1.20"/><path d="M317.14,114.00 V96.00 H391.43" stroke="#482878" stroke-width="3.61"/><path d="M317.14,114.00 V132.00 H391.43" stroke="#423c82" stroke-width="3.37"/><path d="M391.43,96.00 V84.00 H465.71" stroke="#45327d" stroke-width="3.49"/><path d="M391.43,96.00 V108.00 H540.00" stroke="#444444" stroke-width="1.20"/><path d="M465.71,84.00 V76.00 H540.00" stroke="#444444" stroke-width="1.20"/><path d="M465.71,84.00 V92.00 H540.00" stroke="#444444" stroke-width="1.20"/><path d="M391.43,132.00 V124.00 H540.00" stroke="#444444" stroke-width="1.20"/><path d="M391.43,132.00 V140.00 H540.00" stroke="#444444" stroke-width="1.20"/><path d="M94.29,224.00 V212.00 H168.57" stroke="#365c8c" stroke-width="2.98"/><path d="M94.29,224.00 V236.00 H540.00" stroke="#444444" stroke-width="1.20"/><path d="M168.57,212.00 V204.00 H540.00" stroke="#444444" stroke-width="1.20"/><path d="M168.57,212.00 V220.00 H540.00" stroke="#444444" stroke-width="1.20"/><path d="M94.29,432.50 V362.00 H168.57" stroke="#433981" stroke-width="3.40"/><path d="M94.29,432.50 V503.00 H168.57" stroke="#34608d" stroke-width="2.93"/><path d="M168.57,362.00 V328.00 H242.86" stroke="#44347e" stroke-width="3.46"/><path d="M168.57,362.00 V396.00 H540.00" stroke="#444444" stroke-width="1.20"/><path d="M242.86,328.00 V290.00 H317.14" stroke="#38588b" stroke-width="3.03"/><path d="M242.86,328.00 V366.00 H317.14" stroke="#3c4d8a" stroke-width="3.16"/><path d="M317.14,290.00 V272.00 H391.43" stroke="#461668" stroke-width="3.78"/><path d="M317.14,290.00 V308.00 H391.43" stroke="#45095b" stroke-width="3.92"/><path d="M391.43,272.00 V260.00 H465.71" stroke="#461163" stroke-width="3.84"/><path d="M391.43,272.00 V284.00 H540.00" stroke="#444444" stroke-width="1.20"/><path d="M465.71,260.00 V252.00 H540.00" stroke="#444444" stroke-width="1.20"/><path d="M465.71,260.00 V268.00 H540.00" stroke="#444444" stroke-width="1.20"/><path d="M391.43,308.00 V300.00 H540.00" stroke="#444444" stroke-width="1.20"/><path d="M391.43,308.00 V316.00 H540.00" stroke="#444444" stroke-width="1.20"/><path d="M317.14,366.00 V352.00 H391.43" stroke="#3f4587" stroke-width="3.27"/><path d="M317.14,366.00 V380.00 H540.00" stroke="#444444" stroke-width="1.20"/><path d="M391.43,352.00 V340.00 H465.71" stroke="#482474" stroke-width="3.65"/><path d="M391.43,352.00 V364.00 H540.00" stroke="#444444" stroke-width="1.20"/><path d="M465.71,340.00 V332.00 H540.00" stroke="#444444" stroke-width="1.20"/><path d="M465.71,340.00 V348.00 H540.00" stroke="#444444" stroke-width="1.20"/><path d="M168.57,503.00 V482.00 H242.86" stroke="#365d8c" stroke-width="2.96"/><path d="M168.57,503.00 V524.00 H540.00" stroke="#444444" stroke-width="1.20"/><path d="M242.86,482.00 V456.00 H317.14" stroke="#3a528a" stroke-width="3.11"/><path d="M242.86,482.00 V508.00 H540.00" stroke="#444444" stroke-width="1.20"/><path d="M317.14,456.00 V432.00 H391.43" stroke="#450b5d" stroke-width="3.90"/><path d="M317.14,456.00 V480.00 H391.43" stroke="#31698e" stroke-width="2.81"/><path d="M391.43,432.00 V420.00 H465.71" stroke="#440557" stroke-width="3.96"/><path d="M391.43,432.00 V444.00 H540.00" stroke="#444444" stroke-width="1.20"/><path d="M465.71,420.00 V412.00 H540.00" stroke="#444444" stroke-width="1.20"/><path d="M465.71,420.00 V428.00 H540.00" stroke="#444444" stroke-width="1.20"/><path d="M391.43,480.00 V468.00 H465.71" stroke="#365d8c" stroke-width="2.97"/><path d="M391.43,480.00 V492.00 H540.00" stroke="#444444" stroke-width="1.20"/><path d="M465.71,468.00 V460.00 H540.00" stroke="#444444" stroke-width="1.20"/><path d="M465.71,468.00 V476.00 H540.00" stroke="#444444" stroke-width="1.20"/></g><text x="92.29" y="167.75" font-size="9" fill="#333333" text-anchor="end">0.89</text><text x="166.57" y="150.50" font-size="9" fill="#333333" text-anchor="end">0.97</text><text x="240.86" y="132.00" font-size="9" fill="#333333" text-anchor="end">0.95</text><text x="315.14" y="111.00" font-size="9" fill="#333333" text-anchor="end">0.90</text><text x="389.43" y="93.00" font-size="9" fill="#333333" text-anchor="end">0.87</text><text x="463.71" y="81.00" font-size="9" fill="#333333" text-anchor="end">0.83</text><text x="389.43" y="129.00" font-size="9" fill="#333333" text-anchor="end">0.79</text><text x="92.29" y="221.00" font-size="9" fill="#333333" text-anchor="end">0.61</text><text x="166.57" y="209.00" font-size="9" fill="#333333" text-anchor="end">0.66</text><text x="92.29" y="429.50" font-size="9" fill="#333333" text-anchor="end">0.72</text><text x="166.57" y="359.00" font-size="9" fill="#333333" text-anchor="end">0.80</text><text x="240.86" y="325.00" font-size="9" fill="#333333" text-anchor="end">0.82</text><text x="315.14" y="287.00" font-size="9" fill="#333333" text-anchor="end">0.68</text><text x="389.43" y="269.00" font-size="9" fill="#333333" text-anchor="end">0.93</text><text x="463.71" y="257.00" font-size="9" fill="#333333" text-anchor="end">0.95</text><text x="389.43" y="305.00" font-size="9" fill="#333333" text-anchor="end">0.97</text><text x="315.14" y="363.00" font-size="9" fill="#333333" text-anchor="end">0.72</text><text x="389.43" y="349.00" font-size="9" fill="#333333" text-anchor="end">0.76</text><text x="463.71" y="337.00" font-size="9" fill="#333333" text-anchor="end">0.88</text><text x="166.57" y="500.00" font-size="9" fill="#333333" text-anchor="end">0.64</text><text x="240.86" y="479.00" font-size="9" fill="#333333" text-anchor="end">0.65</text><text x="315.14" y="453.00" font-size="9" fill="#333333" text-anchor="end">0.70</text><text x="389.43" y="429.00" font-size="9" fill="#333333" text-anchor="end">0.97</text><text x="463.71" y="417.00" font-size="9" fill="#333333" text-anchor="end">0.99</text><text x="389.43" y="477.00" font-size="9" fill="#333333" text-anchor="end">0.60</text><text x="463.71" y="465.00" font-size="9" fill="#333333" text-anchor="end">0.66</text><rect x="544.0" y="71.0" width="10" height="10" fill="#9c91c5" stroke="#666666" stroke-width="0.5"/><text x="558.0" y="76.0" font-size="11" fill="#222222" dominant-baseline="central">APEC01</text><rect x="630.0" y="68.0" width="12" height="16" fill="#e69f00"/><text x="646.0" y="76.0" font-size="10" font-style="italic" fill="#222222" dominant-baseline="central">Clade A</text><rect x="544.0" y="87.0" width="10" height="10" fill="#9c91c4" stroke="#666666" stroke-width="0.5"/><text x="558.0" y="92.0" font-size="11" fill="#222222" dominant-baseline="central">S88</text><rect x="630.0" y="84.0" width="12" height="16" fill="#e69f00"/><text x="646.0" y="92.0" font-size="10" font-style="italic" fill="#222222" dominant-baseline="central">Clade A</text><rect x="544.0" y="103.0" width="10" height="10" fill="#9d92c5" stroke="#666666" stroke-width="0.5"/><text x="558.0" y="108.0" font-size="11" fill="#222222" dominant-baseline="central">UTI89</text><rect x="630.0" y="100.0" width="12" height="16" fill="#e69f00"/><text x="646.0" y="108.0" font-size="10" font-style="italic" fill="#222222" dominant-baseline="central">Clade A</text><rect x="544.0" y="119.0" width="10" height="10" fill="#a39ac9" stroke="#666666" stroke-width="0.5"/><text x="558.0" y="124.0" font-size="11" fill="#222222" dominant-baseline="central">536</text><rect x="630.0" y="116.0" width="12" height="16" fill="#e69f00"/><text x="646.0" y="124.0" font-size="10" font-style="italic" fill="#222222" dominant-baseline="central">Clade A</text><rect x="544.0" y="135.0" width="10" height="10" fill="#9e94c6" stroke="#666666" stroke-width="0.5"/><text x="558.0" y="140.0" font-size="11" fill="#222222" dominant-baseline="central">CFT073</text><rect x="630.0" y="132.0" width="12" height="16" fill="#e69f00"/><text x="646.0" y="140.0" font-size="10" font-style="italic" fill="#222222" dominant-baseline="central">Clade A</text><rect x="544.0" y="151.0" width="10" height="10" fill="#a399c9" stroke="#666666" stroke-width="0.5"/><text x="558.0" y="156.0" font-size="11" fill="#222222" dominant-baseline="central">ED1a</text><rect x="630.0" y="148.0" width="12" height="16" fill="#e69f00"/><text x="646.0" y="156.0" font-size="10" font-style="italic" fill="#222222" dominant-baseline="central">Clade A</text><rect x="544.0" y="167.0" width="10" height="10" fill="#9d93c5" stroke="#666666" stroke-width="0.5"/><text x="558.0" y="172.0" font-size="11" fill="#222222" dominant-baseline="central">E234869</text><rect x="630.0" y="164.0" width="12" height="16" fill="#e69f00"/><text x="646.0" y="172.0" font-size="10" font-style="italic" fill="#222222" dominant-baseline="central">Clade A</text><rect x="544.0" y="183.0" width="10" height="10" fill="#bdb6d7" stroke="#666666" stroke-width="0.5"/><text x="558.0" y="188.0" font-size="11" fill="#222222" dominant-baseline="central">UMN026</text><rect x="630.0" y="180.0" width="12" height="16" fill="#e69f00"/><text x="646.0" y="188.0" font-size="10" font-style="italic" fill="#222222" dominant-baseline="central">Clade A</text><rect x="544.0" y="199.0" width="10" height="10" fill="#c2bcda" stroke="#666666" stroke-width="0.5"/><text x="558.0" y="204.0" font-size="11" fill="#222222" dominant-baseline="central">DH10B</text><rect x="630.0" y="196.0" width="12" height="16" fill="#56b4e9"/><text x="646.0" y="204.0" font-size="10" font-style="italic" fill="#222222" dominant-baseline="central">Clade B</text><rect x="544.0" y="215.0" width="10" height="10" fill="#c3bcda" stroke="#666666" stroke-width="0.5"/><text x="558.0" y="220.0" font-size="11" fill="#222222" dominant-baseline="central">MG1655</text><rect x="630.0" y="212.0" width="12" height="16" fill="#56b4e9"/><text x="646.0" y="220.0" font-size="10" font-style="italic" fill="#222222" dominant-baseline="central">Clade B</text><rect x="544.0" y="231.0" width="10" height="10" fill="#c5bfdb" stroke="#666666" stroke-width="0.5"/><text x="558.0" y="236.0" font-size="11" fill="#222222" dominant-baseline="central">BW2952</text><rect x="630.0" y="228.0" width="12" height="16" fill="#56b4e9"/><text x="646.0" y="236.0" font-size="10" font-style="italic" fill="#222222" dominant-baseline="central">Clade B</text><rect x="544.0" y="247.0" width="10" height="10" fill="#9f95c6" stroke="#666666" stroke-width="0.5"/><text x="558.0" y="252.0" font-size="11" fill="#222222" dominant-baseline="central">F2a2457T</text><rect x="630.0" y="244.0" width="12" height="16" fill="#009e73"/><text x="646.0" y="252.0" font-size="10" font-style="italic" fill="#222222" dominant-baseline="central">Clade C</text><rect x="544.0" y="263.0" width="10" height="10" fill="#a298c8" stroke="#666666" stroke-width="0.5"/><text x="558.0" y="268.0" font-size="11" fill="#222222" dominant-baseline="central">F5b8401</text><rect x="630.0" y="260.0" width="12" height="16" fill="#009e73"/><text x="646.0" y="268.0" font-size="10" font-style="italic" fill="#222222" dominant-baseline="central">Clade C</text><rect x="544.0" y="279.0" width="10" height="10" fill="#b6afd3" stroke="#666666" stroke-width="0.5"/><text x="558.0" y="284.0" font-size="11" fill="#222222" dominant-baseline="central">F2a301</text><rect x="630.0" y="276.0" width="12" height="16" fill="#009e73"/><text x="646.0" y="284.0" font-size="10" font-style="italic" fill="#222222" dominant-baseline="central">Clade C</text><rect x="544.0" y="295.0" width="10" height="10" fill="#bcb5d6" stroke="#666666" stroke-width="0.5"/><text x="558.0" y="300.0" font-size="11" fill="#222222" dominant-baseline="central">IAI39</text><rect x="630.0" y="292.0" width="12" height="16" fill="#009e73"/><text x="646.0" y="300.0" font-size="10" font-style="italic" fill="#222222" dominant-baseline="central">Clade C</text><rect x="544.0" y="311.0" width="10" height="10" fill="#c2bbd9" stroke="#666666" stroke-width="0.5"/><text x="558.0" y="316.0" font-size="11" fill="#222222" dominant-baseline="central">SMS35</text><rect x="630.0" y="308.0" width="12" height="16" fill="#009e73"/><text x="646.0" y="316.0" font-size="10" font-style="italic" fill="#222222" dominant-baseline="central">Clade C</text><rect x="544.0" y="327.0" width="10" height="10" fill="#a9a0cc" stroke="#666666" stroke-width="0.5"/><text x="558.0" y="332.0" font-size="11" fill="#222222" dominant-baseline="central">B18BS512</text><rect x="630.0" y="324.0" width="12" height="16" fill="#f0e442"/><text x="646.0" y="332.0" font-size="10" font-style="italic" fill="#222222" dominant-baseline="central">Clade D</text><rect x="544.0" y="343.0" width="10" height="10" fill="#9f94c6" stroke="#666666" stroke-width="0.5"/><text x="558.0" y="348.0" font-size="11" fill="#222222" dominant-baseline="central">B4Sb227</text><rect x="630.0" y="340.0" width="12" height="16" fill="#f0e442"/><text x="646.0" y="348.0" font-size="10" font-style="italic" fill="#222222" dominant-baseline="central">Clade D</text><rect x="544.0" y="359.0" width="10" height="10" fill="#a096c7" stroke="#666666" stroke-width="0.5"/><text x="558.0" y="364.0" font-size="11" fill="#222222" dominant-baseline="central">D1Sd197</text><rect x="630.0" y="356.0" width="12" height="16" fill="#f0e442"/><text x="646.0" y="364.0" font-size="10" font-style="italic" fill="#222222" dominant-baseline="central">Clade D</text><rect x="544.0" y="375.0" width="10" height="10" fill="#afa7cf" stroke="#666666" stroke-width="0.5"/><text x="558.0" y="380.0" font-size="11" fill="#222222" dominant-baseline="central">SSSs046</text><rect x="630.0" y="372.0" width="12" height="16" fill="#f0e442"/><text x="646.0" y="380.0" font-size="10" font-style="italic" fill="#222222" dominant-baseline="central">Clade D</text><rect x="544.0" y="391.0" width="10" height="10" fill="#bfb9d8" stroke="#666666" stroke-width="0.5"/><text x="558.0" y="396.0" font-size="11" fill="#222222" dominant-baseline="central">W3110</text><rect x="544.0" y="407.0" width="10" height="10" fill="#bdb6d7" stroke="#666666" stroke-width="0.5"/><text x="558.0" y="412.0" font-size="11" fill="#222222" dominant-baseline="central">EDL933</text><rect x="630.0" y="404.0" width="12" height="16" fill="#0072b2"/><text x="646.0" y="412.0" font-size="10" font-style="italic" fill="#222222" dominant-baseline="central">Clade E</text><rect x="544.0" y="423.0" width="10" height="10" fill="#b8b0d4" stroke="#666666" stroke-width="0.5"/><text x="558.0" y="428.0" font-size="11" fill="#222222" dominant-baseline="central">Sakai</text><rect x="630.0" y="420.0" width="12" height="16" fill="#0072b2"/><text x="646.0" y="428.0" font-size="10" font-style="italic" fill="#222222" dominant-baseline="central">Clade E</text><rect x="544.0" y="439.0" width="10" height="10" fill="#bab3d5" stroke="#666666" stroke-width="0.5"/><text x="558.0" y="444.0" font-size="11" fill="#222222" dominant-baseline="central">CB9615</text><rect x="630.0" y="436.0" width="12" height="16" fill="#0072b2"/><text x="646.0" y="444.0" font-size="10" font-style="italic" fill="#222222" dominant-baseline="central">Clade E</text><rect x="544.0" y="455.0" width="10" height="10" fill="#c5bfdb" stroke="#666666" stroke-width="0.5"/><text x="558.0" y="460.0" font-size="11" fill="#222222" dominant-baseline="central">E24377A</text><rect x="630.0" y="452.0" width="12" height="16" fill="#0072b2"/><text x="646.0" y="460.0" font-size="10" font-style="italic" fill="#222222" dominant-baseline="central">Clade E</text><rect x="544.0" y="471.0" width="10" height="10" fill="#bdb6d7" stroke="#666666" stroke-width="0.5"/><text x="558.0" y="476.0" font-size="11" fill="#222222" dominant-baseline="central">SE11</text><rect x="630.0" y="468.0" width="12" height="16" fill="#0072b2"/><text x="646.0" y="476.0" font-size="10" font-style="italic" fill="#222222" dominant-baseline="central">Clade E</text><rect x="544.0" y="487.0" width="10" height="10" fill="#c3bdda" stroke="#666666" stroke-width="0.5"/><text x="558.0" y="492.0" font-size="11" fill="#222222" dominant-baseline="central">IAI1</text><rect x="630.0" y="484.0" width="12" height="16" fill="#0072b2"/><text x="646.0" y="492.0" font-size="10" font-style="italic" fill="#222222" dominant-baseline="central">Clade E</text><rect x="544.0" y="503.0" width="10" height="10" fill="#cbc6df" stroke="#666666" stroke-width="0.5"/><text x="558.0" y="508.0" font-size="11" fill="#222222" dominant-baseline="central">HS</text><rect x="630.0" y="500.0" width="12" height="16" fill="#0072b2"/><text x="646.0" y="508.0" font-size="10" font-style="italic" fill="#222222" dominant-baseline="central">Clade E</text><rect x="544.0" y="519.0" width="10" height="10" fill="#cec9e0" stroke="#666666" stroke-width="0.5"/><text x="558.0" y="524.0" font-size="11" fill="#222222" dominant-baseline="central">ATCC8739</text><rect x="630.0" y="516.0" width="12" height="16" fill="#0072b2"/><text x="646.0" y="524.0" font-size="10" font-style="italic" fill="#222222" dominant-baseline="central">Clade E</text><text x="12" y="552.0" font-size="10" fill="#555555">Square: halo value (orange low, purple high; ● below 0.6). Numbers at nodes: S1. Branch colour and width: S1 (light thin: low; dark thick: high).</text><text x="12" y="568.0" font-size="10" fill="#555555">Unrooted tree, drawn rooted at the midpoint of its longest path; branch lengths are not drawn. Groups: automatic: clades of the tree.</text></svg>
