<svg xmlns="http://www.w3.org/2000/svg" width="939" height="684" viewBox="0 0 938.8 684.0" font-family="sans-serif"><rect width="938.8" height="684.0" fill="#ffffff"/><text x="12" y="20.0" font-size="15" font-weight="bold" fill="#222222">Tanglegram: sim_hgt_0_seed3 against the reference</text><text x="12" y="38.0" font-size="12" font-weight="normal" fill="#222222">nRF 0.533 (32 of 60 splits differ); nQD 0.466 (19051 of 40920 quartets differ); MSD 86 (raw, 33 taxa)</text><text x="12" y="56.0" font-size="12" font-weight="normal" fill="#222222">33 taxa, 40,920 quartets; W2-sym, W2c 100 resamples, S2 0 replicates, strand filter on, MAW lengths by entropy, seed 3</text><text x="12" y="74.0" font-size="12" font-weight="normal" fill="#222222">Run of 2026-10-06 (UTC), Q-MAWS 0.0.0</text><text x="20" y="96.0" font-size="12" font-weight="bold" fill="#222222">Q-MAWS tree</text><text x="918.8" y="96.0" font-size="12" font-weight="bold" fill="#222222" text-anchor="end">AFproject reference tree (sim_hgt)</text><g fill="none" stroke="#333333" stroke-width="1.2"><path d="M20.00,384.00 V271.25 H62.86"/><path d="M20.00,384.00 V496.75 H62.86"/><path d="M62.86,271.25 V193.50 H105.71"/><path d="M62.86,271.25 V349.00 H105.71"/><path d="M105.71,193.50 V148.00 H148.57"/><path d="M105.71,193.50 V239.00 H148.57"/><path d="M148.57,239.00 V212.00 H191.43"/><path d="M148.57,239.00 V266.00 H191.43"/><path d="M191.43,212.00 V194.00 H320.00"/><path d="M191.43,212.00 V230.00 H234.29"/><path d="M234.29,230.00 V218.00 H277.14"/><path d="M234.29,230.00 V242.00 H320.00"/><path d="M277.14,218.00 V210.00 H320.00"/><path d="M277.14,218.00 V226.00 H320.00"/><path d="M191.43,266.00 V258.00 H320.00"/><path d="M191.43,266.00 V274.00 H320.00"/><path d="M148.57,148.00 V126.00 H191.43"/><path d="M148.57,148.00 V170.00 H191.43"/><path d="M191.43,126.00 V114.00 H320.00"/><path d="M191.43,126.00 V138.00 H234.29"/><path d="M234.29,138.00 V130.00 H320.00"/><path d="M234.29,138.00 V146.00 H320.00"/><path d="M191.43,170.00 V162.00 H320.00"/><path d="M191.43,170.00 V178.00 H320.00"/><path d="M105.71,349.00 V314.00 H148.57"/><path d="M105.71,349.00 V384.00 H148.57"/><path d="M148.57,314.00 V298.00 H191.43"/><path d="M148.57,314.00 V330.00 H191.43"/><path d="M191.43,330.00 V322.00 H320.00"/><path d="M191.43,330.00 V338.00 H320.00"/><path d="M191.43,298.00 V290.00 H320.00"/><path d="M191.43,298.00 V306.00 H320.00"/><path d="M148.57,384.00 V366.00 H191.43"/><path d="M148.57,384.00 V402.00 H320.00"/><path d="M191.43,366.00 V354.00 H320.00"/><path d="M191.43,366.00 V378.00 H234.29"/><path d="M234.29,378.00 V370.00 H320.00"/><path d="M234.29,378.00 V386.00 H320.00"/><path d="M62.86,496.75 V444.00 H105.71"/><path d="M62.86,496.75 V549.50 H105.71"/><path d="M105.71,549.50 V522.00 H148.57"/><path d="M105.71,549.50 V577.00 H148.57"/><path d="M148.57,577.00 V562.00 H320.00"/><path d="M148.57,577.00 V592.00 H191.43"/><path d="M191.43,592.00 V578.00 H320.00"/><path d="M191.43,592.00 V606.00 H234.29"/><path d="M234.29,606.00 V594.00 H320.00"/><path d="M234.29,606.00 V618.00 H277.14"/><path d="M277.14,618.00 V610.00 H320.00"/><path d="M277.14,618.00 V626.00 H320.00"/><path d="M148.57,522.00 V506.00 H191.43"/><path d="M148.57,522.00 V538.00 H191.43"/><path d="M191.43,538.00 V530.00 H320.00"/><path d="M191.43,538.00 V546.00 H320.00"/><path d="M191.43,506.00 V498.00 H320.00"/><path d="M191.43,506.00 V514.00 H320.00"/><path d="M105.71,444.00 V426.00 H148.57"/><path d="M105.71,444.00 V462.00 H148.57"/><path d="M148.57,426.00 V418.00 H320.00"/><path d="M148.57,426.00 V434.00 H320.00"/><path d="M148.57,462.00 V450.00 H320.00"/><path d="M148.57,462.00 V474.00 H191.43"/><path d="M191.43,474.00 V466.00 H320.00"/><path d="M191.43,474.00 V482.00 H320.00"/></g><g fill="none" stroke="#333333" stroke-width="1.2"><path d="M918.80,384.88 V257.88 H881.30"/><path d="M918.80,384.88 V378.00 H881.30"/><path d="M918.80,384.88 V518.75 H881.30"/><path d="M881.30,257.88 V217.75 H843.80"/><path d="M881.30,257.88 V298.00 H843.80"/><path d="M843.80,217.75 V189.50 H806.30"/><path d="M843.80,217.75 V246.00 H806.30"/><path d="M806.30,189.50 V169.00 H768.80"/><path d="M806.30,189.50 V210.00 H618.80"/><path d="M768.80,169.00 V144.00 H731.30"/><path d="M768.80,169.00 V194.00 H618.80"/><path d="M731.30,144.00 V122.00 H693.80"/><path d="M731.30,144.00 V166.00 H693.80"/><path d="M693.80,122.00 V114.00 H618.80"/><path d="M693.80,122.00 V130.00 H618.80"/><path d="M693.80,166.00 V154.00 H656.30"/><path d="M693.80,166.00 V178.00 H618.80"/><path d="M656.30,154.00 V146.00 H618.80"/><path d="M656.30,154.00 V162.00 H618.80"/><path d="M806.30,246.00 V234.00 H768.80"/><path d="M806.30,246.00 V258.00 H618.80"/><path d="M768.80,234.00 V226.00 H618.80"/><path d="M768.80,234.00 V242.00 H618.80"/><path d="M843.80,298.00 V282.00 H806.30"/><path d="M843.80,298.00 V314.00 H806.30"/><path d="M806.30,282.00 V274.00 H618.80"/><path d="M806.30,282.00 V290.00 H618.80"/><path d="M806.30,314.00 V306.00 H618.80"/><path d="M806.30,314.00 V322.00 H618.80"/><path d="M881.30,378.00 V358.00 H843.80"/><path d="M881.30,378.00 V398.00 H843.80"/><path d="M843.80,358.00 V346.00 H806.30"/><path d="M843.80,358.00 V370.00 H618.80"/><path d="M806.30,346.00 V338.00 H618.80"/><path d="M806.30,346.00 V354.00 H618.80"/><path d="M843.80,398.00 V386.00 H618.80"/><path d="M843.80,398.00 V410.00 H806.30"/><path d="M806.30,410.00 V402.00 H618.80"/><path d="M806.30,410.00 V418.00 H618.80"/><path d="M881.30,518.75 V487.00 H843.80"/><path d="M881.30,518.75 V550.50 H843.80"/><path d="M843.80,487.00 V460.00 H806.30"/><path d="M843.80,487.00 V514.00 H618.80"/><path d="M806.30,460.00 V442.00 H768.80"/><path d="M806.30,460.00 V478.00 H768.80"/><path d="M768.80,442.00 V434.00 H618.80"/><path d="M768.80,442.00 V450.00 H618.80"/><path d="M768.80,478.00 V466.00 H618.80"/><path d="M768.80,478.00 V490.00 H731.30"/><path d="M731.30,490.00 V482.00 H618.80"/><path d="M731.30,490.00 V498.00 H618.80"/><path d="M843.80,550.50 V530.00 H618.80"/><path d="M843.80,550.50 V571.00 H806.30"/><path d="M806.30,571.00 V546.00 H618.80"/><path d="M806.30,571.00 V596.00 H768.80"/><path d="M768.80,596.00 V574.00 H731.30"/><path d="M768.80,596.00 V618.00 H731.30"/><path d="M731.30,574.00 V562.00 H618.80"/><path d="M731.30,574.00 V586.00 H693.80"/><path d="M693.80,586.00 V578.00 H618.80"/><path d="M693.80,586.00 V594.00 H618.80"/><path d="M731.30,618.00 V610.00 H618.80"/><path d="M731.30,618.00 V626.00 H618.80"/></g><text x="326.0" y="114.0" font-size="11" fill="#222222" dominant-baseline="central">Species13</text><line x1="393.4" y1="114.0" x2="545.4" y2="114.0" stroke="#d55e00" stroke-width="1.6" stroke-dasharray="5 3"/><text x="326.0" y="130.0" font-size="11" fill="#222222" dominant-baseline="central">Species15</text><line x1="393.4" y1="130.0" x2="545.4" y2="146.0" stroke="#999999" stroke-width="1"/><text x="326.0" y="146.0" font-size="11" fill="#222222" dominant-baseline="central">Species27</text><line x1="393.4" y1="146.0" x2="545.4" y2="162.0" stroke="#999999" stroke-width="1"/><text x="326.0" y="162.0" font-size="11" fill="#222222" dominant-baseline="central">Species1</text><line x1="393.4" y1="162.0" x2="545.4" y2="546.0" stroke="#d55e00" stroke-width="1.6" stroke-dasharray="5 3"/><text x="326.0" y="178.0" font-size="11" fill="#222222" dominant-baseline="central">Species10</text><line x1="393.4" y1="178.0" x2="545.4" y2="562.0" stroke="#d55e00" stroke-width="1.6" stroke-dasharray="5 3"/><text x="326.0" y="194.0" font-size="11" fill="#222222" dominant-baseline="central">Species14</text><line x1="393.4" y1="194.0" x2="545.4" y2="178.0" stroke="#d55e00" stroke-width="1.6" stroke-dasharray="5 3"/><text x="326.0" y="210.0" font-size="11" fill="#222222" dominant-baseline="central">Species11</text><line x1="393.4" y1="210.0" x2="545.4" y2="226.0" stroke="#999999" stroke-width="1"/><text x="326.0" y="226.0" font-size="11" fill="#222222" dominant-baseline="central">Species31</text><line x1="393.4" y1="226.0" x2="545.4" y2="242.0" stroke="#999999" stroke-width="1"/><text x="326.0" y="242.0" font-size="11" fill="#222222" dominant-baseline="central">Species28</text><line x1="393.4" y1="242.0" x2="545.4" y2="258.0" stroke="#999999" stroke-width="1"/><text x="326.0" y="258.0" font-size="11" fill="#222222" dominant-baseline="central">Species4</text><line x1="393.4" y1="258.0" x2="545.4" y2="274.0" stroke="#999999" stroke-width="1"/><text x="326.0" y="274.0" font-size="11" fill="#222222" dominant-baseline="central">Species16</text><line x1="393.4" y1="274.0" x2="545.4" y2="290.0" stroke="#999999" stroke-width="1"/><text x="326.0" y="290.0" font-size="11" fill="#222222" dominant-baseline="central">Species9</text><line x1="393.4" y1="290.0" x2="545.4" y2="306.0" stroke="#999999" stroke-width="1"/><text x="326.0" y="306.0" font-size="11" fill="#222222" dominant-baseline="central">Species24</text><line x1="393.4" y1="306.0" x2="545.4" y2="322.0" stroke="#999999" stroke-width="1"/><text x="326.0" y="322.0" font-size="11" fill="#222222" dominant-baseline="central">Species2</text><line x1="393.4" y1="322.0" x2="545.4" y2="338.0" stroke="#999999" stroke-width="1"/><text x="326.0" y="338.0" font-size="11" fill="#222222" dominant-baseline="central">Species21</text><line x1="393.4" y1="338.0" x2="545.4" y2="354.0" stroke="#999999" stroke-width="1"/><text x="326.0" y="354.0" font-size="11" fill="#222222" dominant-baseline="central">Species22</text><line x1="393.4" y1="354.0" x2="545.4" y2="386.0" stroke="#999999" stroke-width="1"/><text x="326.0" y="370.0" font-size="11" fill="#222222" dominant-baseline="central">Species18</text><line x1="393.4" y1="370.0" x2="545.4" y2="402.0" stroke="#999999" stroke-width="1"/><text x="326.0" y="386.0" font-size="11" fill="#222222" dominant-baseline="central">Species32</text><line x1="393.4" y1="386.0" x2="545.4" y2="418.0" stroke="#999999" stroke-width="1"/><text x="326.0" y="402.0" font-size="11" fill="#222222" dominant-baseline="central">Species20</text><line x1="393.4" y1="402.0" x2="545.4" y2="530.0" stroke="#d55e00" stroke-width="1.6" stroke-dasharray="5 3"/><text x="326.0" y="418.0" font-size="11" fill="#222222" dominant-baseline="central">Species3</text><line x1="393.4" y1="418.0" x2="545.4" y2="434.0" stroke="#999999" stroke-width="1"/><text x="326.0" y="434.0" font-size="11" fill="#222222" dominant-baseline="central">Species33</text><line x1="393.4" y1="434.0" x2="545.4" y2="450.0" stroke="#999999" stroke-width="1"/><text x="326.0" y="450.0" font-size="11" fill="#222222" dominant-baseline="central">Species17</text><line x1="393.4" y1="450.0" x2="545.4" y2="466.0" stroke="#999999" stroke-width="1"/><text x="326.0" y="466.0" font-size="11" fill="#222222" dominant-baseline="central">Species19</text><line x1="393.4" y1="466.0" x2="545.4" y2="482.0" stroke="#999999" stroke-width="1"/><text x="326.0" y="482.0" font-size="11" fill="#222222" dominant-baseline="central">Species23</text><line x1="393.4" y1="482.0" x2="545.4" y2="498.0" stroke="#999999" stroke-width="1"/><text x="326.0" y="498.0" font-size="11" fill="#222222" dominant-baseline="central">Species26</text><line x1="393.4" y1="498.0" x2="545.4" y2="130.0" stroke="#d55e00" stroke-width="1.6" stroke-dasharray="5 3"/><text x="326.0" y="514.0" font-size="11" fill="#222222" dominant-baseline="central">Species5</text><line x1="393.4" y1="514.0" x2="545.4" y2="194.0" stroke="#d55e00" stroke-width="1.6" stroke-dasharray="5 3"/><text x="326.0" y="530.0" font-size="11" fill="#222222" dominant-baseline="central">Species6</text><line x1="393.4" y1="530.0" x2="545.4" y2="578.0" stroke="#999999" stroke-width="1"/><text x="326.0" y="546.0" font-size="11" fill="#222222" dominant-baseline="central">Species25</text><line x1="393.4" y1="546.0" x2="545.4" y2="594.0" stroke="#999999" stroke-width="1"/><text x="326.0" y="562.0" font-size="11" fill="#222222" dominant-baseline="central">Species7</text><line x1="393.4" y1="562.0" x2="545.4" y2="370.0" stroke="#d55e00" stroke-width="1.6" stroke-dasharray="5 3"/><text x="326.0" y="578.0" font-size="11" fill="#222222" dominant-baseline="central">Species8</text><line x1="393.4" y1="578.0" x2="545.4" y2="514.0" stroke="#d55e00" stroke-width="1.6" stroke-dasharray="5 3"/><text x="326.0" y="594.0" font-size="11" fill="#222222" dominant-baseline="central">Species12</text><line x1="393.4" y1="594.0" x2="545.4" y2="210.0" stroke="#d55e00" stroke-width="1.6" stroke-dasharray="5 3"/><text x="326.0" y="610.0" font-size="11" fill="#222222" dominant-baseline="central">Species30</text><line x1="393.4" y1="610.0" x2="545.4" y2="610.0" stroke="#999999" stroke-width="1"/><text x="326.0" y="626.0" font-size="11" fill="#222222" dominant-baseline="central">Species29</text><line x1="393.4" y1="626.0" x2="545.4" y2="626.0" stroke="#999999" stroke-width="1"/><text x="612.8" y="114.0" font-size="11" fill="#222222" text-anchor="end" dominant-baseline="central">Species13</text><text x="612.8" y="130.0" font-size="11" fill="#222222" text-anchor="end" dominant-baseline="central">Species26</text><text x="612.8" y="146.0" font-size="11" fill="#222222" text-anchor="end" dominant-baseline="central">Species15</text><text x="612.8" y="162.0" font-size="11" fill="#222222" text-anchor="end" dominant-baseline="central">Species27</text><text x="612.8" y="178.0" font-size="11" fill="#222222" text-anchor="end" dominant-baseline="central">Species14</text><text x="612.8" y="194.0" font-size="11" fill="#222222" text-anchor="end" dominant-baseline="central">Species5</text><text x="612.8" y="210.0" font-size="11" fill="#222222" text-anchor="end" dominant-baseline="central">Species12</text><text x="612.8" y="226.0" font-size="11" fill="#222222" text-anchor="end" dominant-baseline="central">Species11</text><text x="612.8" y="242.0" font-size="11" fill="#222222" text-anchor="end" dominant-baseline="central">Species31</text><text x="612.8" y="258.0" font-size="11" fill="#222222" text-anchor="end" dominant-baseline="central">Species28</text><text x="612.8" y="274.0" font-size="11" fill="#222222" text-anchor="end" dominant-baseline="central">Species4</text><text x="612.8" y="290.0" font-size="11" fill="#222222" text-anchor="end" dominant-baseline="central">Species16</text><text x="612.8" y="306.0" font-size="11" fill="#222222" text-anchor="end" dominant-baseline="central">Species9</text><text x="612.8" y="322.0" font-size="11" fill="#222222" text-anchor="end" dominant-baseline="central">Species24</text><text x="612.8" y="338.0" font-size="11" fill="#222222" text-anchor="end" dominant-baseline="central">Species2</text><text x="612.8" y="354.0" font-size="11" fill="#222222" text-anchor="end" dominant-baseline="central">Species21</text><text x="612.8" y="370.0" font-size="11" fill="#222222" text-anchor="end" dominant-baseline="central">Species7</text><text x="612.8" y="386.0" font-size="11" fill="#222222" text-anchor="end" dominant-baseline="central">Species22</text><text x="612.8" y="402.0" font-size="11" fill="#222222" text-anchor="end" dominant-baseline="central">Species18</text><text x="612.8" y="418.0" font-size="11" fill="#222222" text-anchor="end" dominant-baseline="central">Species32</text><text x="612.8" y="434.0" font-size="11" fill="#222222" text-anchor="end" dominant-baseline="central">Species3</text><text x="612.8" y="450.0" font-size="11" fill="#222222" text-anchor="end" dominant-baseline="central">Species33</text><text x="612.8" y="466.0" font-size="11" fill="#222222" text-anchor="end" dominant-baseline="central">Species17</text><text x="612.8" y="482.0" font-size="11" fill="#222222" text-anchor="end" dominant-baseline="central">Species19</text><text x="612.8" y="498.0" font-size="11" fill="#222222" text-anchor="end" dominant-baseline="central">Species23</text><text x="612.8" y="514.0" font-size="11" fill="#222222" text-anchor="end" dominant-baseline="central">Species8</text><text x="612.8" y="530.0" font-size="11" fill="#222222" text-anchor="end" dominant-baseline="central">Species20</text><text x="612.8" y="546.0" font-size="11" fill="#222222" text-anchor="end" dominant-baseline="central">Species1</text><text x="612.8" y="562.0" font-size="11" fill="#222222" text-anchor="end" dominant-baseline="central">Species10</text><text x="612.8" y="578.0" font-size="11" fill="#222222" text-anchor="end" dominant-baseline="central">Species6</text><text x="612.8" y="594.0" font-size="11" fill="#222222" text-anchor="end" dominant-baseline="central">Species25</text><text x="612.8" y="610.0" font-size="11" fill="#222222" text-anchor="end" dominant-baseline="central">Species30</text><text x="612.8" y="626.0" font-size="11" fill="#222222" text-anchor="end" dominant-baseline="central">Species29</text><line x1="12" y1="650.0" x2="42" y2="650.0" stroke="#d55e00" stroke-width="1.6" stroke-dasharray="5 3"/><text x="48" y="650.0" font-size="10" fill="#555555" dominant-baseline="central">taxon whose closest relatives (smallest clade around it) differ between the trees</text><line x1="12" y1="666.0" x2="42" y2="666.0" stroke="#999999"/><text x="48" y="666.0" font-size="10" fill="#555555" dominant-baseline="central">taxon placed the same way in both trees. Both trees are unrooted, drawn rooted at their midpoints; child order rotated to reduce crossings.</text></svg>
