<svg xmlns="http://www.w3.org/2000/svg" width="722" height="656" viewBox="0 0 722.5 656.0" font-family="sans-serif"><rect width="722.5" height="656.0" fill="#ffffff"/><text x="12" y="20.0" font-size="15" font-weight="bold" fill="#222222">Rectangular tree: sim_hgt_250_seed3</text><text x="12" y="38.0" font-size="12" font-weight="normal" fill="#222222">33 taxa, 40,920 quartets; W2-sym, W2c 100 resamples, S2 0 replicates, strand filter on, MAW lengths by entropy, seed 3</text><text x="12" y="56.0" font-size="12" font-weight="normal" fill="#222222">Run of 2026-10-07 (UTC), Q-MAWS 0.0.0</text><g fill="none" stroke-linecap="square"><path d="M20.00,361.83 V225.75 H94.29" stroke="#22948b" stroke-width="2.18"/><path d="M20.00,361.83 V352.25 H94.29" stroke="#209a8a" stroke-width="2.09"/><path d="M20.00,361.83 V507.50 H94.29" stroke="#22948b" stroke-width="2.19"/><path d="M94.29,225.75 V199.50 H168.57" stroke="#22928b" stroke-width="2.20"/><path d="M94.29,225.75 V252.00 H540.00" stroke="#444444" stroke-width="1.20"/><path d="M168.57,199.50 V163.00 H242.86" stroke="#22908b" stroke-width="2.23"/><path d="M168.57,199.50 V236.00 H540.00" stroke="#444444" stroke-width="1.20"/><path d="M242.86,163.00 V120.00 H317.14" stroke="#27818e" stroke-width="2.45"/><path d="M242.86,163.00 V206.00 H317.14" stroke="#25868d" stroke-width="2.38"/><path d="M317.14,120.00 V96.00 H391.43" stroke="#433880" stroke-width="3.42"/><path d="M317.14,120.00 V144.00 H391.43" stroke="#2d728e" stroke-width="2.67"/><path d="M391.43,96.00 V84.00 H465.71" stroke="#461667" stroke-width="3.79"/><path d="M391.43,96.00 V108.00 H540.00" stroke="#444444" stroke-width="1.20"/><path d="M465.71,84.00 V76.00 H540.00" stroke="#444444" stroke-width="1.20"/><path d="M465.71,84.00 V92.00 H540.00" stroke="#444444" stroke-width="1.20"/><path d="M391.43,144.00 V132.00 H465.71" stroke="#440154" stroke-width="4.00"/><path d="M391.43,144.00 V156.00 H540.00" stroke="#444444" stroke-width="1.20"/><path d="M465.71,132.00 V124.00 H540.00" stroke="#444444" stroke-width="1.20"/><path d="M465.71,132.00 V140.00 H540.00" stroke="#444444" stroke-width="1.20"/><path d="M317.14,206.00 V192.00 H391.43" stroke="#2e708e" stroke-width="2.71"/><path d="M317.14,206.00 V220.00 H540.00" stroke="#444444" stroke-width="1.20"/><path d="M391.43,192.00 V180.00 H465.71" stroke="#440154" stroke-width="4.00"/><path d="M391.43,192.00 V204.00 H540.00" stroke="#444444" stroke-width="1.20"/><path d="M465.71,180.00 V172.00 H540.00" stroke="#444444" stroke-width="1.20"/><path d="M465.71,180.00 V188.00 H540.00" stroke="#444444" stroke-width="1.20"/><path d="M94.29,352.25 V332.50 H168.57" stroke="#20998a" stroke-width="2.11"/><path d="M94.29,352.25 V372.00 H168.57" stroke="#21958b" stroke-width="2.16"/><path d="M168.57,332.50 V317.00 H242.86" stroke="#21978a" stroke-width="2.14"/><path d="M168.57,332.50 V348.00 H540.00" stroke="#444444" stroke-width="1.20"/><path d="M242.86,317.00 V302.00 H317.14" stroke="#22928b" stroke-width="2.20"/><path d="M242.86,317.00 V332.00 H540.00" stroke="#444444" stroke-width="1.20"/><path d="M317.14,302.00 V288.00 H391.43" stroke="#24898d" stroke-width="2.34"/><path d="M317.14,302.00 V316.00 H540.00" stroke="#444444" stroke-width="1.20"/><path d="M391.43,288.00 V276.00 H465.71" stroke="#32658d" stroke-width="2.86"/><path d="M391.43,288.00 V300.00 H540.00" stroke="#444444" stroke-width="1.20"/><path d="M465.71,276.00 V268.00 H540.00" stroke="#444444" stroke-width="1.20"/><path d="M465.71,276.00 V284.00 H540.00" stroke="#444444" stroke-width="1.20"/><path d="M168.57,372.00 V364.00 H540.00" stroke="#444444" stroke-width="1.20"/><path d="M168.57,372.00 V380.00 H540.00" stroke="#444444" stroke-width="1.20"/><path d="M94.29,507.50 V461.00 H168.57" stroke="#22918b" stroke-width="2.22"/><path d="M94.29,507.50 V554.00 H168.57" stroke="#2c738e" stroke-width="2.65"/><path d="M168.57,461.00 V426.00 H242.86" stroke="#24898d" stroke-width="2.34"/><path d="M168.57,461.00 V496.00 H242.86" stroke="#2a7a8e" stroke-width="2.56"/><path d="M242.86,426.00 V404.00 H317.14" stroke="#2a798e" stroke-width="2.57"/><path d="M242.86,426.00 V448.00 H317.14" stroke="#30698e" stroke-width="2.80"/><path d="M317.14,404.00 V396.00 H540.00" stroke="#444444" stroke-width="1.20"/><path d="M317.14,404.00 V412.00 H540.00" stroke="#444444" stroke-width="1.20"/><path d="M317.14,448.00 V436.00 H391.43" stroke="#45085b" stroke-width="3.93"/><path d="M317.14,448.00 V460.00 H540.00" stroke="#444444" stroke-width="1.20"/><path d="M391.43,436.00 V428.00 H540.00" stroke="#444444" stroke-width="1.20"/><path d="M391.43,436.00 V444.00 H540.00" stroke="#444444" stroke-width="1.20"/><path d="M242.86,496.00 V484.00 H317.14" stroke="#472b79" stroke-width="3.58"/><path d="M242.86,496.00 V508.00 H540.00" stroke="#444444" stroke-width="1.20"/><path d="M317.14,484.00 V476.00 H540.00" stroke="#444444" stroke-width="1.20"/><path d="M317.14,484.00 V492.00 H540.00" stroke="#444444" stroke-width="1.20"/><path d="M168.57,554.00 V532.00 H242.86" stroke="#440255" stroke-width="3.99"/><path d="M168.57,554.00 V576.00 H242.86" stroke="#3d4c89" stroke-width="3.18"/><path d="M242.86,532.00 V524.00 H540.00" stroke="#444444" stroke-width="1.20"/><path d="M242.86,532.00 V540.00 H540.00" stroke="#444444" stroke-width="1.20"/><path d="M242.86,576.00 V564.00 H317.14" stroke="#3f4587" stroke-width="3.26"/><path d="M242.86,576.00 V588.00 H540.00" stroke="#444444" stroke-width="1.20"/><path d="M317.14,564.00 V556.00 H540.00" stroke="#444444" stroke-width="1.20"/><path d="M317.14,564.00 V572.00 H540.00" stroke="#444444" stroke-width="1.20"/></g><text x="92.29" y="222.75" font-size="9" fill="#333333" text-anchor="end">0.39</text><text x="166.57" y="196.50" font-size="9" fill="#333333" text-anchor="end">0.40</text><text x="240.86" y="160.00" font-size="9" fill="#333333" text-anchor="end">0.41</text><text x="315.14" y="117.00" font-size="9" fill="#333333" text-anchor="end">0.48</text><text x="389.43" y="93.00" font-size="9" fill="#333333" text-anchor="end">0.81</text><text x="463.71" y="81.00" font-size="9" fill="#333333" text-anchor="end">0.93</text><text x="389.43" y="141.00" font-size="9" fill="#333333" text-anchor="end">0.56</text><text x="463.71" y="129.00" font-size="9" fill="#333333" text-anchor="end">1.00</text><text x="315.14" y="203.00" font-size="9" fill="#333333" text-anchor="end">0.46</text><text x="389.43" y="189.00" font-size="9" fill="#333333" text-anchor="end">0.57</text><text x="463.71" y="177.00" font-size="9" fill="#333333" text-anchor="end">1.00</text><text x="92.29" y="349.25" font-size="9" fill="#333333" text-anchor="end">0.36</text><text x="166.57" y="329.50" font-size="9" fill="#333333" text-anchor="end">0.37</text><text x="240.86" y="314.00" font-size="9" fill="#333333" text-anchor="end">0.38</text><text x="315.14" y="299.00" font-size="9" fill="#333333" text-anchor="end">0.40</text><text x="389.43" y="285.00" font-size="9" fill="#333333" text-anchor="end">0.45</text><text x="463.71" y="273.00" font-size="9" fill="#333333" text-anchor="end">0.62</text><text x="166.57" y="369.00" font-size="9" fill="#333333" text-anchor="end">0.39</text><text x="92.29" y="504.50" font-size="9" fill="#333333" text-anchor="end">0.40</text><text x="166.57" y="458.00" font-size="9" fill="#333333" text-anchor="end">0.41</text><text x="240.86" y="423.00" font-size="9" fill="#333333" text-anchor="end">0.45</text><text x="315.14" y="401.00" font-size="9" fill="#333333" text-anchor="end">0.52</text><text x="315.14" y="445.00" font-size="9" fill="#333333" text-anchor="end">0.60</text><text x="389.43" y="433.00" font-size="9" fill="#333333" text-anchor="end">0.98</text><text x="240.86" y="493.00" font-size="9" fill="#333333" text-anchor="end">0.52</text><text x="315.14" y="481.00" font-size="9" fill="#333333" text-anchor="end">0.86</text><text x="166.57" y="551.00" font-size="9" fill="#333333" text-anchor="end">0.55</text><text x="240.86" y="529.00" font-size="9" fill="#333333" text-anchor="end">1.00</text><text x="240.86" y="573.00" font-size="9" fill="#333333" text-anchor="end">0.73</text><text x="315.14" y="561.00" font-size="9" fill="#333333" text-anchor="end">0.75</text><rect x="544.0" y="71.0" width="10" height="10" fill="#f6e8d5" stroke="#666666" stroke-width="0.5"/><text x="558.0" y="76.0" font-size="11" fill="#222222" dominant-baseline="central">Species11 ●</text><rect x="637.0" y="68.0" width="12" height="16" fill="#e69f00"/><text x="653.0" y="76.0" font-size="10" font-style="italic" fill="#222222" dominant-baseline="central">Clade A</text><rect x="544.0" y="87.0" width="10" height="10" fill="#f6e8d6" stroke="#666666" stroke-width="0.5"/><text x="558.0" y="92.0" font-size="11" fill="#222222" dominant-baseline="central">Species31 ●</text><rect x="637.0" y="84.0" width="12" height="16" fill="#e69f00"/><text x="653.0" y="92.0" font-size="10" font-style="italic" fill="#222222" dominant-baseline="central">Clade A</text><rect x="544.0" y="103.0" width="10" height="10" fill="#f5e0c5" stroke="#666666" stroke-width="0.5"/><text x="558.0" y="108.0" font-size="11" fill="#222222" dominant-baseline="central">Species28 ●</text><rect x="637.0" y="100.0" width="12" height="16" fill="#e69f00"/><text x="653.0" y="108.0" font-size="10" font-style="italic" fill="#222222" dominant-baseline="central">Clade A</text><rect x="544.0" y="119.0" width="10" height="10" fill="#f5dbba" stroke="#666666" stroke-width="0.5"/><text x="558.0" y="124.0" font-size="11" fill="#222222" dominant-baseline="central">Species29 ●</text><rect x="637.0" y="116.0" width="12" height="16" fill="#e69f00"/><text x="653.0" y="124.0" font-size="10" font-style="italic" fill="#222222" dominant-baseline="central">Clade A</text><rect x="544.0" y="135.0" width="10" height="10" fill="#f5dab9" stroke="#666666" stroke-width="0.5"/><text x="558.0" y="140.0" font-size="11" fill="#222222" dominant-baseline="central">Species30 ●</text><rect x="637.0" y="132.0" width="12" height="16" fill="#e69f00"/><text x="653.0" y="140.0" font-size="10" font-style="italic" fill="#222222" dominant-baseline="central">Clade A</text><rect x="544.0" y="151.0" width="10" height="10" fill="#f4ce9d" stroke="#666666" stroke-width="0.5"/><text x="558.0" y="156.0" font-size="11" fill="#222222" dominant-baseline="central">Species26 ●</text><rect x="637.0" y="148.0" width="12" height="16" fill="#e69f00"/><text x="653.0" y="156.0" font-size="10" font-style="italic" fill="#222222" dominant-baseline="central">Clade A</text><rect x="544.0" y="167.0" width="10" height="10" fill="#f5ddbe" stroke="#666666" stroke-width="0.5"/><text x="558.0" y="172.0" font-size="11" fill="#222222" dominant-baseline="central">Species25 ●</text><rect x="637.0" y="164.0" width="12" height="16" fill="#56b4e9"/><text x="653.0" y="172.0" font-size="10" font-style="italic" fill="#222222" dominant-baseline="central">Clade B</text><rect x="544.0" y="183.0" width="10" height="10" fill="#f5dcbd" stroke="#666666" stroke-width="0.5"/><text x="558.0" y="188.0" font-size="11" fill="#222222" dominant-baseline="central">Species6 ●</text><rect x="637.0" y="180.0" width="12" height="16" fill="#56b4e9"/><text x="653.0" y="188.0" font-size="10" font-style="italic" fill="#222222" dominant-baseline="central">Clade B</text><rect x="544.0" y="199.0" width="10" height="10" fill="#f4d0a1" stroke="#666666" stroke-width="0.5"/><text x="558.0" y="204.0" font-size="11" fill="#222222" dominant-baseline="central">Species12 ●</text><rect x="637.0" y="196.0" width="12" height="16" fill="#56b4e9"/><text x="653.0" y="204.0" font-size="10" font-style="italic" fill="#222222" dominant-baseline="central">Clade B</text><rect x="544.0" y="215.0" width="10" height="10" fill="#f4cfa0" stroke="#666666" stroke-width="0.5"/><text x="558.0" y="220.0" font-size="11" fill="#222222" dominant-baseline="central">Species5 ●</text><rect x="637.0" y="212.0" width="12" height="16" fill="#56b4e9"/><text x="653.0" y="220.0" font-size="10" font-style="italic" fill="#222222" dominant-baseline="central">Clade B</text><rect x="544.0" y="231.0" width="10" height="10" fill="#f4cb97" stroke="#666666" stroke-width="0.5"/><text x="558.0" y="236.0" font-size="11" fill="#222222" dominant-baseline="central">Species10 ●</text><rect x="544.0" y="247.0" width="10" height="10" fill="#f4cfa0" stroke="#666666" stroke-width="0.5"/><text x="558.0" y="252.0" font-size="11" fill="#222222" dominant-baseline="central">Species1 ●</text><rect x="544.0" y="263.0" width="10" height="10" fill="#f5d7b1" stroke="#666666" stroke-width="0.5"/><text x="558.0" y="268.0" font-size="11" fill="#222222" dominant-baseline="central">Species15 ●</text><rect x="637.0" y="260.0" width="12" height="16" fill="#009e73"/><text x="653.0" y="268.0" font-size="10" font-style="italic" fill="#222222" dominant-baseline="central">Clade C</text><rect x="544.0" y="279.0" width="10" height="10" fill="#f5d7b1" stroke="#666666" stroke-width="0.5"/><text x="558.0" y="284.0" font-size="11" fill="#222222" dominant-baseline="central">Species27 ●</text><rect x="637.0" y="276.0" width="12" height="16" fill="#009e73"/><text x="653.0" y="284.0" font-size="10" font-style="italic" fill="#222222" dominant-baseline="central">Clade C</text><rect x="544.0" y="295.0" width="10" height="10" fill="#f4cd9b" stroke="#666666" stroke-width="0.5"/><text x="558.0" y="300.0" font-size="11" fill="#222222" dominant-baseline="central">Species14 ●</text><rect x="637.0" y="292.0" width="12" height="16" fill="#009e73"/><text x="653.0" y="300.0" font-size="10" font-style="italic" fill="#222222" dominant-baseline="central">Clade C</text><rect x="544.0" y="311.0" width="10" height="10" fill="#f4ca94" stroke="#666666" stroke-width="0.5"/><text x="558.0" y="316.0" font-size="11" fill="#222222" dominant-baseline="central">Species7 ●</text><rect x="637.0" y="308.0" width="12" height="16" fill="#009e73"/><text x="653.0" y="316.0" font-size="10" font-style="italic" fill="#222222" dominant-baseline="central">Clade C</text><rect x="544.0" y="327.0" width="10" height="10" fill="#f4c891" stroke="#666666" stroke-width="0.5"/><text x="558.0" y="332.0" font-size="11" fill="#222222" dominant-baseline="central">Species8 ●</text><rect x="637.0" y="324.0" width="12" height="16" fill="#009e73"/><text x="653.0" y="332.0" font-size="10" font-style="italic" fill="#222222" dominant-baseline="central">Clade C</text><rect x="544.0" y="343.0" width="10" height="10" fill="#f4cfa0" stroke="#666666" stroke-width="0.5"/><text x="558.0" y="348.0" font-size="11" fill="#222222" dominant-baseline="central">Species13 ●</text><rect x="637.0" y="340.0" width="12" height="16" fill="#009e73"/><text x="653.0" y="348.0" font-size="10" font-style="italic" fill="#222222" dominant-baseline="central">Clade C</text><rect x="544.0" y="359.0" width="10" height="10" fill="#f4cb97" stroke="#666666" stroke-width="0.5"/><text x="558.0" y="364.0" font-size="11" fill="#222222" dominant-baseline="central">Species16 ●</text><rect x="637.0" y="356.0" width="12" height="16" fill="#009e73"/><text x="653.0" y="364.0" font-size="10" font-style="italic" fill="#222222" dominant-baseline="central">Clade C</text><rect x="544.0" y="375.0" width="10" height="10" fill="#f4cc99" stroke="#666666" stroke-width="0.5"/><text x="558.0" y="380.0" font-size="11" fill="#222222" dominant-baseline="central">Species4 ●</text><rect x="637.0" y="372.0" width="12" height="16" fill="#009e73"/><text x="653.0" y="380.0" font-size="10" font-style="italic" fill="#222222" dominant-baseline="central">Clade C</text><rect x="544.0" y="391.0" width="10" height="10" fill="#f4d2a7" stroke="#666666" stroke-width="0.5"/><text x="558.0" y="396.0" font-size="11" fill="#222222" dominant-baseline="central">Species2 ●</text><rect x="637.0" y="388.0" width="12" height="16" fill="#f0e442"/><text x="653.0" y="396.0" font-size="10" font-style="italic" fill="#222222" dominant-baseline="central">Clade D</text><rect x="544.0" y="407.0" width="10" height="10" fill="#f4d2a7" stroke="#666666" stroke-width="0.5"/><text x="558.0" y="412.0" font-size="11" fill="#222222" dominant-baseline="central">Species21 ●</text><rect x="637.0" y="404.0" width="12" height="16" fill="#f0e442"/><text x="653.0" y="412.0" font-size="10" font-style="italic" fill="#222222" dominant-baseline="central">Clade D</text><rect x="544.0" y="423.0" width="10" height="10" fill="#f6e2c9" stroke="#666666" stroke-width="0.5"/><text x="558.0" y="428.0" font-size="11" fill="#222222" dominant-baseline="central">Species18 ●</text><rect x="637.0" y="420.0" width="12" height="16" fill="#f0e442"/><text x="653.0" y="428.0" font-size="10" font-style="italic" fill="#222222" dominant-baseline="central">Clade D</text><rect x="544.0" y="439.0" width="10" height="10" fill="#f6e2ca" stroke="#666666" stroke-width="0.5"/><text x="558.0" y="444.0" font-size="11" fill="#222222" dominant-baseline="central">Species32 ●</text><rect x="637.0" y="436.0" width="12" height="16" fill="#f0e442"/><text x="653.0" y="444.0" font-size="10" font-style="italic" fill="#222222" dominant-baseline="central">Clade D</text><rect x="544.0" y="455.0" width="10" height="10" fill="#f4d1a5" stroke="#666666" stroke-width="0.5"/><text x="558.0" y="460.0" font-size="11" fill="#222222" dominant-baseline="central">Species22 ●</text><rect x="637.0" y="452.0" width="12" height="16" fill="#f0e442"/><text x="653.0" y="460.0" font-size="10" font-style="italic" fill="#222222" dominant-baseline="central">Clade D</text><rect x="544.0" y="471.0" width="10" height="10" fill="#f5dbba" stroke="#666666" stroke-width="0.5"/><text x="558.0" y="476.0" font-size="11" fill="#222222" dominant-baseline="central">Species24 ●</text><rect x="637.0" y="468.0" width="12" height="16" fill="#0072b2"/><text x="653.0" y="476.0" font-size="10" font-style="italic" fill="#222222" dominant-baseline="central">Clade E</text><rect x="544.0" y="487.0" width="10" height="10" fill="#f5dab8" stroke="#666666" stroke-width="0.5"/><text x="558.0" y="492.0" font-size="11" fill="#222222" dominant-baseline="central">Species9 ●</text><rect x="637.0" y="484.0" width="12" height="16" fill="#0072b2"/><text x="653.0" y="492.0" font-size="10" font-style="italic" fill="#222222" dominant-baseline="central">Clade E</text><rect x="544.0" y="503.0" width="10" height="10" fill="#f4ca95" stroke="#666666" stroke-width="0.5"/><text x="558.0" y="508.0" font-size="11" fill="#222222" dominant-baseline="central">Species20 ●</text><rect x="637.0" y="500.0" width="12" height="16" fill="#0072b2"/><text x="653.0" y="508.0" font-size="10" font-style="italic" fill="#222222" dominant-baseline="central">Clade E</text><rect x="544.0" y="519.0" width="10" height="10" fill="#f5dcbb" stroke="#666666" stroke-width="0.5"/><text x="558.0" y="524.0" font-size="11" fill="#222222" dominant-baseline="central">Species3 ●</text><rect x="637.0" y="516.0" width="12" height="16" fill="#d55e00"/><text x="653.0" y="524.0" font-size="10" font-style="italic" fill="#222222" dominant-baseline="central">Clade F</text><rect x="544.0" y="535.0" width="10" height="10" fill="#f5dcbc" stroke="#666666" stroke-width="0.5"/><text x="558.0" y="540.0" font-size="11" fill="#222222" dominant-baseline="central">Species33 ●</text><rect x="637.0" y="532.0" width="12" height="16" fill="#d55e00"/><text x="653.0" y="540.0" font-size="10" font-style="italic" fill="#222222" dominant-baseline="central">Clade F</text><rect x="544.0" y="551.0" width="10" height="10" fill="#f5e1c6" stroke="#666666" stroke-width="0.5"/><text x="558.0" y="556.0" font-size="11" fill="#222222" dominant-baseline="central">Species19 ●</text><rect x="637.0" y="548.0" width="12" height="16" fill="#d55e00"/><text x="653.0" y="556.0" font-size="10" font-style="italic" fill="#222222" dominant-baseline="central">Clade F</text><rect x="544.0" y="567.0" width="10" height="10" fill="#f5e1c7" stroke="#666666" stroke-width="0.5"/><text x="558.0" y="572.0" font-size="11" fill="#222222" dominant-baseline="central">Species23 ●</text><rect x="637.0" y="564.0" width="12" height="16" fill="#d55e00"/><text x="653.0" y="572.0" font-size="10" font-style="italic" fill="#222222" dominant-baseline="central">Clade F</text><rect x="544.0" y="583.0" width="10" height="10" fill="#f5dec1" stroke="#666666" stroke-width="0.5"/><text x="558.0" y="588.0" font-size="11" fill="#222222" dominant-baseline="central">Species17 ●</text><rect x="637.0" y="580.0" width="12" height="16" fill="#d55e00"/><text x="653.0" y="588.0" font-size="10" font-style="italic" fill="#222222" dominant-baseline="central">Clade F</text><text x="12" y="616.0" font-size="10" fill="#555555">Square: halo value (orange low, purple high; ● below 0.6). Numbers at nodes: S1. Branch colour and width: S1 (light thin: low; dark thick: high).</text><text x="12" y="632.0" font-size="10" fill="#555555">Unrooted tree, drawn rooted at the midpoint of its longest path; branch lengths are not drawn. Groups: automatic: clades of the tree.</text></svg>
