<svg xmlns="http://www.w3.org/2000/svg" width="800" height="904" viewBox="0 0 800 904" font-family="sans-serif"><rect width="800" height="904" fill="#ffffff"/><text x="12" y="20.0" font-size="15" font-weight="bold" fill="#222222">Provisional Halo Tree: sim_hgt_750_seed4</text><text x="12" y="38.0" font-size="12" font-weight="normal" fill="#222222">33 taxa, 40608 of 40920 quartets (99%), update 24</text><g fill="none" stroke-linecap="round"><line x1="400.00" y1="446.00" x2="390.56" y2="487.60" stroke="#333333" stroke-width="1.40"/><line x1="400.00" y1="446.00" x2="426.57" y2="412.62" stroke="#333333" stroke-width="1.40"/><path d="M390.56,487.60 A42.66,42.66 0 0 0 413.71,486.40" stroke="#333333" stroke-width="1.40"/><line x1="413.71" y1="486.40" x2="427.43" y2="526.79" stroke="#333333" stroke-width="1.40"/><path d="M390.56,487.60 A42.66,42.66 0 0 1 370.20,476.52" stroke="#333333" stroke-width="1.40"/><line x1="370.20" y1="476.52" x2="340.39" y2="507.04" stroke="#333333" stroke-width="1.40"/><path d="M427.43,526.79 A85.32,85.32 0 0 0 463.81,502.64" stroke="#333333" stroke-width="1.40"/><line x1="463.81" y1="502.64" x2="495.72" y2="530.95" stroke="#333333" stroke-width="1.40"/><path d="M427.43,526.79 A85.32,85.32 0 0 1 383.85,529.78" stroke="#333333" stroke-width="1.40"/><line x1="383.85" y1="529.78" x2="375.78" y2="571.67" stroke="#333333" stroke-width="1.40"/><path d="M495.72,530.95 A127.98,127.98 0 0 0 517.65,496.38" stroke="#333333" stroke-width="1.40"/><line x1="517.65" y1="496.38" x2="556.86" y2="513.17" stroke="#333333" stroke-width="1.40"/><path d="M495.72,530.95 A127.98,127.98 0 0 1 463.99,556.83" stroke="#333333" stroke-width="1.40"/><line x1="463.99" y1="556.83" x2="485.32" y2="593.78" stroke="#333333" stroke-width="1.40"/><path d="M556.86,513.17 A170.64,170.64 0 0 0 565.83,486.23" stroke="#333333" stroke-width="1.40"/><line x1="565.83" y1="486.23" x2="607.29" y2="496.29" stroke="#333333" stroke-width="1.40"/><path d="M556.86,513.17 A170.64,170.64 0 0 1 543.55,538.25" stroke="#333333" stroke-width="1.40"/><line x1="543.55" y1="538.25" x2="651.22" y2="607.45" stroke="#333333" stroke-width="1.40"/><path d="M607.29,496.29 A213.30,213.30 0 0 0 612.33,466.28" stroke="#333333" stroke-width="1.40"/><line x1="612.33" y1="466.28" x2="654.80" y2="470.33" stroke="#333333" stroke-width="1.40"/><path d="M607.29,496.29 A213.30,213.30 0 0 1 598.02,525.28" stroke="#333333" stroke-width="1.40"/><line x1="598.02" y1="525.28" x2="677.23" y2="556.99" stroke="#333333" stroke-width="1.40"/><path d="M654.80,470.33 A255.96,255.96 0 0 0 655.96,446.00" stroke="#333333" stroke-width="1.40"/><line x1="655.96" y1="446.00" x2="698.62" y2="446.00" stroke="#333333" stroke-width="1.40"/><path d="M654.80,470.33 A255.96,255.96 0 0 1 651.33,494.44" stroke="#333333" stroke-width="1.40"/><line x1="651.33" y1="494.44" x2="693.22" y2="502.51" stroke="#333333" stroke-width="1.40"/><path d="M485.32,593.78 A170.64,170.64 0 0 0 511.75,574.96" stroke="#333333" stroke-width="1.40"/><line x1="511.75" y1="574.96" x2="539.68" y2="607.20" stroke="#333333" stroke-width="1.40"/><path d="M485.32,593.78 A170.64,170.64 0 0 1 455.81,607.25" stroke="#333333" stroke-width="1.40"/><line x1="455.81" y1="607.25" x2="469.76" y2="647.57" stroke="#333333" stroke-width="1.40"/><path d="M539.68,607.20 A213.30,213.30 0 0 0 554.37,593.19" stroke="#333333" stroke-width="1.40"/><line x1="554.37" y1="593.19" x2="616.12" y2="652.07" stroke="#333333" stroke-width="1.40"/><path d="M539.68,607.20 A213.30,213.30 0 0 1 523.73,619.75" stroke="#333333" stroke-width="1.40"/><line x1="523.73" y1="619.75" x2="573.22" y2="689.25" stroke="#333333" stroke-width="1.40"/><path d="M469.76,647.57 A213.30,213.30 0 0 0 488.61,640.02" stroke="#333333" stroke-width="1.40"/><line x1="488.61" y1="640.02" x2="524.05" y2="717.63" stroke="#333333" stroke-width="1.40"/><path d="M469.76,647.57 A213.30,213.30 0 0 1 450.29,653.29" stroke="#333333" stroke-width="1.40"/><line x1="450.29" y1="653.29" x2="470.40" y2="736.20" stroke="#333333" stroke-width="1.40"/><path d="M375.78,571.67 A127.98,127.98 0 0 0 393.91,573.84" stroke="#333333" stroke-width="1.40"/><line x1="393.91" y1="573.84" x2="391.88" y2="616.45" stroke="#333333" stroke-width="1.40"/><path d="M375.78,571.67 A127.98,127.98 0 0 1 358.14,566.94" stroke="#333333" stroke-width="1.40"/><line x1="358.14" y1="566.94" x2="302.33" y2="728.20" stroke="#333333" stroke-width="1.40"/><path d="M391.88,616.45 A170.64,170.64 0 0 0 408.12,616.45" stroke="#333333" stroke-width="1.40"/><line x1="408.12" y1="616.45" x2="414.21" y2="744.28" stroke="#333333" stroke-width="1.40"/><path d="M391.88,616.45 A170.64,170.64 0 0 1 375.72,614.90" stroke="#333333" stroke-width="1.40"/><line x1="375.72" y1="614.90" x2="357.50" y2="741.58" stroke="#333333" stroke-width="1.40"/><path d="M340.39,507.04 A85.32,85.32 0 0 0 357.34,519.89" stroke="#333333" stroke-width="1.40"/><line x1="357.34" y1="519.89" x2="250.69" y2="704.61" stroke="#333333" stroke-width="1.40"/><path d="M340.39,507.04 A85.32,85.32 0 0 1 327.15,490.41" stroke="#333333" stroke-width="1.40"/><line x1="327.15" y1="490.41" x2="290.72" y2="512.61" stroke="#333333" stroke-width="1.40"/><path d="M290.72,512.61 A127.98,127.98 0 0 0 307.38,534.32" stroke="#333333" stroke-width="1.40"/><line x1="307.38" y1="534.32" x2="276.50" y2="563.76" stroke="#333333" stroke-width="1.40"/><path d="M290.72,512.61 A127.98,127.98 0 0 1 279.06,487.86" stroke="#333333" stroke-width="1.40"/><line x1="279.06" y1="487.86" x2="238.75" y2="501.81" stroke="#333333" stroke-width="1.40"/><path d="M276.50,563.76 A170.64,170.64 0 0 0 288.25,574.96" stroke="#333333" stroke-width="1.40"/><line x1="288.25" y1="574.96" x2="204.45" y2="671.68" stroke="#333333" stroke-width="1.40"/><path d="M276.50,563.76 A170.64,170.64 0 0 1 265.87,551.48" stroke="#333333" stroke-width="1.40"/><line x1="265.87" y1="551.48" x2="165.27" y2="630.59" stroke="#333333" stroke-width="1.40"/><path d="M238.75,501.81 A170.64,170.64 0 0 0 248.33,524.19" stroke="#333333" stroke-width="1.40"/><line x1="248.33" y1="524.19" x2="134.58" y2="582.84" stroke="#333333" stroke-width="1.40"/><path d="M238.75,501.81 A170.64,170.64 0 0 1 232.44,478.29" stroke="#333333" stroke-width="1.40"/><line x1="232.44" y1="478.29" x2="190.55" y2="486.37" stroke="#333333" stroke-width="1.40"/><path d="M190.55,486.37 A213.30,213.30 0 0 0 195.34,506.09" stroke="#333333" stroke-width="1.40"/><line x1="195.34" y1="506.09" x2="113.48" y2="530.13" stroke="#333333" stroke-width="1.40"/><path d="M190.55,486.37 A213.30,213.30 0 0 1 187.67,466.28" stroke="#333333" stroke-width="1.40"/><line x1="187.67" y1="466.28" x2="102.73" y2="474.39" stroke="#333333" stroke-width="1.40"/><path d="M426.57,412.62 A42.66,42.66 0 0 0 402.54,403.42" stroke="#333333" stroke-width="1.40"/><line x1="402.54" y1="403.42" x2="405.07" y2="360.83" stroke="#333333" stroke-width="1.40"/><path d="M426.57,412.62 A42.66,42.66 0 0 1 440.93,433.98" stroke="#333333" stroke-width="1.40"/><line x1="440.93" y1="433.98" x2="481.86" y2="421.96" stroke="#333333" stroke-width="1.40"/><path d="M405.07,360.83 A85.32,85.32 0 0 0 352.18,375.34" stroke="#333333" stroke-width="1.40"/><line x1="352.18" y1="375.34" x2="328.27" y2="340.01" stroke="#333333" stroke-width="1.40"/><path d="M405.07,360.83 A85.32,85.32 0 0 1 455.87,381.52" stroke="#333333" stroke-width="1.40"/><line x1="455.87" y1="381.52" x2="483.81" y2="349.28" stroke="#333333" stroke-width="1.40"/><path d="M328.27,340.01 A127.98,127.98 0 0 0 284.88,390.08" stroke="#333333" stroke-width="1.40"/><line x1="284.88" y1="390.08" x2="246.51" y2="371.44" stroke="#333333" stroke-width="1.40"/><path d="M328.27,340.01 A127.98,127.98 0 0 1 390.87,318.35" stroke="#333333" stroke-width="1.40"/><line x1="390.87" y1="318.35" x2="387.83" y2="275.79" stroke="#333333" stroke-width="1.40"/><path d="M246.51,371.44 A170.64,170.64 0 0 0 232.44,413.71" stroke="#333333" stroke-width="1.40"/><line x1="232.44" y1="413.71" x2="190.55" y2="405.63" stroke="#333333" stroke-width="1.40"/><path d="M246.51,371.44 A170.64,170.64 0 0 1 271.04,334.25" stroke="#333333" stroke-width="1.40"/><line x1="271.04" y1="334.25" x2="238.80" y2="306.32" stroke="#333333" stroke-width="1.40"/><path d="M190.55,405.63 A213.30,213.30 0 0 0 187.67,425.72" stroke="#333333" stroke-width="1.40"/><line x1="187.67" y1="425.72" x2="102.73" y2="417.61" stroke="#333333" stroke-width="1.40"/><path d="M190.55,405.63 A213.30,213.30 0 0 1 195.34,385.91" stroke="#333333" stroke-width="1.40"/><line x1="195.34" y1="385.91" x2="113.48" y2="361.87" stroke="#333333" stroke-width="1.40"/><path d="M238.80,306.32 A213.30,213.30 0 0 0 220.56,330.68" stroke="#333333" stroke-width="1.40"/><line x1="220.56" y1="330.68" x2="184.67" y2="307.62" stroke="#333333" stroke-width="1.40"/><path d="M238.80,306.32 A213.30,213.30 0 0 1 260.32,284.80" stroke="#333333" stroke-width="1.40"/><line x1="260.32" y1="284.80" x2="204.45" y2="220.32" stroke="#333333" stroke-width="1.40"/><path d="M184.67,307.62 A255.96,255.96 0 0 0 172.49,328.71" stroke="#333333" stroke-width="1.40"/><line x1="172.49" y1="328.71" x2="134.58" y2="309.16" stroke="#333333" stroke-width="1.40"/><path d="M184.67,307.62 A255.96,255.96 0 0 1 198.80,287.78" stroke="#333333" stroke-width="1.40"/><line x1="198.80" y1="287.78" x2="165.27" y2="261.41" stroke="#333333" stroke-width="1.40"/><path d="M387.83,275.79 A170.64,170.64 0 0 0 351.93,282.27" stroke="#333333" stroke-width="1.40"/><line x1="351.93" y1="282.27" x2="339.91" y2="241.34" stroke="#333333" stroke-width="1.40"/><path d="M387.83,275.79 A170.64,170.64 0 0 1 424.28,277.10" stroke="#333333" stroke-width="1.40"/><line x1="424.28" y1="277.10" x2="430.36" y2="234.87" stroke="#333333" stroke-width="1.40"/><path d="M339.91,241.34 A213.30,213.30 0 0 0 311.39,251.98" stroke="#333333" stroke-width="1.40"/><line x1="311.39" y1="251.98" x2="293.67" y2="213.17" stroke="#333333" stroke-width="1.40"/><path d="M339.91,241.34 A213.30,213.30 0 0 1 369.64,234.87" stroke="#333333" stroke-width="1.40"/><line x1="369.64" y1="234.87" x2="357.50" y2="150.42" stroke="#333333" stroke-width="1.40"/><path d="M293.67,213.17 A255.96,255.96 0 0 0 272.02,224.33" stroke="#333333" stroke-width="1.40"/><line x1="272.02" y1="224.33" x2="250.69" y2="187.39" stroke="#333333" stroke-width="1.40"/><path d="M293.67,213.17 A255.96,255.96 0 0 1 316.28,204.12" stroke="#333333" stroke-width="1.40"/><line x1="316.28" y1="204.12" x2="302.33" y2="163.80" stroke="#333333" stroke-width="1.40"/><path d="M430.36,234.87 A213.30,213.30 0 0 0 410.15,232.94" stroke="#333333" stroke-width="1.40"/><line x1="410.15" y1="232.94" x2="414.21" y2="147.72" stroke="#333333" stroke-width="1.40"/><path d="M430.36,234.87 A213.30,213.30 0 0 1 450.29,238.71" stroke="#333333" stroke-width="1.40"/><line x1="450.29" y1="238.71" x2="470.40" y2="155.80" stroke="#333333" stroke-width="1.40"/><path d="M483.81,349.28 A127.98,127.98 0 0 0 463.99,335.17" stroke="#333333" stroke-width="1.40"/><line x1="463.99" y1="335.17" x2="485.32" y2="298.22" stroke="#333333" stroke-width="1.40"/><path d="M483.81,349.28 A127.98,127.98 0 0 1 500.60,366.89" stroke="#333333" stroke-width="1.40"/><line x1="500.60" y1="366.89" x2="534.13" y2="340.52" stroke="#333333" stroke-width="1.40"/><path d="M485.32,298.22 A170.64,170.64 0 0 0 470.89,290.78" stroke="#333333" stroke-width="1.40"/><line x1="470.89" y1="290.78" x2="524.05" y2="174.37" stroke="#333333" stroke-width="1.40"/><path d="M485.32,298.22 A170.64,170.64 0 0 1 498.98,307.00" stroke="#333333" stroke-width="1.40"/><line x1="498.98" y1="307.00" x2="573.22" y2="202.75" stroke="#333333" stroke-width="1.40"/><path d="M534.13,340.52 A170.64,170.64 0 0 0 523.50,328.24" stroke="#333333" stroke-width="1.40"/><line x1="523.50" y1="328.24" x2="616.12" y2="239.93" stroke="#333333" stroke-width="1.40"/><path d="M534.13,340.52 A170.64,170.64 0 0 1 543.55,353.75" stroke="#333333" stroke-width="1.40"/><line x1="543.55" y1="353.75" x2="651.22" y2="284.55" stroke="#333333" stroke-width="1.40"/><path d="M481.86,421.96 A85.32,85.32 0 0 0 479.21,414.29" stroke="#333333" stroke-width="1.40"/><line x1="479.21" y1="414.29" x2="677.23" y2="335.01" stroke="#333333" stroke-width="1.40"/><path d="M481.86,421.96 A85.32,85.32 0 0 1 483.78,429.85" stroke="#333333" stroke-width="1.40"/><line x1="483.78" y1="429.85" x2="693.22" y2="389.49" stroke="#333333" stroke-width="1.40"/></g><text x="704.62" y="446.00" font-size="11.0" fill="#222222" text-anchor="start" dominant-baseline="central" transform="rotate(0.00 704.62 446.00)">Species25</text><path d="M782.65,413.87 A384.00,384.00 0 0 1 782.65,478.13 L770.70,477.13 A372.00,372.00 0 0 0 770.70,414.87 Z" fill="#f5dcbc" stroke="#666666" stroke-width="0.5"/><circle cx="778.00" cy="446.00" r="2.2" fill="#222222"/><text x="699.12" y="503.65" font-size="11.0" fill="#222222" text-anchor="start" dominant-baseline="central" transform="rotate(10.91 699.12 503.65)">Species6</text><path d="M781.82,486.87 A384.00,384.00 0 0 1 769.66,549.97 L758.11,546.72 A372.00,372.00 0 0 0 769.89,485.59 Z" fill="#f5dcbd" stroke="#666666" stroke-width="0.5"/><circle cx="771.17" cy="517.54" r="2.2" fill="#222222"/><text x="682.80" y="559.22" font-size="11.0" fill="#222222" text-anchor="start" dominant-baseline="central" transform="rotate(21.82 682.80 559.22)">Species13</text><path d="M767.19,558.39 A384.00,384.00 0 0 1 743.30,618.05 L732.57,612.67 A372.00,372.00 0 0 0 755.71,554.88 Z" fill="#f4cc9a" stroke="#666666" stroke-width="0.5"/><circle cx="750.92" cy="586.49" r="2.2" fill="#222222"/><text x="656.26" y="610.69" font-size="11.0" fill="#222222" text-anchor="start" dominant-baseline="central" transform="rotate(32.73 656.26 610.69)">Species7</text><path d="M739.28,625.85 A384.00,384.00 0 0 1 704.54,679.91 L695.02,672.60 A372.00,372.00 0 0 0 728.68,620.23 Z" fill="#f4c993" stroke="#666666" stroke-width="0.5"/><circle cx="717.99" cy="650.36" r="2.2" fill="#222222"/><text x="620.46" y="656.21" font-size="11.0" fill="#222222" text-anchor="start" dominant-baseline="central" transform="rotate(43.64 620.46 656.21)">Species29</text><path d="M699.11,686.81 A384.00,384.00 0 0 1 654.77,733.32 L646.80,724.34 A372.00,372.00 0 0 0 689.77,679.28 Z" fill="#f5dbb9" stroke="#666666" stroke-width="0.5"/><circle cx="673.57" cy="706.85" r="2.2" fill="#222222"/><text x="576.70" y="694.14" font-size="11.0" fill="#222222" text-anchor="start" dominant-baseline="central" transform="rotate(54.55 576.70 694.14)">Species30</text><path d="M648.13,739.06 A384.00,384.00 0 0 1 595.79,776.34 L589.67,766.02 A372.00,372.00 0 0 0 640.38,729.90 Z" fill="#f5dab9" stroke="#666666" stroke-width="0.5"/><circle cx="619.26" cy="753.91" r="2.2" fill="#222222"/><text x="526.54" y="723.09" font-size="11.0" fill="#222222" text-anchor="start" dominant-baseline="central" transform="rotate(65.45 526.54 723.09)">Species20</text><path d="M588.19,780.73 A384.00,384.00 0 0 1 529.73,807.42 L525.68,796.13 A372.00,372.00 0 0 0 582.31,770.27 Z" fill="#f4c993" stroke="#666666" stroke-width="0.5"/><circle cx="557.03" cy="789.84" r="2.2" fill="#222222"/><text x="471.82" y="742.03" font-size="11.0" fill="#222222" text-anchor="start" dominant-baseline="central" transform="rotate(76.36 471.82 742.03)">Species5</text><path d="M521.44,810.29 A384.00,384.00 0 0 1 458.99,825.44 L457.14,813.58 A372.00,372.00 0 0 0 517.65,798.91 Z" fill="#f4cc99" stroke="#666666" stroke-width="0.5"/><circle cx="489.12" cy="813.34" r="2.2" fill="#222222"/><text x="414.49" y="750.27" font-size="11.0" fill="#222222" text-anchor="start" dominant-baseline="central" transform="rotate(87.27 414.49 750.27)">Species15</text><path d="M450.30,826.69 A384.00,384.00 0 0 1 386.11,829.75 L386.55,817.76 A372.00,372.00 0 0 0 448.73,814.79 Z" fill="#f4d0a2" stroke="#666666" stroke-width="0.5"/><circle cx="417.99" cy="823.57" r="2.2" fill="#222222"/><text x="356.65" y="747.52" font-size="11.0" fill="#222222" text-anchor="end" dominant-baseline="central" transform="rotate(278.18 356.65 747.52)">Species27</text><path d="M377.35,829.33 A384.00,384.00 0 0 1 313.74,820.19 L316.43,808.49 A372.00,372.00 0 0 0 378.06,817.35 Z" fill="#f4d0a2" stroke="#666666" stroke-width="0.5"/><circle cx="346.20" cy="820.15" r="2.2" fill="#222222"/><text x="300.37" y="733.87" font-size="11.0" fill="#222222" text-anchor="end" dominant-baseline="central" transform="rotate(289.09 300.37 733.87)">Species26</text><path d="M305.21,818.12 A384.00,384.00 0 0 1 244.48,797.10 L249.34,786.13 A372.00,372.00 0 0 0 308.17,806.49 Z" fill="#f4cb97" stroke="#666666" stroke-width="0.5"/><circle cx="276.37" cy="803.21" r="2.2" fill="#222222"/><text x="247.69" y="709.81" font-size="11.0" fill="#222222" text-anchor="end" dominant-baseline="central" transform="rotate(300.00 247.69 709.81)">Species8</text><path d="M236.50,793.45 A384.00,384.00 0 0 1 180.85,761.32 L187.69,751.47 A372.00,372.00 0 0 0 241.61,782.60 Z" fill="#f4c78e" stroke="#666666" stroke-width="0.5"/><circle cx="211.00" cy="773.36" r="2.2" fill="#222222"/><text x="200.52" y="676.22" font-size="11.0" fill="#222222" text-anchor="end" dominant-baseline="central" transform="rotate(310.91 200.52 676.22)">Species3</text><path d="M173.70,756.23 A384.00,384.00 0 0 1 125.13,714.15 L133.72,705.77 A372.00,372.00 0 0 0 180.77,746.54 Z" fill="#f5dbb9" stroke="#666666" stroke-width="0.5"/><circle cx="152.46" cy="731.67" r="2.2" fill="#222222"/><text x="160.55" y="634.30" font-size="11.0" fill="#222222" text-anchor="end" dominant-baseline="central" transform="rotate(321.82 160.55 634.30)">Species33</text><path d="M119.08,707.80 A384.00,384.00 0 0 1 79.35,657.28 L89.37,650.68 A372.00,372.00 0 0 0 127.86,699.62 Z" fill="#f5dab9" stroke="#666666" stroke-width="0.5"/><circle cx="102.87" cy="679.66" r="2.2" fill="#222222"/><text x="129.24" y="585.58" font-size="11.0" fill="#222222" text-anchor="end" dominant-baseline="central" transform="rotate(332.73 129.24 585.58)">Species17</text><path d="M74.61,649.90 A384.00,384.00 0 0 1 45.16,592.78 L56.25,588.19 A372.00,372.00 0 0 0 84.78,643.53 Z" fill="#f4d0a1" stroke="#666666" stroke-width="0.5"/><circle cx="64.02" cy="619.21" r="2.2" fill="#222222"/><text x="107.72" y="531.82" font-size="11.0" fill="#222222" text-anchor="end" dominant-baseline="central" transform="rotate(343.64 107.72 531.82)">Species19</text><path d="M41.90,584.64 A384.00,384.00 0 0 1 23.79,522.98 L35.55,520.57 A372.00,372.00 0 0 0 53.09,580.30 Z" fill="#f5d4ac" stroke="#666666" stroke-width="0.5"/><circle cx="37.31" cy="552.49" r="2.2" fill="#222222"/><text x="96.76" y="474.96" font-size="11.0" fill="#222222" text-anchor="end" dominant-baseline="central" transform="rotate(354.55 96.76 474.96)">Species23</text><path d="M22.13,514.36 A384.00,384.00 0 0 1 16.03,450.39 L28.02,450.25 A372.00,372.00 0 0 0 33.94,512.22 Z" fill="#f4d4aa" stroke="#666666" stroke-width="0.5"/><circle cx="23.71" cy="481.93" r="2.2" fill="#222222"/><text x="96.76" y="417.04" font-size="11.0" fill="#222222" text-anchor="end" dominant-baseline="central" transform="rotate(365.45 96.76 417.04)">Species2</text><path d="M16.03,441.61 A384.00,384.00 0 0 1 22.13,377.64 L33.94,379.78 A372.00,372.00 0 0 0 28.02,441.75 Z" fill="#f4cf9f" stroke="#666666" stroke-width="0.5"/><circle cx="23.71" cy="410.07" r="2.2" fill="#222222"/><text x="107.72" y="360.18" font-size="11.0" fill="#222222" text-anchor="end" dominant-baseline="central" transform="rotate(376.36 107.72 360.18)">Species21</text><path d="M23.79,369.02 A384.00,384.00 0 0 1 41.90,307.36 L53.09,311.70 A372.00,372.00 0 0 0 35.55,371.43 Z" fill="#f4cf9f" stroke="#666666" stroke-width="0.5"/><circle cx="37.31" cy="339.51" r="2.2" fill="#222222"/><text x="129.24" y="306.42" font-size="11.0" fill="#222222" text-anchor="end" dominant-baseline="central" transform="rotate(387.27 129.24 306.42)">Species11</text><path d="M45.16,299.22 A384.00,384.00 0 0 1 74.61,242.10 L84.78,248.47 A372.00,372.00 0 0 0 56.25,303.81 Z" fill="#f6e4cf" stroke="#666666" stroke-width="0.5"/><circle cx="64.02" cy="272.79" r="2.2" fill="#222222"/><text x="160.55" y="257.70" font-size="11.0" fill="#222222" text-anchor="end" dominant-baseline="central" transform="rotate(398.18 160.55 257.70)">Species31</text><path d="M79.35,234.72 A384.00,384.00 0 0 1 119.08,184.20 L127.86,192.38 A372.00,372.00 0 0 0 89.37,241.32 Z" fill="#f6e5cf" stroke="#666666" stroke-width="0.5"/><circle cx="102.87" cy="212.34" r="2.2" fill="#222222"/><text x="200.52" y="215.78" font-size="11.0" fill="#222222" text-anchor="end" dominant-baseline="central" transform="rotate(409.09 200.52 215.78)">Species28</text><path d="M125.13,177.85 A384.00,384.00 0 0 1 173.70,135.77 L180.77,145.46 A372.00,372.00 0 0 0 133.72,186.23 Z" fill="#f5dbb9" stroke="#666666" stroke-width="0.5"/><circle cx="152.46" cy="160.33" r="2.2" fill="#222222"/><text x="247.69" y="182.19" font-size="11.0" fill="#222222" text-anchor="end" dominant-baseline="central" transform="rotate(420.00 247.69 182.19)">Species18</text><path d="M180.85,130.68 A384.00,384.00 0 0 1 236.50,98.55 L241.61,109.40 A372.00,372.00 0 0 0 187.69,140.53 Z" fill="#f5dfc3" stroke="#666666" stroke-width="0.5"/><circle cx="211.00" cy="118.64" r="2.2" fill="#222222"/><text x="300.37" y="158.13" font-size="11.0" fill="#222222" text-anchor="end" dominant-baseline="central" transform="rotate(430.91 300.37 158.13)">Species32</text><path d="M244.48,94.90 A384.00,384.00 0 0 1 305.21,73.88 L308.17,85.51 A372.00,372.00 0 0 0 249.34,105.87 Z" fill="#f5dfc3" stroke="#666666" stroke-width="0.5"/><circle cx="276.37" cy="88.79" r="2.2" fill="#222222"/><text x="356.65" y="144.48" font-size="11.0" fill="#222222" text-anchor="end" dominant-baseline="central" transform="rotate(441.82 356.65 144.48)">Species22</text><path d="M313.74,71.81 A384.00,384.00 0 0 1 377.35,62.67 L378.06,74.65 A372.00,372.00 0 0 0 316.43,83.51 Z" fill="#f4cc9a" stroke="#666666" stroke-width="0.5"/><circle cx="346.20" cy="71.85" r="2.2" fill="#222222"/><text x="414.49" y="141.73" font-size="11.0" fill="#222222" text-anchor="start" dominant-baseline="central" transform="rotate(272.73 414.49 141.73)">Species16</text><path d="M386.11,62.25 A384.00,384.00 0 0 1 450.30,65.31 L448.73,77.21 A372.00,372.00 0 0 0 386.55,74.24 Z" fill="#f4c892" stroke="#666666" stroke-width="0.5"/><circle cx="417.99" cy="68.43" r="2.2" fill="#222222"/><text x="471.82" y="149.97" font-size="11.0" fill="#222222" text-anchor="start" dominant-baseline="central" transform="rotate(283.64 471.82 149.97)">Species4</text><path d="M458.99,66.56 A384.00,384.00 0 0 1 521.44,81.71 L517.65,93.09 A372.00,372.00 0 0 0 457.14,78.42 Z" fill="#f4c992" stroke="#666666" stroke-width="0.5"/><circle cx="489.12" cy="78.66" r="2.2" fill="#222222"/><text x="526.54" y="168.91" font-size="11.0" fill="#222222" text-anchor="start" dominant-baseline="central" transform="rotate(294.55 526.54 168.91)">Species1</text><path d="M529.73,84.58 A384.00,384.00 0 0 1 588.19,111.27 L582.31,121.73 A372.00,372.00 0 0 0 525.68,95.87 Z" fill="#f4cc9a" stroke="#666666" stroke-width="0.5"/><circle cx="557.03" cy="102.16" r="2.2" fill="#222222"/><text x="576.70" y="197.86" font-size="11.0" fill="#222222" text-anchor="start" dominant-baseline="central" transform="rotate(305.45 576.70 197.86)">Species10</text><path d="M595.79,115.66 A384.00,384.00 0 0 1 648.13,152.94 L640.38,162.10 A372.00,372.00 0 0 0 589.67,125.98 Z" fill="#f4ca94" stroke="#666666" stroke-width="0.5"/><circle cx="619.26" cy="138.09" r="2.2" fill="#222222"/><text x="620.46" y="235.79" font-size="11.0" fill="#222222" text-anchor="start" dominant-baseline="central" transform="rotate(316.36 620.46 235.79)">Species12</text><path d="M654.77,158.68 A384.00,384.00 0 0 1 699.11,205.19 L689.77,212.72 A372.00,372.00 0 0 0 646.80,167.66 Z" fill="#f4cd9b" stroke="#666666" stroke-width="0.5"/><circle cx="673.57" cy="185.15" r="2.2" fill="#222222"/><text x="656.26" y="281.31" font-size="11.0" fill="#222222" text-anchor="start" dominant-baseline="central" transform="rotate(327.27 656.26 281.31)">Species14</text><path d="M704.54,212.09 A384.00,384.00 0 0 1 739.28,266.15 L728.68,271.77 A372.00,372.00 0 0 0 695.02,219.40 Z" fill="#f4ca96" stroke="#666666" stroke-width="0.5"/><circle cx="717.99" cy="241.64" r="2.2" fill="#222222"/><text x="682.80" y="332.78" font-size="11.0" fill="#222222" text-anchor="start" dominant-baseline="central" transform="rotate(338.18 682.80 332.78)">Species24</text><path d="M743.30,273.95 A384.00,384.00 0 0 1 767.19,333.61 L755.71,337.12 A372.00,372.00 0 0 0 732.57,279.33 Z" fill="#f5d9b5" stroke="#666666" stroke-width="0.5"/><circle cx="750.92" cy="305.51" r="2.2" fill="#222222"/><text x="699.12" y="388.35" font-size="11.0" fill="#222222" text-anchor="start" dominant-baseline="central" transform="rotate(349.09 699.12 388.35)">Species9</text><path d="M769.66,342.03 A384.00,384.00 0 0 1 781.82,405.13 L769.89,406.41 A372.00,372.00 0 0 0 758.11,345.28 Z" fill="#f5d8b3" stroke="#666666" stroke-width="0.5"/><circle cx="771.17" cy="374.46" r="2.2" fill="#222222"/><defs><linearGradient id="halo-scale" x1="0" x2="1" y1="0" y2="0"><stop offset="0.000" stop-color="#b35806"/><stop offset="0.100" stop-color="#cc761d"/><stop offset="0.200" stop-color="#e59434"/><stop offset="0.300" stop-color="#f2b465"/><stop offset="0.400" stop-color="#f5d5ae"/><stop offset="0.500" stop-color="#f7f7f7"/><stop offset="0.600" stop-color="#d1cde2"/><stop offset="0.700" stop-color="#aca3cd"/><stop offset="0.800" stop-color="#8b79b7"/><stop offset="0.900" stop-color="#7050a0"/><stop offset="1.000" stop-color="#542788"/></linearGradient></defs><text x="12" y="863.0" font-size="11" fill="#222222">Halo value</text><rect x="90" y="854.0" width="120" height="10" fill="url(#halo-scale)" stroke="#666666" stroke-width="0.5"/><text x="90" y="876.0" font-size="10" fill="#222222" text-anchor="middle">0</text><text x="150" y="876.0" font-size="10" fill="#222222" text-anchor="middle">0.5</text><text x="210" y="876.0" font-size="10" fill="#222222" text-anchor="middle">1</text><circle cx="238" cy="859.0" r="2.6" fill="#222222"/><text x="246" y="863.0" font-size="11" fill="#222222">halo value below 0.6</text><text x="12" y="896.0" font-size="10" fill="#555555">Unrooted tree, drawn rooted at the midpoint of its longest path. Branch lengths are not drawn.</text><text x="400.0" y="446.0" font-size="35.9" font-weight="bold" fill="#c0392b" fill-opacity="0.22" text-anchor="middle" dominant-baseline="central" transform="rotate(-30 400.0 446.0)">PROVISIONAL — 99% of quartets</text><text x="788.0" y="20" font-size="12" font-weight="bold" fill="#c0392b" text-anchor="end">PROVISIONAL — 99% of quartets</text></svg>
