<svg xmlns="http://www.w3.org/2000/svg" width="800" height="904" viewBox="0 0 800 904" font-family="sans-serif"><rect width="800" height="904" fill="#ffffff"/><text x="12" y="20.0" font-size="15" font-weight="bold" fill="#222222">Provisional Halo Tree: sim_hgt_250_seed5</text><text x="12" y="38.0" font-size="12" font-weight="normal" fill="#222222">33 taxa, 40687 of 40920 quartets (99%), update 39</text><g fill="none" stroke-linecap="round"><line x1="400.00" y1="446.00" x2="413.71" y2="486.40" stroke="#333333" stroke-width="1.40"/><line x1="400.00" y1="446.00" x2="423.17" y2="410.18" stroke="#333333" stroke-width="1.40"/><path d="M413.71,486.40 A42.66,42.66 0 0 0 440.93,458.02" stroke="#333333" stroke-width="1.40"/><line x1="440.93" y1="458.02" x2="481.86" y2="470.04" stroke="#333333" stroke-width="1.40"/><path d="M413.71,486.40 A42.66,42.66 0 0 1 374.84,480.45" stroke="#333333" stroke-width="1.40"/><line x1="374.84" y1="480.45" x2="349.69" y2="514.91" stroke="#333333" stroke-width="1.40"/><path d="M481.86,470.04 A85.32,85.32 0 0 0 484.93,454.11" stroke="#333333" stroke-width="1.40"/><line x1="484.93" y1="454.11" x2="527.40" y2="458.17" stroke="#333333" stroke-width="1.40"/><path d="M481.86,470.04 A85.32,85.32 0 0 1 475.84,485.10" stroke="#333333" stroke-width="1.40"/><line x1="475.84" y1="485.10" x2="513.75" y2="504.64" stroke="#333333" stroke-width="1.40"/><path d="M527.40,458.17 A127.98,127.98 0 0 0 527.98,446.00" stroke="#333333" stroke-width="1.40"/><line x1="527.98" y1="446.00" x2="698.62" y2="446.00" stroke="#333333" stroke-width="1.40"/><path d="M527.40,458.17 A127.98,127.98 0 0 1 525.67,470.22" stroke="#333333" stroke-width="1.40"/><line x1="525.67" y1="470.22" x2="693.22" y2="502.51" stroke="#333333" stroke-width="1.40"/><path d="M513.75,504.64 A127.98,127.98 0 0 0 518.81,493.57" stroke="#333333" stroke-width="1.40"/><line x1="518.81" y1="493.57" x2="677.23" y2="556.99" stroke="#333333" stroke-width="1.40"/><path d="M513.75,504.64 A127.98,127.98 0 0 1 507.66,515.19" stroke="#333333" stroke-width="1.40"/><line x1="507.66" y1="515.19" x2="651.22" y2="607.45" stroke="#333333" stroke-width="1.40"/><path d="M349.69,514.91 A85.32,85.32 0 0 0 403.05,531.27" stroke="#333333" stroke-width="1.40"/><line x1="403.05" y1="531.27" x2="404.57" y2="573.90" stroke="#333333" stroke-width="1.40"/><path d="M349.69,514.91 A85.32,85.32 0 0 1 317.86,469.06" stroke="#333333" stroke-width="1.40"/><line x1="317.86" y1="469.06" x2="276.78" y2="480.59" stroke="#333333" stroke-width="1.40"/><path d="M404.57,573.90 A127.98,127.98 0 0 0 455.92,561.12" stroke="#333333" stroke-width="1.40"/><line x1="455.92" y1="561.12" x2="474.56" y2="599.49" stroke="#333333" stroke-width="1.40"/><path d="M404.57,573.90 A127.98,127.98 0 0 1 352.43,564.81" stroke="#333333" stroke-width="1.40"/><line x1="352.43" y1="564.81" x2="336.58" y2="604.42" stroke="#333333" stroke-width="1.40"/><path d="M474.56,599.49 A170.64,170.64 0 0 0 511.75,574.96" stroke="#333333" stroke-width="1.40"/><line x1="511.75" y1="574.96" x2="539.68" y2="607.20" stroke="#333333" stroke-width="1.40"/><path d="M474.56,599.49 A170.64,170.64 0 0 1 432.29,613.56" stroke="#333333" stroke-width="1.40"/><line x1="432.29" y1="613.56" x2="440.37" y2="655.45" stroke="#333333" stroke-width="1.40"/><path d="M539.68,607.20 A213.30,213.30 0 0 0 554.37,593.19" stroke="#333333" stroke-width="1.40"/><line x1="554.37" y1="593.19" x2="616.12" y2="652.07" stroke="#333333" stroke-width="1.40"/><path d="M539.68,607.20 A213.30,213.30 0 0 1 523.73,619.75" stroke="#333333" stroke-width="1.40"/><line x1="523.73" y1="619.75" x2="573.22" y2="689.25" stroke="#333333" stroke-width="1.40"/><path d="M440.37,655.45 A213.30,213.30 0 0 0 469.76,647.57" stroke="#333333" stroke-width="1.40"/><line x1="469.76" y1="647.57" x2="483.72" y2="687.88" stroke="#333333" stroke-width="1.40"/><path d="M440.37,655.45 A213.30,213.30 0 0 1 410.15,659.06" stroke="#333333" stroke-width="1.40"/><line x1="410.15" y1="659.06" x2="414.21" y2="744.28" stroke="#333333" stroke-width="1.40"/><path d="M483.72,687.88 A255.96,255.96 0 0 0 506.33,678.83" stroke="#333333" stroke-width="1.40"/><line x1="506.33" y1="678.83" x2="524.05" y2="717.63" stroke="#333333" stroke-width="1.40"/><path d="M483.72,687.88 A255.96,255.96 0 0 1 460.34,694.74" stroke="#333333" stroke-width="1.40"/><line x1="460.34" y1="694.74" x2="470.40" y2="736.20" stroke="#333333" stroke-width="1.40"/><path d="M336.58,604.42 A170.64,170.64 0 0 0 359.77,611.83" stroke="#333333" stroke-width="1.40"/><line x1="359.77" y1="611.83" x2="349.71" y2="653.29" stroke="#333333" stroke-width="1.40"/><path d="M336.58,604.42 A170.64,170.64 0 0 1 314.68,593.78" stroke="#333333" stroke-width="1.40"/><line x1="314.68" y1="593.78" x2="250.69" y2="704.61" stroke="#333333" stroke-width="1.40"/><path d="M349.71,653.29 A213.30,213.30 0 0 0 369.64,657.13" stroke="#333333" stroke-width="1.40"/><line x1="369.64" y1="657.13" x2="357.50" y2="741.58" stroke="#333333" stroke-width="1.40"/><path d="M349.71,653.29 A213.30,213.30 0 0 1 330.24,647.57" stroke="#333333" stroke-width="1.40"/><line x1="330.24" y1="647.57" x2="302.33" y2="728.20" stroke="#333333" stroke-width="1.40"/><path d="M276.78,480.59 A127.98,127.98 0 0 0 295.75,520.24" stroke="#333333" stroke-width="1.40"/><line x1="295.75" y1="520.24" x2="261.00" y2="544.98" stroke="#333333" stroke-width="1.40"/><path d="M276.78,480.59 A127.98,127.98 0 0 1 272.35,436.87" stroke="#333333" stroke-width="1.40"/><line x1="272.35" y1="436.87" x2="229.79" y2="433.83" stroke="#333333" stroke-width="1.40"/><path d="M261.00,544.98 A170.64,170.64 0 0 0 276.50,563.76" stroke="#333333" stroke-width="1.40"/><line x1="276.50" y1="563.76" x2="245.63" y2="593.19" stroke="#333333" stroke-width="1.40"/><path d="M261.00,544.98 A170.64,170.64 0 0 1 248.33,524.19" stroke="#333333" stroke-width="1.40"/><line x1="248.33" y1="524.19" x2="134.58" y2="582.84" stroke="#333333" stroke-width="1.40"/><path d="M245.63,593.19 A213.30,213.30 0 0 0 260.32,607.20" stroke="#333333" stroke-width="1.40"/><line x1="260.32" y1="607.20" x2="204.45" y2="671.68" stroke="#333333" stroke-width="1.40"/><path d="M245.63,593.19 A213.30,213.30 0 0 1 232.33,577.85" stroke="#333333" stroke-width="1.40"/><line x1="232.33" y1="577.85" x2="165.27" y2="630.59" stroke="#333333" stroke-width="1.40"/><path d="M229.79,433.83 A170.64,170.64 0 0 0 232.44,478.29" stroke="#333333" stroke-width="1.40"/><line x1="232.44" y1="478.29" x2="190.55" y2="486.37" stroke="#333333" stroke-width="1.40"/><path d="M229.79,433.83 A170.64,170.64 0 0 1 238.75,390.19" stroke="#333333" stroke-width="1.40"/><line x1="238.75" y1="390.19" x2="198.43" y2="376.24" stroke="#333333" stroke-width="1.40"/><path d="M190.55,486.37 A213.30,213.30 0 0 0 195.34,506.09" stroke="#333333" stroke-width="1.40"/><line x1="195.34" y1="506.09" x2="113.48" y2="530.13" stroke="#333333" stroke-width="1.40"/><path d="M190.55,486.37 A213.30,213.30 0 0 1 187.67,466.28" stroke="#333333" stroke-width="1.40"/><line x1="187.67" y1="466.28" x2="102.73" y2="474.39" stroke="#333333" stroke-width="1.40"/><path d="M198.43,376.24 A213.30,213.30 0 0 0 190.55,405.63" stroke="#333333" stroke-width="1.40"/><line x1="190.55" y1="405.63" x2="148.67" y2="397.56" stroke="#333333" stroke-width="1.40"/><path d="M198.43,376.24 A213.30,213.30 0 0 1 210.41,348.26" stroke="#333333" stroke-width="1.40"/><line x1="210.41" y1="348.26" x2="134.58" y2="309.16" stroke="#333333" stroke-width="1.40"/><path d="M148.67,397.56 A255.96,255.96 0 0 0 145.20,421.67" stroke="#333333" stroke-width="1.40"/><line x1="145.20" y1="421.67" x2="102.73" y2="417.61" stroke="#333333" stroke-width="1.40"/><path d="M148.67,397.56 A255.96,255.96 0 0 1 154.41,373.89" stroke="#333333" stroke-width="1.40"/><line x1="154.41" y1="373.89" x2="113.48" y2="361.87" stroke="#333333" stroke-width="1.40"/><path d="M423.17,410.18 A42.66,42.66 0 0 0 394.18,403.74" stroke="#333333" stroke-width="1.40"/><line x1="394.18" y1="403.74" x2="388.36" y2="361.48" stroke="#333333" stroke-width="1.40"/><path d="M423.17,410.18 A42.66,42.66 0 0 1 440.93,433.98" stroke="#333333" stroke-width="1.40"/><line x1="440.93" y1="433.98" x2="481.86" y2="421.96" stroke="#333333" stroke-width="1.40"/><path d="M388.36,361.48 A85.32,85.32 0 0 0 347.26,378.93" stroke="#333333" stroke-width="1.40"/><line x1="347.26" y1="378.93" x2="320.89" y2="345.40" stroke="#333333" stroke-width="1.40"/><path d="M388.36,361.48 A85.32,85.32 0 0 1 432.65,367.17" stroke="#333333" stroke-width="1.40"/><line x1="432.65" y1="367.17" x2="448.98" y2="327.76" stroke="#333333" stroke-width="1.40"/><path d="M320.89,345.40 A127.98,127.98 0 0 0 307.38,357.68" stroke="#333333" stroke-width="1.40"/><line x1="307.38" y1="357.68" x2="276.50" y2="328.24" stroke="#333333" stroke-width="1.40"/><path d="M320.89,345.40 A127.98,127.98 0 0 1 336.01,335.17" stroke="#333333" stroke-width="1.40"/><line x1="336.01" y1="335.17" x2="250.69" y2="187.39" stroke="#333333" stroke-width="1.40"/><path d="M276.50,328.24 A170.64,170.64 0 0 0 265.87,340.52" stroke="#333333" stroke-width="1.40"/><line x1="265.87" y1="340.52" x2="165.27" y2="261.41" stroke="#333333" stroke-width="1.40"/><path d="M276.50,328.24 A170.64,170.64 0 0 1 288.25,317.04" stroke="#333333" stroke-width="1.40"/><line x1="288.25" y1="317.04" x2="204.45" y2="220.32" stroke="#333333" stroke-width="1.40"/><path d="M448.98,327.76 A127.98,127.98 0 0 0 409.13,318.35" stroke="#333333" stroke-width="1.40"/><line x1="409.13" y1="318.35" x2="412.17" y2="275.79" stroke="#333333" stroke-width="1.40"/><path d="M448.98,327.76 A127.98,127.98 0 0 1 483.81,349.28" stroke="#333333" stroke-width="1.40"/><line x1="483.81" y1="349.28" x2="511.75" y2="317.04" stroke="#333333" stroke-width="1.40"/><path d="M412.17,275.79 A170.64,170.64 0 0 0 383.78,276.13" stroke="#333333" stroke-width="1.40"/><line x1="383.78" y1="276.13" x2="379.72" y2="233.67" stroke="#333333" stroke-width="1.40"/><path d="M412.17,275.79 A170.64,170.64 0 0 1 440.23,280.17" stroke="#333333" stroke-width="1.40"/><line x1="440.23" y1="280.17" x2="470.40" y2="155.80" stroke="#333333" stroke-width="1.40"/><path d="M379.72,233.67 A213.30,213.30 0 0 0 349.71,238.71" stroke="#333333" stroke-width="1.40"/><line x1="349.71" y1="238.71" x2="339.66" y2="197.26" stroke="#333333" stroke-width="1.40"/><path d="M379.72,233.67 A213.30,213.30 0 0 1 410.15,232.94" stroke="#333333" stroke-width="1.40"/><line x1="410.15" y1="232.94" x2="414.21" y2="147.72" stroke="#333333" stroke-width="1.40"/><path d="M339.66,197.26 A255.96,255.96 0 0 0 316.28,204.12" stroke="#333333" stroke-width="1.40"/><line x1="316.28" y1="204.12" x2="302.33" y2="163.80" stroke="#333333" stroke-width="1.40"/><path d="M339.66,197.26 A255.96,255.96 0 0 1 363.57,192.65" stroke="#333333" stroke-width="1.40"/><line x1="363.57" y1="192.65" x2="357.50" y2="150.42" stroke="#333333" stroke-width="1.40"/><path d="M511.75,317.04 A170.64,170.64 0 0 0 485.32,298.22" stroke="#333333" stroke-width="1.40"/><line x1="485.32" y1="298.22" x2="506.65" y2="261.28" stroke="#333333" stroke-width="1.40"/><path d="M511.75,317.04 A170.64,170.64 0 0 1 534.13,340.52" stroke="#333333" stroke-width="1.40"/><line x1="534.13" y1="340.52" x2="567.67" y2="314.15" stroke="#333333" stroke-width="1.40"/><path d="M506.65,261.28 A213.30,213.30 0 0 0 488.61,251.98" stroke="#333333" stroke-width="1.40"/><line x1="488.61" y1="251.98" x2="524.05" y2="174.37" stroke="#333333" stroke-width="1.40"/><path d="M506.65,261.28 A213.30,213.30 0 0 1 523.73,272.25" stroke="#333333" stroke-width="1.40"/><line x1="523.73" y1="272.25" x2="573.22" y2="202.75" stroke="#333333" stroke-width="1.40"/><path d="M567.67,314.15 A213.30,213.30 0 0 0 554.37,298.81" stroke="#333333" stroke-width="1.40"/><line x1="554.37" y1="298.81" x2="616.12" y2="239.93" stroke="#333333" stroke-width="1.40"/><path d="M567.67,314.15 A213.30,213.30 0 0 1 579.44,330.68" stroke="#333333" stroke-width="1.40"/><line x1="579.44" y1="330.68" x2="651.22" y2="284.55" stroke="#333333" stroke-width="1.40"/><path d="M481.86,421.96 A85.32,85.32 0 0 0 479.21,414.29" stroke="#333333" stroke-width="1.40"/><line x1="479.21" y1="414.29" x2="677.23" y2="335.01" stroke="#333333" stroke-width="1.40"/><path d="M481.86,421.96 A85.32,85.32 0 0 1 483.78,429.85" stroke="#333333" stroke-width="1.40"/><line x1="483.78" y1="429.85" x2="693.22" y2="389.49" stroke="#333333" stroke-width="1.40"/></g><text x="704.62" y="446.00" font-size="11.0" fill="#222222" text-anchor="start" dominant-baseline="central" transform="rotate(0.00 704.62 446.00)">Species16</text><path d="M782.65,413.87 A384.00,384.00 0 0 1 782.65,478.13 L770.70,477.13 A372.00,372.00 0 0 0 770.70,414.87 Z" fill="#f4cb97" stroke="#666666" stroke-width="0.5"/><circle cx="778.00" cy="446.00" r="2.2" fill="#222222"/><text x="699.12" y="503.65" font-size="11.0" fill="#222222" text-anchor="start" dominant-baseline="central" transform="rotate(10.91 699.12 503.65)">Species4</text><path d="M781.82,486.87 A384.00,384.00 0 0 1 769.66,549.97 L758.11,546.72 A372.00,372.00 0 0 0 769.89,485.59 Z" fill="#f4cc99" stroke="#666666" stroke-width="0.5"/><circle cx="771.17" cy="517.54" r="2.2" fill="#222222"/><text x="682.80" y="559.22" font-size="11.0" fill="#222222" text-anchor="start" dominant-baseline="central" transform="rotate(21.82 682.80 559.22)">Species12</text><path d="M767.19,558.39 A384.00,384.00 0 0 1 743.30,618.05 L732.57,612.67 A372.00,372.00 0 0 0 755.71,554.88 Z" fill="#f4d0a1" stroke="#666666" stroke-width="0.5"/><circle cx="750.92" cy="586.49" r="2.2" fill="#222222"/><text x="656.26" y="610.69" font-size="11.0" fill="#222222" text-anchor="start" dominant-baseline="central" transform="rotate(32.73 656.26 610.69)">Species20</text><path d="M739.28,625.85 A384.00,384.00 0 0 1 704.54,679.91 L695.02,672.60 A372.00,372.00 0 0 0 728.68,620.23 Z" fill="#f4ca95" stroke="#666666" stroke-width="0.5"/><circle cx="717.99" cy="650.36" r="2.2" fill="#222222"/><text x="620.46" y="656.21" font-size="11.0" fill="#222222" text-anchor="start" dominant-baseline="central" transform="rotate(43.64 620.46 656.21)">Species2</text><path d="M699.11,686.81 A384.00,384.00 0 0 1 654.77,733.32 L646.80,724.34 A372.00,372.00 0 0 0 689.77,679.28 Z" fill="#f4d2a6" stroke="#666666" stroke-width="0.5"/><circle cx="673.57" cy="706.85" r="2.2" fill="#222222"/><text x="576.70" y="694.14" font-size="11.0" fill="#222222" text-anchor="start" dominant-baseline="central" transform="rotate(54.55 576.70 694.14)">Species21</text><path d="M648.13,739.06 A384.00,384.00 0 0 1 595.79,776.34 L589.67,766.02 A372.00,372.00 0 0 0 640.38,729.90 Z" fill="#f4d2a7" stroke="#666666" stroke-width="0.5"/><circle cx="619.26" cy="753.91" r="2.2" fill="#222222"/><text x="526.54" y="723.09" font-size="11.0" fill="#222222" text-anchor="start" dominant-baseline="central" transform="rotate(65.45 526.54 723.09)">Species18</text><path d="M588.19,780.73 A384.00,384.00 0 0 1 529.73,807.42 L525.68,796.13 A372.00,372.00 0 0 0 582.31,770.27 Z" fill="#f5e2c9" stroke="#666666" stroke-width="0.5"/><circle cx="557.03" cy="789.84" r="2.2" fill="#222222"/><text x="471.82" y="742.03" font-size="11.0" fill="#222222" text-anchor="start" dominant-baseline="central" transform="rotate(76.36 471.82 742.03)">Species32</text><path d="M521.44,810.29 A384.00,384.00 0 0 1 458.99,825.44 L457.14,813.58 A372.00,372.00 0 0 0 517.65,798.91 Z" fill="#f5e2c9" stroke="#666666" stroke-width="0.5"/><circle cx="489.12" cy="813.34" r="2.2" fill="#222222"/><text x="414.49" y="750.27" font-size="11.0" fill="#222222" text-anchor="start" dominant-baseline="central" transform="rotate(87.27 414.49 750.27)">Species22</text><path d="M450.30,826.69 A384.00,384.00 0 0 1 386.11,829.75 L386.55,817.76 A372.00,372.00 0 0 0 448.73,814.79 Z" fill="#f4d2a5" stroke="#666666" stroke-width="0.5"/><circle cx="417.99" cy="823.57" r="2.2" fill="#222222"/><text x="356.65" y="747.52" font-size="11.0" fill="#222222" text-anchor="end" dominant-baseline="central" transform="rotate(278.18 356.65 747.52)">Species24</text><path d="M377.35,829.33 A384.00,384.00 0 0 1 313.74,820.19 L316.43,808.49 A372.00,372.00 0 0 0 378.06,817.35 Z" fill="#f5dbba" stroke="#666666" stroke-width="0.5"/><circle cx="346.20" cy="820.15" r="2.2" fill="#222222"/><text x="300.37" y="733.87" font-size="11.0" fill="#222222" text-anchor="end" dominant-baseline="central" transform="rotate(289.09 300.37 733.87)">Species9</text><path d="M305.21,818.12 A384.00,384.00 0 0 1 244.48,797.10 L249.34,786.13 A372.00,372.00 0 0 0 308.17,806.49 Z" fill="#f5dab8" stroke="#666666" stroke-width="0.5"/><circle cx="276.37" cy="803.21" r="2.2" fill="#222222"/><text x="247.69" y="709.81" font-size="11.0" fill="#222222" text-anchor="end" dominant-baseline="central" transform="rotate(300.00 247.69 709.81)">Species7</text><path d="M236.50,793.45 A384.00,384.00 0 0 1 180.85,761.32 L187.69,751.47 A372.00,372.00 0 0 0 241.61,782.60 Z" fill="#f4ca94" stroke="#666666" stroke-width="0.5"/><circle cx="211.00" cy="773.36" r="2.2" fill="#222222"/><text x="200.52" y="676.22" font-size="11.0" fill="#222222" text-anchor="end" dominant-baseline="central" transform="rotate(310.91 200.52 676.22)">Species29</text><path d="M173.70,756.23 A384.00,384.00 0 0 1 125.13,714.15 L133.72,705.77 A372.00,372.00 0 0 0 180.77,746.54 Z" fill="#f5dbba" stroke="#666666" stroke-width="0.5"/><circle cx="152.46" cy="731.67" r="2.2" fill="#222222"/><text x="160.55" y="634.30" font-size="11.0" fill="#222222" text-anchor="end" dominant-baseline="central" transform="rotate(321.82 160.55 634.30)">Species30</text><path d="M119.08,707.80 A384.00,384.00 0 0 1 79.35,657.28 L89.37,650.68 A372.00,372.00 0 0 0 127.86,699.62 Z" fill="#f5dab9" stroke="#666666" stroke-width="0.5"/><circle cx="102.87" cy="679.66" r="2.2" fill="#222222"/><text x="129.24" y="585.58" font-size="11.0" fill="#222222" text-anchor="end" dominant-baseline="central" transform="rotate(332.73 129.24 585.58)">Species26</text><path d="M74.61,649.90 A384.00,384.00 0 0 1 45.16,592.78 L56.25,588.19 A372.00,372.00 0 0 0 84.78,643.53 Z" fill="#f4ce9d" stroke="#666666" stroke-width="0.5"/><circle cx="64.02" cy="619.21" r="2.2" fill="#222222"/><text x="107.72" y="531.82" font-size="11.0" fill="#222222" text-anchor="end" dominant-baseline="central" transform="rotate(343.64 107.72 531.82)">Species3</text><path d="M41.90,584.64 A384.00,384.00 0 0 1 23.79,522.98 L35.55,520.57 A372.00,372.00 0 0 0 53.09,580.30 Z" fill="#f5dcbb" stroke="#666666" stroke-width="0.5"/><circle cx="37.31" cy="552.49" r="2.2" fill="#222222"/><text x="96.76" y="474.96" font-size="11.0" fill="#222222" text-anchor="end" dominant-baseline="central" transform="rotate(354.55 96.76 474.96)">Species33</text><path d="M22.13,514.36 A384.00,384.00 0 0 1 16.03,450.39 L28.02,450.25 A372.00,372.00 0 0 0 33.94,512.22 Z" fill="#f5dcbb" stroke="#666666" stroke-width="0.5"/><circle cx="23.71" cy="481.93" r="2.2" fill="#222222"/><text x="96.76" y="417.04" font-size="11.0" fill="#222222" text-anchor="end" dominant-baseline="central" transform="rotate(365.45 96.76 417.04)">Species19</text><path d="M16.03,441.61 A384.00,384.00 0 0 1 22.13,377.64 L33.94,379.78 A372.00,372.00 0 0 0 28.02,441.75 Z" fill="#f5e1c6" stroke="#666666" stroke-width="0.5"/><circle cx="23.71" cy="410.07" r="2.2" fill="#222222"/><text x="107.72" y="360.18" font-size="11.0" fill="#222222" text-anchor="end" dominant-baseline="central" transform="rotate(376.36 107.72 360.18)">Species23</text><path d="M23.79,369.02 A384.00,384.00 0 0 1 41.90,307.36 L53.09,311.70 A372.00,372.00 0 0 0 35.55,371.43 Z" fill="#f5e1c7" stroke="#666666" stroke-width="0.5"/><circle cx="37.31" cy="339.51" r="2.2" fill="#222222"/><text x="129.24" y="306.42" font-size="11.0" fill="#222222" text-anchor="end" dominant-baseline="central" transform="rotate(387.27 129.24 306.42)">Species17</text><path d="M45.16,299.22 A384.00,384.00 0 0 1 74.61,242.10 L84.78,248.47 A372.00,372.00 0 0 0 56.25,303.81 Z" fill="#f5dec1" stroke="#666666" stroke-width="0.5"/><circle cx="64.02" cy="272.79" r="2.2" fill="#222222"/><text x="160.55" y="257.70" font-size="11.0" fill="#222222" text-anchor="end" dominant-baseline="central" transform="rotate(398.18 160.55 257.70)">Species11</text><path d="M79.35,234.72 A384.00,384.00 0 0 1 119.08,184.20 L127.86,192.38 A372.00,372.00 0 0 0 89.37,241.32 Z" fill="#f6e7d5" stroke="#666666" stroke-width="0.5"/><circle cx="102.87" cy="212.34" r="2.2" fill="#222222"/><text x="200.52" y="215.78" font-size="11.0" fill="#222222" text-anchor="end" dominant-baseline="central" transform="rotate(409.09 200.52 215.78)">Species31</text><path d="M125.13,177.85 A384.00,384.00 0 0 1 173.70,135.77 L180.77,145.46 A372.00,372.00 0 0 0 133.72,186.23 Z" fill="#f6e8d6" stroke="#666666" stroke-width="0.5"/><circle cx="152.46" cy="160.33" r="2.2" fill="#222222"/><text x="247.69" y="182.19" font-size="11.0" fill="#222222" text-anchor="end" dominant-baseline="central" transform="rotate(420.00 247.69 182.19)">Species28</text><path d="M180.85,130.68 A384.00,384.00 0 0 1 236.50,98.55 L241.61,109.40 A372.00,372.00 0 0 0 187.69,140.53 Z" fill="#f5e0c5" stroke="#666666" stroke-width="0.5"/><circle cx="211.00" cy="118.64" r="2.2" fill="#222222"/><text x="300.37" y="158.13" font-size="11.0" fill="#222222" text-anchor="end" dominant-baseline="central" transform="rotate(430.91 300.37 158.13)">Species15</text><path d="M244.48,94.90 A384.00,384.00 0 0 1 305.21,73.88 L308.17,85.51 A372.00,372.00 0 0 0 249.34,105.87 Z" fill="#f5d7b1" stroke="#666666" stroke-width="0.5"/><circle cx="276.37" cy="88.79" r="2.2" fill="#222222"/><text x="356.65" y="144.48" font-size="11.0" fill="#222222" text-anchor="end" dominant-baseline="central" transform="rotate(441.82 356.65 144.48)">Species27</text><path d="M313.74,71.81 A384.00,384.00 0 0 1 377.35,62.67 L378.06,74.65 A372.00,372.00 0 0 0 316.43,83.51 Z" fill="#f5d7b1" stroke="#666666" stroke-width="0.5"/><circle cx="346.20" cy="71.85" r="2.2" fill="#222222"/><text x="414.49" y="141.73" font-size="11.0" fill="#222222" text-anchor="start" dominant-baseline="central" transform="rotate(272.73 414.49 141.73)">Species5</text><path d="M386.11,62.25 A384.00,384.00 0 0 1 450.30,65.31 L448.73,77.21 A372.00,372.00 0 0 0 386.55,74.24 Z" fill="#f4cfa0" stroke="#666666" stroke-width="0.5"/><circle cx="417.99" cy="68.43" r="2.2" fill="#222222"/><text x="471.82" y="149.97" font-size="11.0" fill="#222222" text-anchor="start" dominant-baseline="central" transform="rotate(283.64 471.82 149.97)">Species14</text><path d="M458.99,66.56 A384.00,384.00 0 0 1 521.44,81.71 L517.65,93.09 A372.00,372.00 0 0 0 457.14,78.42 Z" fill="#f4cd9b" stroke="#666666" stroke-width="0.5"/><circle cx="489.12" cy="78.66" r="2.2" fill="#222222"/><text x="526.54" y="168.91" font-size="11.0" fill="#222222" text-anchor="start" dominant-baseline="central" transform="rotate(294.55 526.54 168.91)">Species25</text><path d="M529.73,84.58 A384.00,384.00 0 0 1 588.19,111.27 L582.31,121.73 A372.00,372.00 0 0 0 525.68,95.87 Z" fill="#f5ddbd" stroke="#666666" stroke-width="0.5"/><circle cx="557.03" cy="102.16" r="2.2" fill="#222222"/><text x="576.70" y="197.86" font-size="11.0" fill="#222222" text-anchor="start" dominant-baseline="central" transform="rotate(305.45 576.70 197.86)">Species6</text><path d="M595.79,115.66 A384.00,384.00 0 0 1 648.13,152.94 L640.38,162.10 A372.00,372.00 0 0 0 589.67,125.98 Z" fill="#f5dcbd" stroke="#666666" stroke-width="0.5"/><circle cx="619.26" cy="138.09" r="2.2" fill="#222222"/><text x="620.46" y="235.79" font-size="11.0" fill="#222222" text-anchor="start" dominant-baseline="central" transform="rotate(316.36 620.46 235.79)">Species13</text><path d="M654.77,158.68 A384.00,384.00 0 0 1 699.11,205.19 L689.77,212.72 A372.00,372.00 0 0 0 646.80,167.66 Z" fill="#f4cfa0" stroke="#666666" stroke-width="0.5"/><circle cx="673.57" cy="185.15" r="2.2" fill="#222222"/><text x="656.26" y="281.31" font-size="11.0" fill="#222222" text-anchor="start" dominant-baseline="central" transform="rotate(327.27 656.26 281.31)">Species8</text><path d="M704.54,212.09 A384.00,384.00 0 0 1 739.28,266.15 L728.68,271.77 A372.00,372.00 0 0 0 695.02,219.40 Z" fill="#f4c891" stroke="#666666" stroke-width="0.5"/><circle cx="717.99" cy="241.64" r="2.2" fill="#222222"/><text x="682.80" y="332.78" font-size="11.0" fill="#222222" text-anchor="start" dominant-baseline="central" transform="rotate(338.18 682.80 332.78)">Species1</text><path d="M743.30,273.95 A384.00,384.00 0 0 1 767.19,333.61 L755.71,337.12 A372.00,372.00 0 0 0 732.57,279.33 Z" fill="#f4cfa0" stroke="#666666" stroke-width="0.5"/><circle cx="750.92" cy="305.51" r="2.2" fill="#222222"/><text x="699.12" y="388.35" font-size="11.0" fill="#222222" text-anchor="start" dominant-baseline="central" transform="rotate(349.09 699.12 388.35)">Species10</text><path d="M769.66,342.03 A384.00,384.00 0 0 1 781.82,405.13 L769.89,406.41 A372.00,372.00 0 0 0 758.11,345.28 Z" fill="#f4cb97" stroke="#666666" stroke-width="0.5"/><circle cx="771.17" cy="374.46" r="2.2" fill="#222222"/><defs><linearGradient id="halo-scale" x1="0" x2="1" y1="0" y2="0"><stop offset="0.000" stop-color="#b35806"/><stop offset="0.100" stop-color="#cc761d"/><stop offset="0.200" stop-color="#e59434"/><stop offset="0.300" stop-color="#f2b465"/><stop offset="0.400" stop-color="#f5d5ae"/><stop offset="0.500" stop-color="#f7f7f7"/><stop offset="0.600" stop-color="#d1cde2"/><stop offset="0.700" stop-color="#aca3cd"/><stop offset="0.800" stop-color="#8b79b7"/><stop offset="0.900" stop-color="#7050a0"/><stop offset="1.000" stop-color="#542788"/></linearGradient></defs><text x="12" y="863.0" font-size="11" fill="#222222">Halo value</text><rect x="90" y="854.0" width="120" height="10" fill="url(#halo-scale)" stroke="#666666" stroke-width="0.5"/><text x="90" y="876.0" font-size="10" fill="#222222" text-anchor="middle">0</text><text x="150" y="876.0" font-size="10" fill="#222222" text-anchor="middle">0.5</text><text x="210" y="876.0" font-size="10" fill="#222222" text-anchor="middle">1</text><circle cx="238" cy="859.0" r="2.6" fill="#222222"/><text x="246" y="863.0" font-size="11" fill="#222222">halo value below 0.6</text><text x="12" y="896.0" font-size="10" fill="#555555">Unrooted tree, drawn rooted at the midpoint of its longest path. Branch lengths are not drawn.</text><text x="400.0" y="446.0" font-size="35.9" font-weight="bold" fill="#c0392b" fill-opacity="0.22" text-anchor="middle" dominant-baseline="central" transform="rotate(-30 400.0 446.0)">PROVISIONAL — 99% of quartets</text><text x="788.0" y="20" font-size="12" font-weight="bold" fill="#c0392b" text-anchor="end">PROVISIONAL — 99% of quartets</text></svg>
